<svg width="318" height="300" viewBox="0 0 318 300" fill="none" xmlns="http://www.w3.org/2000/svg">
<path d="M243.935 46.2301C247.026 48.8394 248.924 52.4889 249.289 56.5106V59.3462H253.343L253.588 59.3352C261.971 58.6272 269.372 64.8714 270.08 73.2542L275.897 72.7615C274.963 61.711 265.624 53.3575 254.712 53.445C253.741 48.8942 251.311 44.8141 247.698 41.7669C243.391 38.132 237.925 36.3912 232.312 36.8657L232.804 42.6829C236.87 42.3398 240.819 43.5989 243.935 46.2265V46.2301Z" fill="url(#paint0_linear_5087_5339)" fill-opacity="0.5"/>
<path d="M112.621 247.227C112.647 247.234 112.676 247.234 112.702 247.234C116.402 247.563 120.136 247.738 123.895 247.738C135.299 247.738 146.433 246.223 157.188 243.22C167.932 241.016 178.811 237.925 189.781 233.954C210.89 226.312 232.374 215.419 253.635 201.569C267.131 192.778 278.846 183.88 288.239 176.165L285.057 171.228C275.733 178.91 264.014 187.84 250.45 196.675C229.564 210.277 208.485 220.973 187.796 228.462C184.72 229.575 181.65 230.611 178.592 231.582L177.687 230.681C157.323 209.01 145.649 177.078 145.649 142.966C145.649 95.3231 168.578 52.8693 202.919 36.4943C209.7 43.6983 214.999 50.9096 219.82 62.4965L219.86 62.4819V62.5257C228.246 61.8141 235.644 68.0582 236.355 76.441V79.1854H240.41L240.654 79.1744C244.716 78.8314 248.669 80.0904 251.785 82.718C254.902 85.3456 256.807 89.0315 257.15 93.0933L262.967 92.6007C262.493 86.9842 259.858 81.8896 255.551 78.2548C251.658 74.9666 246.815 73.2368 241.768 73.2842C239.873 64.4708 232.531 57.8581 223.696 56.7852C218.532 45.5157 212.641 38.1074 205.54 30.783L205.572 30.7465C182.982 10.9191 153.977 0 123.898 0C90.8124 0 59.7047 12.8861 36.3118 36.279C12.9153 59.6755 0.0328369 90.7796 0.0328369 123.865C0.0328369 156.951 12.919 188.059 36.3118 211.452C57.0297 232.17 83.7946 244.636 112.625 247.22L112.621 247.227ZM198.306 32.2646C163.141 50.2855 139.81 94.0714 139.81 142.966C139.81 177.22 151.167 209.437 171.078 232.086C166.093 234.264 161.002 236.085 155.82 237.541C153.298 238.056 150.787 238.52 148.284 238.936C130.642 213.309 120.946 180.296 120.946 145.667C120.946 115.672 128.124 87.0791 141.7 62.9782C148.171 51.4898 155.915 41.3882 164.713 32.9544C169.717 28.159 175.056 23.933 180.599 20.3565C186.818 23.7651 192.748 27.743 198.306 32.2646ZM144.47 11.4556C145.558 10.4118 146.703 9.35349 147.882 8.29881C157.145 10.2184 166.126 13.2474 174.644 17.3056C169.786 20.6631 165.1 24.4913 160.67 28.7356C151.459 37.5672 143.364 48.1214 136.613 60.1061C122.544 85.0828 115.107 114.665 115.107 145.66C115.107 180.41 124.588 213.638 141.886 239.877C132.609 241.1 123.468 241.618 114.494 241.428C99.7426 213.492 91.9511 180.742 91.9511 146.59C91.9511 110.662 100.553 76.4008 116.829 47.5119C124.599 33.7207 133.901 21.5864 144.47 11.4519V11.4556ZM123.895 5.83909C129.529 5.83909 135.124 6.24783 140.642 7.0361C140.572 7.10179 140.499 7.17113 140.426 7.24047C129.442 17.7727 119.789 30.356 111.738 44.6471C94.9728 74.4119 86.1083 109.662 86.1083 146.594C86.1083 180.326 93.5203 212.758 107.582 240.775C99.1696 239.618 90.973 237.574 83.1012 234.68C70.0545 206.766 63.157 174.665 63.157 141.755C63.157 103.418 72.3354 66.8576 89.7067 36.0308C95.7793 25.2504 102.786 15.3532 110.534 6.59087C114.939 6.0982 119.395 5.83909 123.891 5.83909H123.895ZM67.1459 20.3237C77.9373 14.3897 89.5935 10.2002 101.764 7.90467C95.4764 15.6342 89.7249 24.0972 84.6194 33.1624C66.759 64.865 57.318 102.414 57.318 141.755C57.318 173.308 63.5074 204.156 75.2622 231.472C65.5401 227.075 56.4056 221.331 48.0922 214.338C39.1182 190.23 34.374 163.265 34.374 136.281C34.374 97.9434 43.5523 61.3834 60.9236 30.5567C62.887 27.0751 64.9781 23.6374 67.1459 20.3237ZM40.4357 40.4065C45.3296 35.5126 50.5738 31.1041 56.1173 27.1992C56.0261 27.3634 55.9275 27.524 55.8363 27.6846C37.976 59.3872 28.5349 96.9362 28.5349 136.277C28.5349 160.465 32.0529 183.818 39.0051 205.861C17.6194 183.742 5.86098 154.71 5.86098 123.865C5.86098 93.0204 18.1377 62.7009 40.432 40.4065H40.4357Z" fill="url(#paint1_linear_5087_5339)" fill-opacity="0.5"/>
<path d="M129.307 273.399C152.415 273.399 176.545 268.793 201.109 259.688C222.221 251.864 243.705 240.711 264.967 226.544C279.86 216.621 292.579 206.563 302.41 198.148L299.217 193.195C289.444 201.596 276.652 211.745 261.609 221.759C240.738 235.656 219.67 246.583 199 254.239C173.257 263.772 148.061 268.224 124.103 267.476H124.048H123.993C123.785 267.469 102.341 267.501 76.9775 259.783C62.1243 255.261 48.8951 249.013 37.6548 241.207C23.6775 231.503 12.7438 219.34 5.15665 205.052L0 207.789C8.0251 222.902 19.5756 235.759 34.3266 245.999C46.0668 254.152 59.847 260.666 75.2805 265.363C101.089 273.216 122.468 273.304 123.975 273.308C125.745 273.362 127.522 273.392 129.307 273.392V273.399Z" fill="url(#paint2_linear_5087_5339)" fill-opacity="0.5"/>
<path d="M314.245 216.508C303.698 225.526 289.841 236.405 273.437 247.09C250.705 261.899 227.63 273.41 204.857 281.311C176.472 291.157 148.477 295.379 121.654 293.861L121.325 299.689C124.986 299.897 128.661 300 132.358 300C156.542 300 181.523 295.58 206.769 286.825C229.991 278.771 253.493 267.049 276.623 251.98C292.936 241.353 306.786 230.518 317.435 221.453L314.245 216.508Z" fill="url(#paint3_linear_5087_5339)" fill-opacity="0.5"/>
<defs>
<linearGradient id="paint0_linear_5087_5339" x1="254.104" y1="36.7891" x2="254.104" y2="73.2542" gradientUnits="userSpaceOnUse">
<stop stop-color="#C0C0C0" stop-opacity="0"/>
<stop offset="0.510417" stop-color="#C0C0C0"/>
<stop offset="1" stop-color="#C0C0C0" stop-opacity="0"/>
</linearGradient>
<linearGradient id="paint1_linear_5087_5339" x1="144.136" y1="0" x2="144.136" y2="247.738" gradientUnits="userSpaceOnUse">
<stop stop-color="#C0C0C0" stop-opacity="0"/>
<stop offset="0.510417" stop-color="#C0C0C0"/>
<stop offset="1" stop-color="#C0C0C0" stop-opacity="0"/>
</linearGradient>
<linearGradient id="paint2_linear_5087_5339" x1="151.205" y1="193.195" x2="151.205" y2="273.399" gradientUnits="userSpaceOnUse">
<stop stop-color="#C0C0C0" stop-opacity="0"/>
<stop offset="0.510417" stop-color="#C0C0C0"/>
<stop offset="1" stop-color="#C0C0C0" stop-opacity="0"/>
</linearGradient>
<linearGradient id="paint3_linear_5087_5339" x1="219.38" y1="216.508" x2="219.38" y2="300" gradientUnits="userSpaceOnUse">
<stop stop-color="#C0C0C0" stop-opacity="0"/>
<stop offset="0.510417" stop-color="#C0C0C0"/>
<stop offset="1" stop-color="#C0C0C0" stop-opacity="0"/>
</linearGradient>
</defs>
</svg>
