<svg width="1020" height="855" viewBox="0 0 1020 855" fill="none" xmlns="http://www.w3.org/2000/svg">
<mask id="mask0_5107_2451" style="mask-type:alpha" maskUnits="userSpaceOnUse" x="-420" y="0" width="1440" height="855">
<rect x="-420" width="1440" height="855" fill="#D9D9D9"/>
</mask>
<g mask="url(#mask0_5107_2451)">
<mask id="mask1_5107_2451" style="mask-type:alpha" maskUnits="userSpaceOnUse" x="-420" y="92" width="1701" height="881">
<path fill-rule="evenodd" clip-rule="evenodd" d="M-134.252 143.446H-418.573H-418.582V104.81H-134.252C-90.3628 102.72 -47.324 108.953 -4.15283 115.545C4.48328 116.869 13.1195 118.193 21.7745 119.479C24.3468 119.915 26.9236 120.363 29.5038 120.811C60.276 126.157 91.525 131.585 121.165 118.496C197.242 83.8818 276.862 91.3256 356.143 98.7376C385.175 101.452 414.162 104.162 442.913 104.801H466.657H1277.3V143.446H511.917H488.663C444.007 144.499 400.691 137.952 356.828 131.322C337.646 128.423 318.36 125.508 298.81 123.206C243.369 116.159 196.123 137.827 147.913 159.937C144.361 161.566 140.804 163.198 137.238 164.821C110.585 177.078 81.7365 170.646 53.6802 164.391C44.9346 162.441 36.266 160.509 27.7649 159.165C18.7415 157.614 9.73682 156.091 0.76062 154.644C-44.1396 147.409 -88.5769 142.027 -134.252 143.446ZM-418.582 210.097H-94.1687C-35.4163 207.497 21.7864 215.851 80.1986 225.355C85.6144 226.235 91.042 227.127 96.4812 228.021C100.816 228.734 105.159 229.448 109.509 230.158C113.702 230.849 117.933 231.597 122.191 232.349C152.79 237.754 184.735 243.396 213.766 230.167C225.421 224.764 236.531 217.966 247.632 211.174C275.232 194.286 302.776 177.432 338.49 182.134C363.027 185.31 387.135 189.343 411.111 193.355C458.225 201.238 504.832 209.035 553.194 210.078C561.452 210.087 569.673 210.087 577.874 210.087H1277.3V171.594H545.323H521.39C513.003 172.266 504.817 171.829 496.495 171.385C491.156 171.1 485.761 170.813 480.221 170.813C451.789 170.161 422.792 163.989 393.855 157.829C339.128 146.18 284.617 134.577 234.553 160.452C179.751 188.708 124.948 208.486 65.6853 191.222C56.8319 189.828 47.9689 188.359 39.106 186.88C37.1182 186.548 35.1309 186.215 33.1439 185.881C-9.15662 178.789 -51.2939 171.724 -94.0176 171.67C-100.938 171.604 -107.717 171.594 -114.411 171.585H-114.413L-114.455 171.585H-418.582V210.078V210.097ZM-418.582 276.314H-8.75195C-1.37256 276.314 6.07312 276.314 13.6038 276.343C56.9888 275.745 99.6829 282.305 142.595 288.898C167.758 292.764 192.995 296.642 218.491 299.094C225.105 299.805 231.606 300.403 238.04 300.829C275.982 306.775 307.626 289.163 339.089 271.653L339.09 271.652C348.614 266.352 358.121 261.061 367.781 256.435C383.844 248.851 401.797 246.955 418.804 248.851C446.134 251.776 473.041 256.534 499.85 261.274C542.558 268.825 585.016 276.332 628.529 276.314H652.746H1277.3V237.57H621.102H597.613C548.197 239.402 500.571 230.69 452.41 221.881L452.409 221.881C428.52 217.511 404.5 213.118 380.064 209.975C362.112 208.079 343.214 207.131 326.207 213.767C311.932 219.556 298.535 227.795 285.202 235.995C257.055 253.304 229.187 270.442 193.924 264.01C184.475 263.185 175.055 262.142 165.663 260.967C144.958 258.367 124.362 255.078 103.804 251.794C59.0558 244.646 14.4847 237.527 -30.6542 237.618C-37.958 237.58 -45.1486 237.58 -52.2729 237.58H-418.582V276.314ZM-418.573 342.132H82.5391C135.456 341.958 187.954 348.419 240.656 354.905L240.659 354.906C253.744 356.516 266.841 358.128 279.96 359.64C289.381 360.729 298.82 361.761 308.269 362.708C354.567 370.283 397.086 349.452 437.716 328.621C455.668 320.099 475.511 318.205 495.353 320.099C514.714 322.491 533.851 325.405 552.863 328.3C601.584 335.719 649.483 343.013 698.207 341.072C708.535 341.186 718.862 341.318 729.19 341.46L732.862 341.511C762.643 341.921 792.473 342.332 822.486 342.123H845.154H1277.3V303.424H680.349C615.342 305.886 553.926 296.418 488.73 280.321C432.171 267.037 385.531 291.026 337.214 315.877C333.871 317.597 330.52 319.321 327.157 321.036C312.039 328.611 294.086 328.611 275.737 327.03C267.101 326.538 258.417 325.771 249.677 324.824C226.904 322.421 204.321 319.353 181.81 316.294L181.809 316.293C133.338 309.707 85.2058 303.166 36.2404 303.424H13.573H-418.582V342.123L-418.573 342.132ZM51.5311 409.133H-418.582V370.598H106.117L109.528 370.602H109.532H109.535H109.538H109.542H109.545H109.548H109.552H109.555H109.558H109.561C116.333 370.609 123.142 370.616 130.041 370.664C175.259 371.31 220.011 376.204 264.715 381.092L264.717 381.092L264.723 381.093C280.698 382.839 296.666 384.585 312.648 386.137C322.767 387.117 332.887 388.022 343.006 388.777C346.049 388.901 349.118 389.055 352.206 389.21C373.304 390.27 395.243 391.373 415.025 383.148C421.988 380.317 428.881 376.994 435.8 373.659C454.229 364.776 472.84 355.805 493.45 355.805C524.07 356.212 554.338 359.964 584.564 363.711C624.29 368.636 663.944 373.552 704.232 370.853C714.201 370.693 724.15 370.57 734.1 370.485C775.471 370.118 816.786 370.31 858.172 370.504H858.178C896.415 370.682 934.713 370.861 973.172 370.598H1277.3V409.133H1134.1C1127.26 409.143 1120.21 409.152 1112.98 409.152C1099.3 409.241 1085.56 409.311 1071.79 409.381C1023.06 409.628 973.868 409.877 925.229 411.009C914.977 411.075 904.715 411.122 894.463 411.168L894.445 411.169L894.427 411.169L894.41 411.169L894.392 411.169L894.374 411.169L894.357 411.169L894.338 411.169L894.319 411.169L894.299 411.169L894.279 411.169L894.209 411.17C885.374 411.208 876.539 411.242 867.704 411.275H867.702H867.7H867.698H867.696H867.694H867.692H867.69H867.687H867.685H867.683C828.52 411.425 789.359 411.574 750.153 412.113C740.544 412.245 730.935 412.395 721.316 412.584C684.122 415.521 646.972 413.057 609.842 410.594C577.964 408.479 546.1 406.365 514.237 407.672C498.008 408.25 482.846 412.376 467.442 416.568C457.734 419.21 447.93 421.878 437.702 423.7C413.135 427.472 389.513 427.472 364.842 424.125C354.505 423.191 344.169 422.145 333.832 421.051C326.101 420.232 318.372 419.386 310.643 418.539L310.641 418.539C283.927 415.614 257.208 412.688 230.387 410.896C221.75 410.321 213.095 409.859 204.421 409.557H204.41C153.287 409.557 102.267 409.557 51.5311 409.133ZM-418.573 607.781H-201.546H-180.324C-118.822 605.491 -60.2402 617.792 0.231445 632.932C19.1288 637.663 38.0262 637.663 57.8685 635.77C83.174 633.041 107.998 627.902 132.719 622.785C167.995 615.483 203.06 608.224 239.01 608.074C247.608 607.875 256.065 607.847 264.512 607.828C268.735 607.823 272.959 607.816 277.182 607.809C281.406 607.802 285.63 607.795 289.853 607.79C293.373 607.784 296.894 607.779 300.415 607.773L300.572 607.773C307.557 607.763 314.543 607.752 321.525 607.733C343.576 607.266 365.627 606.608 387.68 605.95C471.426 603.452 555.183 600.954 638.898 608.878C648.781 608.888 658.674 608.831 668.576 608.727C685.493 608.549 702.426 608.244 719.365 607.938H719.367C771.814 606.993 824.317 606.046 876.561 608.878C886.435 609.418 896.299 610.089 906.173 610.932C963.999 614.016 1016.91 637.672 1067.94 667.952C1090.61 681.199 1119.9 691.607 1139.75 671.737C1144.64 666.985 1149.46 662.001 1154.3 656.997C1180.32 630.113 1206.87 602.669 1247.71 607.79H1277.3V569.118H1229.81C1229.15 569.1 1228.5 569.081 1227.84 569.063C1209.32 568.547 1191.13 568.04 1174.71 579.006C1164.77 585.446 1155.73 594.875 1146.71 604.295L1146.71 604.295C1126.56 625.323 1106.46 646.303 1076.44 633.887C1069.73 631.064 1063.02 628.201 1056.31 625.335C997.753 600.339 938.605 575.09 873.707 573.953C863.682 573.215 853.657 572.581 843.651 572.022C767.75 567.812 692.368 568.455 616.892 569.184L616.787 569.185C606.041 569.289 595.295 569.392 584.539 569.487C557.538 569.507 530.465 569.161 503.37 568.815H503.367H503.364H503.362H503.359H503.357H503.354H503.352H503.349H503.346H503.344H503.343H503.343H503.342H503.342H503.341H503.341H503.34H503.339C454.213 568.187 405.013 567.559 356.032 569.108C347.96 569.118 339.87 569.118 331.789 569.118H331.711H307.437C299.359 569.118 291.299 569.118 283.248 569.127C235.715 566.683 190.426 575.416 143.969 584.375C126.208 587.8 108.277 591.257 89.9846 594.136C72.9769 596.975 57.859 598.867 40.8514 595.082C29.4202 592.425 18.1212 589.502 6.88794 586.597L6.88647 586.596C-33.8765 576.053 -73.7754 565.733 -115.997 569.108H-418.582V607.781H-418.573ZM-270.493 674.59H-418.563H-418.582V636.002H-233.303C-226.613 636.002 -219.782 636.011 -212.865 636.058C-165.331 634.681 -119.205 643.265 -72.1241 652.026L-72.1194 652.027C-57.8754 654.678 -43.5439 657.345 -29.0596 659.757C21.281 668.25 68.4551 659.114 116.219 649.863C137.486 645.745 158.869 641.603 180.702 638.985C197.709 637.097 215.662 636.153 232.377 636.228L260.874 636.172L289.371 636.115L289.471 636.115C299.803 636.096 310.135 636.077 320.439 636.039C360.81 636.132 399.84 632.975 439.671 629.753L439.673 629.753C448.42 629.046 457.206 628.335 466.053 627.655C506.448 624.093 546.096 627.623 585.641 631.143C608.995 633.221 632.312 635.297 655.726 635.907C665.647 636.002 675.408 636.002 685.13 636.002H849.642C855.288 636.023 860.915 636.022 866.529 636.022H866.53H866.531H866.533H866.534H866.535H866.536H866.537H866.538C880.67 636.02 894.73 636.018 908.847 636.37C915.424 636.53 922.009 636.776 928.623 637.125C955.505 638.041 981.016 645.594 1005.58 655.98C1019.29 661.571 1033.08 670.887 1047.05 680.325C1080.27 702.763 1114.51 725.892 1151.09 701.301C1162.39 693.564 1171.8 683.294 1181.06 673.202C1198.91 653.739 1216.16 634.935 1245.07 636.228C1255.44 636.011 1263.52 636.011 1268.99 636.011H1277.3V674.6C1277.3 674.6 1274.12 674.6 1268.03 674.628C1230.7 671.076 1206.34 697.705 1182.75 723.478L1182.75 723.478L1182.75 723.479L1182.75 723.479L1182.75 723.48L1182.75 723.48L1182.75 723.48L1182.75 723.481L1182.75 723.481C1176.62 730.178 1170.55 736.818 1164.31 742.855C1150.14 755.129 1131.24 758.906 1115.18 750.408C1099.77 742.302 1084.89 732.572 1070 722.829L1070 722.828C1032.86 698.528 995.605 674.151 949.533 674.704C942.035 674.6 934.519 674.6 926.917 674.6H926.904H733.999H704.67C671.929 674.222 639.346 669.565 606.664 664.894C581.314 661.271 555.904 657.64 530.313 655.99C510.471 655.046 490.629 655.046 469.842 657.878C464.332 658.779 458.845 659.69 453.374 660.599L453.362 660.601C407.232 668.263 362.328 675.721 316.253 674.902L283.126 675.497C264.2 675.837 245.265 676.177 226.329 676.479C216.862 676.63 207.394 676.771 197.927 676.913C184.275 676.761 171.661 677.604 158.292 678.497L156.145 678.641C132.143 681.094 108.378 684.648 84.6902 688.191L84.6891 688.191L84.688 688.191L84.6869 688.191L84.6858 688.191L84.6847 688.192L84.6836 688.192L84.6825 688.192L84.6777 688.193C26.3066 696.923 -31.5963 705.583 -91.4115 697.524C-109.886 694.933 -128.028 691.453 -146.072 687.992C-180.63 681.363 -214.832 674.802 -250.339 674.685C-257.189 674.6 -263.926 674.59 -270.493 674.59ZM-418.584 741.526H-315.559C-279.008 739.351 -245.38 750.584 -211.557 761.881C-201.481 765.247 -191.387 768.618 -181.194 771.642C-152.849 780.112 -123.559 779.171 -94.2695 775.407C-67.4564 772.519 -40.9213 768.802 -14.437 765.091C28.1392 759.126 70.5837 753.179 113.84 750.731C123.175 750.157 132.444 749.62 141.722 749.093C197.363 745.931 252.976 742.872 308.589 740.359C319.71 739.851 330.831 739.371 341.951 738.91C381.318 740.067 417.835 731.445 455.34 722.589L455.341 722.589C472.133 718.624 489.123 714.612 506.655 711.411C558.017 702.002 606.059 712.802 654.298 723.646C683.262 730.157 712.297 736.685 742.165 738.863C751.797 739.704 761.221 740.35 770.612 740.995L770.62 740.995L770.627 740.996C772.377 741.116 774.127 741.236 775.876 741.357C783.756 741.395 791.58 741.432 799.45 741.526H966.204C973.574 741.526 980.849 741.526 988.134 741.724C1027.87 742.259 1057.12 765.83 1086.96 789.877C1098.56 799.227 1110.26 808.648 1122.69 816.816C1137.8 826.227 1154.81 827.168 1169.93 817.757C1186.11 808.324 1199.48 795.444 1212.88 782.545C1231.56 764.557 1250.28 746.531 1276.7 737.762C1280.48 735.88 1282.36 710.47 1275.75 705.764C1263.47 697.294 1242.68 705.764 1228.51 717.057C1220.23 723.82 1212.01 732.387 1203.62 741.116L1203.62 741.117C1174.68 771.257 1143.87 803.329 1102.85 769.76C1101.95 769.025 1101.06 768.29 1100.16 767.555L1100.15 767.541L1100.13 767.527C1063.24 737.187 1026.08 706.629 977.863 703.515C971.268 702.95 964.655 702.799 957.956 703.063H752.567C744.702 703.063 736.79 703.044 728.823 703.026H728.809H728.796H728.783H728.77H728.756L728.663 703.025C692.097 701.32 656.175 695.434 620.138 689.529L620.137 689.529L620.135 689.529C594.734 685.367 569.275 681.195 543.494 678.472L542.172 678.377C529.445 677.47 517.542 676.621 504.756 677.53C483.622 680.317 462.896 684.121 442.303 687.902L442.302 687.902L442.301 687.902L442.299 687.902L442.298 687.903L442.297 687.903L442.296 687.903L442.294 687.903L442.294 687.903C400.286 695.615 358.829 703.225 315.572 701.887C304.98 702.178 294.398 702.489 283.806 702.818C249.925 703.872 216.043 705.096 182.142 706.46C173.667 706.799 165.192 707.147 156.65 707.562C141.939 707.646 126.822 709.528 111.705 711.411C93.6332 713.796 75.7123 716.632 57.8611 719.456L57.8589 719.456L57.8567 719.457L57.8545 719.457L57.8523 719.457L57.8501 719.458L57.8479 719.458L57.8457 719.459C-1.76404 728.89 -60.5979 738.199 -121.67 730.233C-143.188 727.505 -164.059 722.518 -184.807 717.56C-214.162 710.545 -243.271 703.589 -273.618 703.176C-281.044 703.072 -288.301 703.063 -295.312 703.063H-418.584V741.526ZM-411.058 808.141C-413.326 807.489 -414.941 806.687 -416.075 805.705H-416.065C-418.954 803.213 -418.724 799.597 -418.399 794.507C-418.282 792.673 -418.153 790.648 -418.153 788.415V769.218H-364.392H-335.759C-306.705 767.719 -281.143 777.441 -255.334 787.257C-239.858 793.143 -224.293 799.063 -207.833 802.617C-164.53 811.975 -119.412 811.002 -75.769 804.515C-54.2863 801.325 -32.7229 796.818 -11.3665 792.354L-11.3602 792.352L-11.3584 792.352L-11.3566 792.352L-11.3547 792.351L-11.3529 792.351L-11.3511 792.35C5.97864 788.728 23.1719 785.134 40.0751 782.296C69.9315 777.284 99.9355 776.083 130.022 774.879C137.966 774.561 145.915 774.243 153.869 773.855C203.061 771.448 252.291 770.244 301.524 769.041H301.524H301.525H301.526H301.527H301.527H301.528C332.856 768.275 364.185 767.508 395.505 766.433C411.989 765.866 428.917 765.026 444.504 759.096C452.626 756.004 460.383 752.441 468.096 748.898C482.218 742.412 496.19 735.994 511.972 732.666C537.147 727.349 563.06 727.094 588.575 729.767C626.276 733.708 663.337 743.138 700.212 752.521L700.214 752.522C713.251 755.839 726.266 759.151 739.277 762.212C755.336 765.989 769.506 767.877 785.641 767.962C795.579 768.501 805.507 768.897 815.445 769.124C825.383 769.341 835.321 769.388 845.259 769.199C852.778 769.209 860.222 769.209 867.6 769.209H964.646H987.487C995.243 768.982 1002.89 769.294 1010.44 770.096C1040.9 775.469 1063.59 794.092 1086.86 813.196C1098.93 823.102 1111.16 833.137 1124.71 841.521C1161.88 864.746 1189.26 837.143 1216.35 809.832C1227.81 798.279 1239.22 786.778 1251.29 779.199C1259.8 774.478 1268.3 771.645 1277.74 769.756C1277.43 774.212 1278.18 779.203 1278.92 784.116C1280.38 793.782 1281.8 803.145 1274.91 807.527C1258.94 817.562 1245.17 828.919 1231.48 840.214C1216.83 852.302 1202.26 864.319 1185.17 874.57C1168.16 884.013 1148.33 887.79 1131.32 878.347C1116.38 870.229 1103.11 859.32 1089.96 848.51C1064.88 827.884 1040.24 807.621 1005.24 807.801H932.272C925.253 807.782 918.177 807.773 911.036 807.763C883.877 808.264 856.878 807.083 829.965 805.082C820.991 804.411 812.026 803.656 803.061 802.834C786.493 801.204 770.973 798.208 754.427 795.013L754.424 795.012C751.612 794.47 748.771 793.921 745.89 793.373C727.765 789.433 709.988 783.678 692.206 777.921L692.204 777.92C663.573 768.65 634.928 759.377 604.795 757.67C572.303 755.826 546.469 767.831 519.667 780.286C507.483 785.947 495.099 791.702 481.8 796.29C455.34 805.42 428.595 805.751 401.433 806.086H401.43C393.983 806.178 386.505 806.271 378.992 806.545C343.633 807.839 308.123 808.632 272.67 809.132C268.907 809.186 265.143 809.239 261.379 809.292L260.67 809.302C130.349 811.134 -0.512329 812.975 -127.763 844.316C-129.757 844.807 -131.754 845.304 -133.755 845.802C-157.916 851.817 -182.548 857.95 -207.125 854.627C-228.448 851.747 -247.773 842.035 -267.159 832.292C-282.986 824.339 -298.854 816.364 -315.884 812.069C-331.688 808.084 -348.021 807.442 -364.25 807.546C-368.824 807.577 -374 808.067 -379.362 808.574C-390.325 809.611 -402.07 810.722 -411.058 808.141ZM-418.584 874.667H-410.659C-405.454 874.667 -397.755 874.667 -387.997 874.847C-373.006 874.12 -358.837 876.954 -344.667 881.677C-332.412 886.054 -320.697 891.874 -309.05 897.66C-282.992 910.605 -257.272 923.382 -226.589 919.465C-201.332 916.24 -177.603 909.653 -153.664 903.007C-135.522 897.97 -117.26 892.9 -98.1193 889.234C-94.4049 888.704 -90.765 888.099 -87.1503 887.498C-77.895 885.959 -68.8044 884.447 -59.0494 884.284C-48.9325 883.274 -38.825 882.301 -28.708 881.384C31.9559 875.905 92.6012 872.495 153.907 874.658H302.403C329.047 874.318 355.496 874.497 381.871 874.675H381.879C413.477 874.889 444.968 875.101 476.564 874.422C486.228 874.214 495.901 873.921 505.573 873.505C536.605 874.552 562.136 859.554 587.864 844.439L587.865 844.439L587.866 844.438L587.867 844.438L587.868 844.437L587.869 844.436C600.444 837.049 613.066 829.633 626.401 824.051C638.681 818.383 652.85 818.383 666.075 820.272C692.666 825.258 717.794 832.62 742.7 839.917L742.701 839.917C774.42 849.21 805.776 858.396 839.329 862.434C848.407 863.511 857.306 864.342 866.195 865.154C872.831 865.757 879.475 866.411 886.124 867.066L886.144 867.068C911.36 869.55 936.636 872.038 961.8 871.777C994.135 871.446 1027.36 873.232 1057.53 885.938C1069.78 891.104 1081.21 897.938 1092.64 904.777L1092.64 904.778C1101.94 910.344 1111.25 915.913 1121.02 920.589C1179.2 948.438 1233.31 912.927 1276.31 874.12C1281.77 868.668 1280.23 860.885 1278.67 853.013C1277.8 848.61 1276.92 844.178 1277.26 840.111C1269.7 841.055 1263.09 844.834 1256.48 848.613C1246.74 854.627 1237.36 862.344 1227.91 870.122C1202.58 890.968 1176.71 912.258 1141.94 902.413C1124.64 897.51 1109.54 886.958 1095.24 876.047C1093.48 874.703 1091.72 873.349 1089.96 871.994L1089.95 871.99C1077.43 862.347 1064.84 852.654 1050.49 846.119C1025.01 834.518 999.271 835.384 972.906 836.271H972.905H972.904H972.903H972.901H972.9C964.658 836.548 956.356 836.828 947.981 836.729C911.131 836.294 873.723 833.715 836.921 830.371C827.333 829.502 817.688 828.501 807.769 827.14C798.264 826.391 789.503 824.243 780.547 822.047L780.546 822.046C775.271 820.753 769.928 819.443 764.326 818.392C746.673 814.498 729.163 808.678 711.757 802.891L711.756 802.891C665.824 787.622 620.612 772.593 575.4 793.831C570.17 796.264 564.955 798.759 559.738 801.256C524.446 818.145 489.091 835.065 448.386 832.818C437.466 833.366 426.565 833.866 415.664 834.32C353.587 836.892 291.767 837.956 229.962 839.02C148.296 840.426 66.6588 841.831 -15.5021 846.714C-25.808 847.328 -36.1422 847.999 -46.722 848.962C-75.6777 851.059 -102.392 858.864 -129.501 866.784C-146.983 871.892 -164.628 877.048 -183.145 880.751C-204.872 885.475 -225.653 886.419 -246.435 879.807C-259.328 874.825 -271.676 868.207 -283.987 861.609C-311.362 846.936 -338.555 832.362 -371.154 836.096C-386.372 836.077 -398.237 836.077 -406.295 836.077H-418.584V874.667ZM-413.056 943.839C-415.625 943.593 -417.306 942.656 -418.364 941.275L-418.373 941.303C-420.876 938.054 -419.953 932.334 -419.134 927.266C-418.822 925.335 -418.526 923.498 -418.44 921.929C-418.426 921.08 -418.413 920.179 -418.401 919.249L-418.4 919.16L-418.399 919.081C-418.31 912.47 -418.203 904.485 -417.382 903.662C-410.449 902.403 -403.659 901.873 -396.981 901.921C-372.497 903.109 -355.539 911.336 -334.928 921.335C-332.402 922.56 -329.822 923.812 -327.167 925.081C-293.459 941.189 -254.377 942.306 -217.383 937.195C-195.154 934.124 -173.308 928.945 -151.454 923.764C-136.937 920.322 -122.416 916.88 -107.778 914.054C-62.2366 905.262 -15.788 902.526 30.5094 901.836C136.67 900.263 242.923 900.768 349.151 901.272C401.495 901.521 453.832 901.769 506.149 901.769C514.592 901.769 523.017 901.769 531.3 901.684C556.13 901.438 578.372 896.299 598.696 882.073C618.955 867.895 640.923 854.711 665.753 850.982C693.57 846.799 721.328 854.913 748.534 862.867C752.042 863.892 755.54 864.914 759.028 865.908C810.425 880.55 863.504 889.172 916.866 891.812C924.488 892.19 932.176 892.479 939.897 892.77C981.319 894.328 1023.72 895.923 1062.35 911.423C1072.33 915.428 1081.94 920.374 1091.54 925.314C1106.03 932.771 1120.49 940.215 1136.18 944.388C1177.25 955.315 1211.19 938.565 1245.93 921.418L1245.93 921.418L1245.93 921.418L1245.93 921.417L1245.94 921.417C1256.45 916.226 1267.05 910.999 1277.93 906.492C1277.6 910.486 1278.32 914.832 1279.02 919.076C1280.32 926.899 1281.55 934.377 1276.04 938.672C1239.92 966.185 1192.92 977.931 1148.1 971.098C1126.81 967.852 1106.89 959.877 1086.99 951.908C1065.16 943.169 1043.35 934.437 1019.76 931.952C994.971 929.337 970.058 928.202 945.152 927.067H945.151C919.129 925.882 893.115 924.697 867.253 921.825C833.357 918.058 801.34 910.656 768.161 902.858C738.514 895.892 706.969 891.566 678.003 900.955C666.244 904.766 655.377 910.697 644.496 916.635L644.495 916.635C637.731 920.327 630.962 924.021 623.97 927.21C594.262 940.764 565.659 940.617 534.658 940.458C531.283 940.44 527.879 940.423 524.443 940.423H41.6256C30.1083 940.423 18.5625 940.16 7.0094 939.898C-18.4711 939.318 -43.9869 938.738 -69.3105 940.972C-100.051 943.685 -130.376 949.476 -160.674 955.262C-169.379 956.925 -178.082 958.587 -186.792 960.175C-248.012 971.344 -312.764 978.565 -371.169 957.052C-374.37 955.872 -377.554 954.604 -380.741 953.336C-391.275 949.145 -401.831 944.944 -413.056 943.839ZM-418.582 475.769H-26.8842C-19.0605 475.769 -11.1614 475.769 -3.19617 475.788C16.0017 475.807 35.2462 477.185 54.5139 478.564L54.5157 478.565C74.0338 479.962 93.5759 481.361 113.118 481.351C134.305 481.341 155.399 480.407 176.487 479.473L176.489 479.473H176.49H176.491H176.492C193.283 478.73 210.071 477.987 226.9 477.71C295.912 476.575 364.832 478.436 433.75 480.296H433.751H433.751H433.752C499.663 482.075 565.57 483.854 631.553 483.013C656.224 482.843 680.976 481.575 705.747 480.305L705.748 480.305C757.915 477.631 810.164 474.953 861.904 482.523C915.903 490.431 970.517 496.964 1025.16 493.649C1051.14 492.077 1076.87 488.289 1102.6 484.502L1102.6 484.502C1124.98 481.207 1147.36 477.913 1169.9 476.076C1194.17 474.098 1218.54 474.663 1242.89 475.227L1242.9 475.227C1254.37 475.493 1265.84 475.759 1277.3 475.759V436.492H1154.02H1132.24C1075.93 440.497 1019.2 440.808 962.55 441.117H962.544C937.39 441.255 912.253 441.392 887.179 441.853C878.25 441.882 869.312 441.853 860.373 441.786C833.548 441.565 806.676 440.845 779.747 439.403C769.731 438.827 759.734 438.51 749.756 438.404C739.779 438.298 729.81 438.404 719.861 438.683C691.807 439.452 663.751 440.386 635.693 441.32L635.691 441.32C546.68 444.284 457.648 447.248 368.594 444.947C339.054 444.184 309.614 442.826 280.187 441.469L280.185 441.469L280.183 441.469L280.181 441.469C237.744 439.512 195.333 437.556 152.689 437.386C60.4176 437.386 -31.8542 437.162 -124.126 436.939C-216.398 436.716 -308.67 436.492 -400.942 436.492H-418.582V475.759V475.769ZM-170.979 541.748H-418.582V503.264H-400.535C-360.896 503.264 -321.252 503.375 -281.608 503.486C-202.315 503.708 -123.018 503.931 -43.7428 503.264C-19.375 503.058 4.23755 506.52 27.8961 509.988C45.3174 512.542 62.7637 515.1 80.5548 516.199C109.504 517.987 138.22 514.315 166.894 510.648L166.898 510.647C176.481 509.422 186.059 508.197 195.64 507.177C231.281 503.387 266.808 503.255 302.59 503.255H302.631C311.008 503.255 319.404 503.255 327.856 503.274C359.896 505.027 391.927 506.243 423.959 507.045C434.636 507.318 445.313 507.535 455.99 507.724C519.901 507.714 584.152 507.714 648.309 507.922C662.398 507.807 676.47 507.603 690.532 507.399C751.341 506.518 811.952 505.64 872.838 511.957C905.531 515.341 938.082 520.149 970.358 526.362C978.44 527.917 986.623 530.008 994.87 532.115L994.87 532.116L994.871 532.116C1016.88 537.74 1039.34 543.48 1061.54 539.448C1074.26 537.137 1086.09 531.75 1097.91 526.369L1097.91 526.369L1097.91 526.369C1101.62 524.681 1105.32 522.995 1109.06 521.403C1140.16 508.138 1174.02 501.426 1207.83 501.605C1208.85 501.609 1213.18 501.808 1219.2 502.085C1239.03 502.997 1277.3 504.756 1277.3 503.245V541.777C1269.12 541.777 1260.91 541.541 1252.7 541.306C1212.73 540.159 1173.05 539.021 1139.09 565.195C1134.47 568.757 1130.03 572.698 1125.58 576.639C1113.82 587.07 1102.06 597.502 1086.98 600.917C1072.27 604.245 1056.89 600.134 1042.95 594.383C992.686 573.652 942.806 553.929 888.051 549.074C878.044 548.187 868.086 547.433 858.155 546.783C786.886 542.266 716.559 542.825 646.057 543.385H646.056H646.054C635.762 543.467 625.466 543.549 615.163 543.615C606.177 543.672 597.182 543.719 588.187 543.738C579.087 543.624 570.055 543.577 561.04 543.549C554.276 543.528 547.532 543.522 540.782 543.517H540.776C538.534 543.515 536.29 543.514 534.045 543.511C508.795 543.516 483.537 543.073 458.315 542.63H458.314H458.313H458.312H458.311C431.653 542.162 405.033 541.695 378.501 541.758H353.131H303.639L279.025 541.786C244.29 540.631 209.937 546.704 175.662 552.762C131.881 560.502 88.2266 568.219 44.064 560.821C30.7112 558.583 17.5017 555.222 4.28577 551.858L4.28467 551.858C-18.4196 546.08 -41.1426 540.298 -64.6433 540.202C-82.9607 540.129 -101.37 540.549 -119.804 540.969L-119.808 540.97L-119.811 540.97C-136.863 541.359 -153.936 541.748 -170.979 541.748Z" fill="url(#paint0_linear_5107_2451)"/>
</mask>
<g mask="url(#mask1_5107_2451)">
<g filter="url(#filter0_f_5107_2451)">
<path d="M-147.091 181.449C-79.6179 189.377 -11.4572 200.499 54.7469 223.266C130.937 249.468 195.817 292.253 250.765 355.13C278.834 387.25 279.164 421.291 293.833 457.802C298.453 469.301 305.791 481.784 314.59 490.908C335.618 512.713 375.288 515.538 401.265 519.642C476.113 531.468 552.295 534.956 624.012 570.35C674.128 595.083 706.866 635.926 723.949 688.156C730.637 708.607 728.137 730.846 736.588 750.377C743.717 766.853 758.759 775.544 774.343 782.264C804.634 795.327 836.431 804.206 867.513 813.632" stroke="url(#paint1_linear_5107_2451)" stroke-width="333" stroke-linecap="round"/>
</g>
</g>
</g>
<defs>
<filter id="filter0_f_5107_2451" x="-533.607" y="-205.07" width="1787.66" height="1405.24" filterUnits="userSpaceOnUse" color-interpolation-filters="sRGB">
<feFlood flood-opacity="0" result="BackgroundImageFix"/>
<feBlend mode="normal" in="SourceGraphic" in2="BackgroundImageFix" result="shape"/>
<feGaussianBlur stdDeviation="110" result="effect1_foregroundBlur_5107_2451"/>
</filter>
<linearGradient id="paint0_linear_5107_2451" x1="1173.25" y1="973" x2="-420" y2="973" gradientUnits="userSpaceOnUse">
<stop stop-color="#CCCCCC"/>
<stop offset="0.171875" stop-color="#BDBDBD"/>
<stop offset="1" stop-color="#AFAFAF"/>
</linearGradient>
<linearGradient id="paint1_linear_5107_2451" x1="-98.7773" y1="235.114" x2="544.495" y2="667.341" gradientUnits="userSpaceOnUse">
<stop stop-color="#D0CCC8" stop-opacity="0.96"/>
<stop offset="1" stop-color="#FAFAFA" stop-opacity="0.17"/>
</linearGradient>
</defs>
</svg>
