<svg width="672" height="600" viewBox="0 0 672 600" fill="none" xmlns="http://www.w3.org/2000/svg">
<mask id="mask0_3986_4776" style="mask-type:alpha" maskUnits="userSpaceOnUse" x="0" y="0" width="672" height="600">
<rect width="672" height="600" fill="#D9D9D9"/>
</mask>
<g mask="url(#mask0_3986_4776)">
<path fill-rule="evenodd" clip-rule="evenodd" d="M489.409 359.604L489.408 359.598C489.342 358.848 487.977 343.311 480.594 327.573C470.35 305.743 453.624 294.199 432.219 294.199H429.526C431.663 293.34 433.583 292.431 435.251 291.478C443.517 286.735 450.296 271.308 454.844 249.333C455.313 249.167 455.775 249.001 456.223 248.827C474.934 241.608 485.741 209.072 489.272 149.363C491.769 107.001 489.452 65.9536 489.423 65.5421V65.4049L489.417 65.3461C489.3 64.1107 487.85 48.8393 480.594 33.3738C470.35 11.5433 453.624 0 432.219 0H240.206C218.801 0 202.075 11.5433 191.831 33.3738C184.424 49.162 183.067 64.748 183.016 65.4049V65.5421C182.98 65.9536 180.656 107.001 183.161 149.363C186.684 209.072 197.498 241.608 216.21 248.827C216.628 248.986 217.061 249.145 217.502 249.304C222.021 270.023 229.247 286.887 237.253 291.478C238.921 292.431 240.841 293.34 242.978 294.199H240.206C218.801 294.199 202.075 305.743 191.831 327.573C184.424 343.361 183.067 358.947 183.016 359.604V359.742C182.98 360.153 180.656 401.201 183.161 443.562C186.684 503.271 197.498 535.808 216.21 543.027C216.661 543.199 217.133 543.371 217.606 543.543L217.617 543.547C222.158 563.919 229.363 581.158 237.253 585.677C253.908 595.228 295.078 600 336.249 600C377.419 600 418.589 595.228 435.244 585.677C443.892 580.718 450.029 567.42 454.577 543.814L454.23 543.749C454.916 543.511 455.58 543.272 456.215 543.027C474.927 535.808 485.734 503.271 489.264 443.562C491.762 401.201 489.445 360.153 489.416 359.742V359.604H489.409ZM470.004 332.222C471.419 335.211 472.588 338.214 473.556 341.087C463.507 346.422 448.859 350.942 430.927 354.428C430.335 348.523 428.992 338.546 426.119 328.447C423.932 320.744 420.604 312.319 415.615 305.75H432.205C448.96 305.75 461.673 314.658 469.997 332.222H470.004ZM420.459 498.983C411.998 498.983 405.119 492.104 405.119 483.643C405.119 475.182 411.998 468.302 420.459 468.302C428.92 468.302 435.8 475.182 435.8 483.643C435.8 492.104 428.92 498.983 420.459 498.983ZM419.73 443.079C419.557 447.822 419.355 452.384 419.124 456.788C404.916 457.488 393.568 469.262 393.568 483.643C393.568 496.067 402.043 506.549 413.507 509.617C409.862 528.033 405.848 531.982 404.599 532.776C394.969 538.905 367.486 543.02 336.205 543.02C304.925 543.02 277.442 538.905 267.812 532.776C266.426 531.888 261.582 527.109 257.662 502.672C255.236 487.563 253.561 467.515 252.688 443.079C251.59 412.513 252.038 382.626 252.363 368.592C277.673 372.303 306.968 373.963 336.826 373.963C366.684 373.963 394.817 371.992 420.04 368.058C420.365 381.861 420.842 412.123 419.73 443.086V443.079ZM278.012 305.757H328.842C331.303 305.793 333.772 305.808 336.241 305.808C338.71 305.808 341.179 305.786 343.641 305.757H394.413C411.392 305.757 418.019 339.896 419.542 356.435C395.683 360.225 367.182 362.34 336.559 362.34H335.722C305.235 362.304 276.799 360.16 252.89 356.356C254.427 339.788 261.062 305.757 278.012 305.757ZM477.721 148.778C476.284 173.056 473.541 192.952 469.578 207.917C465.066 224.947 459.002 235.371 452.05 238.049C444.513 240.959 431.324 243.406 414.309 245.232C419.499 239.291 423.318 227.979 426.155 210.27C428.653 194.684 430.378 174.146 431.266 149.233C432.436 116.675 431.865 84.8965 431.533 71.866C449.509 68.4514 465.051 63.9178 476.602 58.2797C477.519 62.7555 477.836 65.8381 477.88 66.3073C477.995 68.4297 480.132 108.019 477.714 148.785L477.721 148.778ZM336.205 248.813C304.925 248.813 277.442 244.698 267.812 238.569C266.426 237.681 261.582 232.902 257.662 208.466C257.214 205.672 256.788 202.705 256.391 199.572C257.373 199.651 258.362 199.702 259.365 199.702C280.12 199.702 297.013 182.816 297.013 162.054C297.013 141.292 280.127 124.407 259.365 124.407C256.882 124.407 254.456 124.652 252.11 125.114C251.814 103.442 252.132 84.3623 252.37 74.0967C277.839 77.9373 307.192 79.7493 336.826 79.7493C366.46 79.7493 394.817 77.7785 420.04 73.8441C420.365 87.6469 420.842 117.909 419.73 148.872C418.857 173.309 417.182 193.356 414.756 208.466C410.836 232.902 405.992 237.681 404.606 238.569C394.976 244.698 367.493 248.813 336.212 248.813H336.205ZM259.365 135.957C273.753 135.957 285.462 147.666 285.462 162.054C285.462 176.442 273.753 188.151 259.365 188.151C244.978 188.151 233.268 176.442 233.268 162.054C233.268 147.666 244.978 135.957 259.365 135.957ZM470.004 38.0157C471.419 41.0044 472.588 44.0076 473.556 46.8808C463.507 52.2157 448.859 56.7348 430.927 60.2216C430.335 54.3164 428.992 44.3396 426.119 34.2401C423.932 26.5374 420.604 18.1127 415.615 11.5433H432.205C448.96 11.5433 461.673 20.4517 469.997 38.0157H470.004ZM394.413 11.5433C411.392 11.5433 418.019 45.6824 419.542 62.2213C395.683 66.0113 367.182 68.1265 336.559 68.1265H335.722C305.235 68.0904 276.799 65.9464 252.89 62.1419C254.427 45.5741 261.062 11.5433 278.012 11.5433H394.413ZM240.199 11.5433H256.788C251.807 18.1127 248.479 26.5374 246.284 34.2401C243.426 44.2891 242.083 54.2226 241.491 60.135C223.739 56.6915 209.099 52.2445 198.812 47.0179C199.786 44.0942 200.97 41.0477 202.407 38.0085C210.73 20.4445 223.45 11.5361 240.199 11.5361V11.5433ZM202.825 207.91C198.862 192.945 196.119 173.049 194.682 148.771C192.271 108.005 194.401 68.4153 194.516 66.2929C194.56 65.8381 194.856 62.9216 195.715 58.6623C207.294 64.3654 222.844 68.834 240.856 72.1692C240.596 82.6513 240.199 104.655 240.617 129.424C229.334 135.935 221.711 148.114 221.711 162.054C221.711 177.496 231.059 190.793 244.393 196.59C244.949 201.499 245.57 206.076 246.241 210.27C249.085 227.979 252.897 239.291 258.087 245.232C241.072 243.406 227.883 240.959 220.346 238.049C213.394 235.364 207.33 224.947 202.818 207.917L202.825 207.91ZM230.359 252.762C256.781 258.285 300.196 260.356 336.198 260.356C372.243 260.356 415.702 258.285 442.124 252.747C437.258 274.787 431.743 280.158 429.49 281.451C414.763 289.897 375.932 294.142 336.956 294.192H335.527C296.551 294.142 257.719 289.897 242.992 281.451C236.712 277.848 232.323 261.584 230.359 252.762ZM240.199 305.743H256.788C251.807 312.312 248.479 320.737 246.284 328.44C243.426 338.489 242.083 348.422 241.491 354.334C223.739 350.891 209.099 346.444 198.812 341.217C199.786 338.294 200.97 335.247 202.407 332.208C210.73 314.644 223.45 305.736 240.199 305.736V305.743ZM202.825 502.109C198.862 487.144 196.119 467.248 194.682 442.97C192.271 402.204 194.401 362.615 194.516 360.492C194.56 360.045 194.848 357.2 195.678 353.028C207.15 358.904 222.7 363.402 240.841 366.701C240.509 380.114 239.982 411.394 241.13 443.432C242.025 468.353 243.743 488.891 246.241 504.47C249.085 522.178 252.897 533.491 258.087 539.432C241.072 537.605 227.883 535.158 220.346 532.249C213.394 529.563 207.33 519.146 202.818 502.116L202.825 502.109ZM429.49 575.657C399.856 592.651 272.62 592.651 242.985 575.657C236.705 572.055 232.315 555.79 230.352 546.969C256.774 552.491 300.189 554.563 336.191 554.563C372.236 554.563 415.695 552.491 442.116 546.954C437.251 568.994 431.735 574.365 429.483 575.657H429.49ZM477.714 442.97C476.277 467.248 473.534 487.144 469.571 502.109C465.059 519.139 458.995 529.563 452.043 532.242C444.506 535.151 431.317 537.598 414.301 539.425C418.922 534.14 422.452 524.604 425.173 510.094C437.756 507.856 447.336 496.839 447.336 483.628C447.336 472.388 440.398 462.736 430.58 458.73C430.847 453.828 431.078 448.731 431.266 443.425C432.436 410.867 431.865 379.089 431.533 366.051C449.509 362.636 465.051 358.103 476.602 352.465C477.519 356.941 477.836 360.023 477.88 360.492C477.995 362.615 480.132 402.204 477.714 442.97ZM297.013 398.508H285.462V461.35H297.013V398.508ZM323.016 398.508H334.567V501.279H323.016V398.508ZM388.291 104.309H376.74V167.151H388.291V104.309ZM340.212 135.727H351.762V198.569H340.212V135.727Z" fill="url(#paint0_linear_3986_4776)" fill-opacity="0.5"/>
</g>
<defs>
<linearGradient id="paint0_linear_3986_4776" x1="336.215" y1="0" x2="336.215" y2="600" gradientUnits="userSpaceOnUse">
<stop stop-color="#C0C0C0" stop-opacity="0"/>
<stop offset="0.505208" stop-color="#C0C0C0"/>
<stop offset="1" stop-color="#C0C0C0" stop-opacity="0"/>
</linearGradient>
</defs>
</svg>
