<svg width="740" height="518" viewBox="0 0 740 518" fill="none" xmlns="http://www.w3.org/2000/svg">
<path d="M371.667 38.0001C336.975 38.0001 302.694 45.5214 271.189 60.0457C239.683 74.5701 211.701 95.7522 189.17 122.133C166.639 148.513 150.095 179.464 140.678 212.854C131.261 246.244 129.195 281.279 134.622 315.544C140.049 349.81 152.84 382.491 172.114 411.337C191.388 440.183 216.687 464.507 246.267 482.634C275.848 500.76 309.006 512.259 343.458 516.336C377.91 520.414 412.837 516.974 445.831 506.254L371.667 278L371.667 38.0001Z" fill="#6D6D6D"/>
<path d="M305.189 482.604C348.396 496.642 394.937 496.642 438.144 482.604L371.667 278.007L305.189 482.604Z" fill="#C5C5C5"/>
<path d="M156.54 278.007C156.54 323.437 170.923 367.701 197.626 404.455C224.329 441.208 261.982 468.565 305.189 482.604L371.667 278.007L156.54 278.007Z" fill="#999999"/>
<path d="M371.667 62.8805C343.416 62.8805 315.442 68.4449 289.341 79.256C263.241 90.0671 239.526 105.913 219.549 125.89C199.573 145.866 183.727 169.581 172.916 195.681C162.105 221.782 156.54 249.756 156.54 278.007L371.667 278.007L371.667 62.8805Z" fill="#7C7C7C"/>
<path d="M586.793 278.007C586.793 220.952 564.128 166.234 523.784 125.89C483.44 85.5456 428.722 62.8805 371.667 62.8805L371.667 278.007L586.793 278.007Z" fill="#81A68A"/>
<path d="M430.666 459.581C469.012 447.122 502.429 422.843 526.128 390.224C549.828 357.605 562.592 318.321 562.592 278.001L371.667 278.001L430.666 459.581Z" fill="#D96704"/>
<path d="M605.355 391V388.312C605.355 386.755 605.611 385.464 606.123 384.44C606.635 383.395 607.371 382.541 608.331 381.88C609.312 381.197 610.507 380.643 611.915 380.216L614.059 379.544C614.848 379.288 615.509 378.979 616.043 378.616C616.576 378.232 616.981 377.773 617.259 377.24C617.557 376.707 617.707 376.099 617.707 375.416V375.288C617.707 374.221 617.344 373.379 616.619 372.76C615.893 372.12 614.901 371.8 613.643 371.8C612.405 371.8 611.403 372.141 610.635 372.824C609.888 373.485 609.515 374.445 609.515 375.704V376.28H605.419V375.768C605.419 374.147 605.781 372.771 606.507 371.64C607.232 370.509 608.213 369.645 609.451 369.048C610.709 368.451 612.107 368.152 613.643 368.152C615.179 368.152 616.565 368.451 617.803 369.048C619.04 369.624 620.011 370.445 620.715 371.512C621.44 372.557 621.803 373.795 621.803 375.224V375.544C621.803 376.973 621.504 378.189 620.907 379.192C620.331 380.173 619.541 380.984 618.539 381.624C617.536 382.243 616.395 382.755 615.115 383.16L613.067 383.8C612.149 384.077 611.435 384.387 610.923 384.728C610.411 385.048 610.048 385.411 609.835 385.816C609.643 386.2 609.547 386.669 609.547 387.224V387.352H621.611V391H605.355ZM633.379 391.448C630.733 391.448 628.611 390.723 627.011 389.272C625.411 387.8 624.611 385.581 624.611 382.616V376.984C624.611 374.104 625.411 371.917 627.011 370.424C628.611 368.909 630.733 368.152 633.379 368.152C636.045 368.152 638.168 368.909 639.747 370.424C641.347 371.917 642.147 374.104 642.147 376.984V382.616C642.147 385.581 641.347 387.8 639.747 389.272C638.168 390.723 636.045 391.448 633.379 391.448ZM633.379 387.8C634.979 387.8 636.152 387.363 636.899 386.488C637.667 385.613 638.051 384.365 638.051 382.744V376.792C638.051 375.149 637.624 373.912 636.771 373.08C635.939 372.227 634.808 371.8 633.379 371.8C631.907 371.8 630.755 372.237 629.923 373.112C629.112 373.987 628.707 375.213 628.707 376.792V382.744C628.707 384.429 629.091 385.699 629.859 386.552C630.648 387.384 631.821 387.8 633.379 387.8ZM648.497 391.416L646.065 389.464L663.281 368.184L665.713 370.136L648.497 391.416ZM662.001 391.32C660.379 391.32 659.11 390.893 658.193 390.04C657.275 389.165 656.817 387.981 656.817 386.488V386.264C656.817 384.749 657.275 383.565 658.193 382.712C659.11 381.837 660.379 381.4 662.001 381.4C663.579 381.4 664.838 381.837 665.777 382.712C666.715 383.565 667.185 384.749 667.185 386.264V386.488C667.185 387.981 666.726 389.165 665.809 390.04C664.891 390.893 663.622 391.32 662.001 391.32ZM662.001 388.696C662.619 388.696 663.099 388.504 663.441 388.12C663.803 387.736 663.985 387.235 663.985 386.616V386.104C663.985 385.485 663.803 384.984 663.441 384.6C663.099 384.216 662.619 384.024 662.001 384.024C661.382 384.024 660.891 384.216 660.529 384.6C660.187 384.984 660.017 385.485 660.017 386.104V386.616C660.017 387.235 660.187 387.736 660.529 388.12C660.891 388.504 661.382 388.696 662.001 388.696ZM649.777 378.2C648.155 378.2 646.886 377.773 645.969 376.92C645.051 376.045 644.593 374.861 644.593 373.368V373.144C644.593 371.629 645.051 370.445 645.969 369.592C646.886 368.717 648.155 368.28 649.777 368.28C651.355 368.28 652.614 368.717 653.553 369.592C654.491 370.445 654.961 371.629 654.961 373.144V373.368C654.961 374.861 654.502 376.045 653.585 376.92C652.667 377.773 651.398 378.2 649.777 378.2ZM649.777 375.576C650.395 375.576 650.875 375.384 651.217 375C651.579 374.616 651.761 374.115 651.761 373.496V372.984C651.761 372.365 651.579 371.864 651.217 371.48C650.875 371.096 650.395 370.904 649.777 370.904C649.158 370.904 648.667 371.096 648.305 371.48C647.963 371.864 647.793 372.365 647.793 372.984V373.496C647.793 374.115 647.963 374.616 648.305 375C648.667 375.384 649.158 375.576 649.777 375.576Z" fill="#0D0D0D"/>
<path d="M607.851 420V410.368H604.411V408.8H613.019V410.368H609.579V420H607.851ZM614.585 420V408.8H621.641V410.368H616.313V413.584H621.193V415.152H616.313V418.432H621.721V420H614.585ZM622.69 420L625.89 408.8H628.93L632.114 420H630.338L629.602 417.36H625.218L624.482 420H622.69ZM625.65 415.76H629.17L627.538 409.872H627.282L625.65 415.76ZM633.632 420V408.8H636.88L639.328 418.848H639.584L642.032 408.8H645.28V420H643.6V410.016H643.344L640.912 420H638L635.568 410.016H635.312V420H633.632ZM654.398 420C653.758 420 653.188 419.883 652.686 419.648C652.196 419.413 651.806 419.072 651.518 418.624C651.241 418.176 651.102 417.637 651.102 417.008C651.102 416.539 651.188 416.133 651.358 415.792C651.529 415.451 651.758 415.168 652.046 414.944C652.345 414.709 652.665 414.539 653.006 414.432V414.224C652.494 414.064 652.062 413.787 651.71 413.392C651.358 412.997 651.182 412.464 651.182 411.792C651.182 411.141 651.326 410.597 651.614 410.16C651.913 409.712 652.308 409.376 652.798 409.152C653.289 408.917 653.844 408.8 654.462 408.8H656.35V410.192H654.734C654.201 410.192 653.753 410.336 653.39 410.624C653.028 410.901 652.846 411.333 652.846 411.92C652.846 412.325 652.932 412.656 653.102 412.912C653.284 413.157 653.513 413.344 653.79 413.472C654.078 413.589 654.393 413.648 654.734 413.648H656.606V412.064H658.254V413.648H659.774V415.04H658.254V420H654.398ZM654.67 418.608H656.606V415.04H654.67C654.137 415.04 653.684 415.189 653.31 415.488C652.937 415.776 652.75 416.224 652.75 416.832C652.75 417.44 652.942 417.888 653.326 418.176C653.71 418.464 654.158 418.608 654.67 418.608ZM664.3 420L667.5 408.8H670.54L673.724 420H671.948L671.212 417.36H666.828L666.092 420H664.3ZM667.26 415.76H670.78L669.148 409.872H668.892L667.26 415.76ZM674.825 420V418.464H676.329V410.336H674.825V408.8H679.305C680.799 408.8 681.94 409.179 682.729 409.936C683.529 410.693 683.929 411.835 683.929 413.36V415.456C683.929 416.981 683.529 418.123 682.729 418.88C681.94 419.627 680.799 420 679.305 420H674.825ZM678.073 418.432H679.321C680.292 418.432 681.012 418.187 681.481 417.696C681.951 417.205 682.185 416.475 682.185 415.504V413.296C682.185 412.315 681.951 411.584 681.481 411.104C681.012 410.624 680.292 410.384 679.321 410.384H678.073V418.432ZM687.935 420L684.815 408.8H686.607L689.327 418.912H689.535L692.239 408.8H694.031L690.927 420H687.935ZM695.554 420V408.8H697.282V420H695.554ZM703.424 420.224C702.582 420.224 701.835 420.075 701.184 419.776C700.534 419.477 700.022 419.04 699.648 418.464C699.286 417.877 699.104 417.168 699.104 416.336V415.936H700.816V416.336C700.816 417.125 701.051 417.717 701.52 418.112C702 418.507 702.635 418.704 703.424 418.704C704.224 418.704 704.827 418.539 705.232 418.208C705.638 417.867 705.84 417.429 705.84 416.896C705.84 416.544 705.744 416.256 705.552 416.032C705.36 415.808 705.088 415.632 704.736 415.504C704.384 415.365 703.963 415.237 703.472 415.12L702.88 414.976C702.166 414.805 701.542 414.597 701.008 414.352C700.486 414.096 700.08 413.76 699.792 413.344C699.504 412.928 699.36 412.395 699.36 411.744C699.36 411.083 699.52 410.517 699.84 410.048C700.171 409.579 700.624 409.216 701.2 408.96C701.776 408.704 702.454 408.576 703.232 408.576C704.011 408.576 704.704 408.709 705.312 408.976C705.931 409.243 706.416 409.637 706.768 410.16C707.12 410.683 707.296 411.339 707.296 412.128V412.704H705.584V412.128C705.584 411.648 705.483 411.259 705.28 410.96C705.088 410.661 704.816 410.443 704.464 410.304C704.112 410.165 703.702 410.096 703.232 410.096C702.55 410.096 702.016 410.24 701.632 410.528C701.259 410.805 701.072 411.195 701.072 411.696C701.072 412.037 701.152 412.32 701.312 412.544C701.483 412.757 701.728 412.933 702.048 413.072C702.368 413.211 702.768 413.333 703.248 413.44L703.84 413.584C704.566 413.744 705.206 413.952 705.76 414.208C706.315 414.453 706.752 414.789 707.072 415.216C707.392 415.643 707.552 416.192 707.552 416.864C707.552 417.536 707.382 418.123 707.04 418.624C706.71 419.125 706.235 419.52 705.616 419.808C704.998 420.085 704.267 420.224 703.424 420.224ZM713.574 420.224C712.198 420.224 711.105 419.84 710.294 419.072C709.484 418.293 709.078 417.173 709.078 415.712V413.088C709.078 411.627 709.484 410.512 710.294 409.744C711.105 408.965 712.198 408.576 713.574 408.576C714.95 408.576 716.044 408.965 716.854 409.744C717.676 410.512 718.086 411.627 718.086 413.088V415.712C718.086 417.173 717.676 418.293 716.854 419.072C716.044 419.84 714.95 420.224 713.574 420.224ZM713.574 418.672C714.46 418.672 715.142 418.416 715.622 417.904C716.102 417.381 716.342 416.672 716.342 415.776V413.024C716.342 412.128 716.102 411.424 715.622 410.912C715.142 410.389 714.46 410.128 713.574 410.128C712.71 410.128 712.033 410.389 711.542 410.912C711.052 411.424 710.806 412.128 710.806 413.024V415.776C710.806 416.672 711.052 417.381 711.542 417.904C712.033 418.416 712.71 418.672 713.574 418.672ZM720.132 420V408.8H724.836C725.529 408.8 726.137 408.923 726.66 409.168C727.193 409.403 727.604 409.744 727.892 410.192C728.191 410.64 728.34 411.173 728.34 411.792V411.968C728.34 412.672 728.169 413.237 727.828 413.664C727.497 414.08 727.092 414.373 726.612 414.544V414.8C727.017 414.821 727.343 414.96 727.588 415.216C727.833 415.461 727.956 415.819 727.956 416.288V420H726.212V416.528C726.212 416.24 726.137 416.011 725.988 415.84C725.839 415.669 725.599 415.584 725.268 415.584H721.86V420H720.132ZM721.86 414.016H724.644C725.263 414.016 725.743 413.861 726.084 413.552C726.425 413.232 726.596 412.8 726.596 412.256V412.128C726.596 411.584 726.425 411.157 726.084 410.848C725.753 410.528 725.273 410.368 724.644 410.368H721.86V414.016ZM734.049 420.224C733.207 420.224 732.46 420.075 731.809 419.776C731.159 419.477 730.647 419.04 730.273 418.464C729.911 417.877 729.729 417.168 729.729 416.336V415.936H731.441V416.336C731.441 417.125 731.676 417.717 732.145 418.112C732.625 418.507 733.26 418.704 734.049 418.704C734.849 418.704 735.452 418.539 735.857 418.208C736.263 417.867 736.465 417.429 736.465 416.896C736.465 416.544 736.369 416.256 736.177 416.032C735.985 415.808 735.713 415.632 735.361 415.504C735.009 415.365 734.588 415.237 734.097 415.12L733.505 414.976C732.791 414.805 732.167 414.597 731.633 414.352C731.111 414.096 730.705 413.76 730.417 413.344C730.129 412.928 729.985 412.395 729.985 411.744C729.985 411.083 730.145 410.517 730.465 410.048C730.796 409.579 731.249 409.216 731.825 408.96C732.401 408.704 733.079 408.576 733.857 408.576C734.636 408.576 735.329 408.709 735.937 408.976C736.556 409.243 737.041 409.637 737.393 410.16C737.745 410.683 737.921 411.339 737.921 412.128V412.704H736.209V412.128C736.209 411.648 736.108 411.259 735.905 410.96C735.713 410.661 735.441 410.443 735.089 410.304C734.737 410.165 734.327 410.096 733.857 410.096C733.175 410.096 732.641 410.24 732.257 410.528C731.884 410.805 731.697 411.195 731.697 411.696C731.697 412.037 731.777 412.32 731.937 412.544C732.108 412.757 732.353 412.933 732.673 413.072C732.993 413.211 733.393 413.333 733.873 413.44L734.465 413.584C735.191 413.744 735.831 413.952 736.385 414.208C736.94 414.453 737.377 414.789 737.697 415.216C738.017 415.643 738.177 416.192 738.177 416.864C738.177 417.536 738.007 418.123 737.665 418.624C737.335 419.125 736.86 419.52 736.241 419.808C735.623 420.085 734.892 420.224 734.049 420.224Z" fill="#6D6D6D"/>
<path d="M481.011 354L605.169 440H736.839" stroke="#AFAFAF"/>
<path d="M591.355 29V26.312C591.355 24.7547 591.611 23.464 592.123 22.44C592.635 21.3947 593.371 20.5413 594.331 19.88C595.312 19.1973 596.507 18.6427 597.915 18.216L600.059 17.544C600.848 17.288 601.509 16.9787 602.043 16.616C602.576 16.232 602.981 15.7733 603.259 15.24C603.557 14.7067 603.707 14.0987 603.707 13.416V13.288C603.707 12.2213 603.344 11.3787 602.619 10.76C601.893 10.12 600.901 9.8 599.643 9.8C598.405 9.8 597.403 10.1413 596.635 10.824C595.888 11.4853 595.515 12.4453 595.515 13.704V14.28H591.419V13.768C591.419 12.1467 591.781 10.7707 592.507 9.64C593.232 8.50933 594.213 7.64533 595.451 7.048C596.709 6.45067 598.107 6.152 599.643 6.152C601.179 6.152 602.565 6.45067 603.803 7.048C605.04 7.624 606.011 8.44533 606.715 9.512C607.44 10.5573 607.803 11.7947 607.803 13.224V13.544C607.803 14.9733 607.504 16.1893 606.907 17.192C606.331 18.1733 605.541 18.984 604.539 19.624C603.536 20.2427 602.395 20.7547 601.115 21.16L599.067 21.8C598.149 22.0773 597.435 22.3867 596.923 22.728C596.411 23.048 596.048 23.4107 595.835 23.816C595.643 24.2 595.547 24.6693 595.547 25.224V25.352H607.611V29H591.355ZM618.707 29.448C616.957 29.448 615.443 29.1387 614.163 28.52C612.904 27.9013 611.933 27.0267 611.251 25.896C610.568 24.7653 610.227 23.4533 610.227 21.96V21.64H614.387V21.928C614.387 22.9947 614.739 23.912 615.443 24.68C616.168 25.4267 617.235 25.8 618.643 25.8C620.051 25.8 621.128 25.4267 621.875 24.68C622.643 23.912 623.027 22.92 623.027 21.704V21.384C623.027 20.1893 622.643 19.24 621.875 18.536C621.128 17.832 620.189 17.48 619.059 17.48C618.44 17.48 617.928 17.5653 617.523 17.736C617.117 17.9067 616.787 18.12 616.531 18.376C616.275 18.632 616.061 18.888 615.891 19.144H610.931V6.6H626.227V10.312H615.027V15.784H615.603C615.816 15.5067 616.104 15.24 616.467 14.984C616.829 14.728 617.299 14.5147 617.875 14.344C618.451 14.1733 619.133 14.088 619.923 14.088C621.245 14.088 622.451 14.3653 623.539 14.92C624.627 15.4747 625.491 16.296 626.131 17.384C626.792 18.4507 627.123 19.7733 627.123 21.352V21.736C627.123 23.3147 626.781 24.68 626.099 25.832C625.437 26.984 624.477 27.88 623.219 28.52C621.96 29.1387 620.456 29.448 618.707 29.448ZM632.934 29.416L630.502 27.464L647.718 6.184L650.15 8.136L632.934 29.416ZM646.438 29.32C644.817 29.32 643.548 28.8933 642.63 28.04C641.713 27.1653 641.254 25.9813 641.254 24.488V24.264C641.254 22.7493 641.713 21.5653 642.63 20.712C643.548 19.8373 644.817 19.4 646.438 19.4C648.017 19.4 649.276 19.8373 650.214 20.712C651.153 21.5653 651.622 22.7493 651.622 24.264V24.488C651.622 25.9813 651.164 27.1653 650.246 28.04C649.329 28.8933 648.06 29.32 646.438 29.32ZM646.438 26.696C647.057 26.696 647.537 26.504 647.878 26.12C648.241 25.736 648.422 25.2347 648.422 24.616V24.104C648.422 23.4853 648.241 22.984 647.878 22.6C647.537 22.216 647.057 22.024 646.438 22.024C645.82 22.024 645.329 22.216 644.966 22.6C644.625 22.984 644.454 23.4853 644.454 24.104V24.616C644.454 25.2347 644.625 25.736 644.966 26.12C645.329 26.504 645.82 26.696 646.438 26.696ZM634.214 16.2C632.593 16.2 631.324 15.7733 630.406 14.92C629.489 14.0453 629.03 12.8613 629.03 11.368V11.144C629.03 9.62933 629.489 8.44533 630.406 7.592C631.324 6.71733 632.593 6.28 634.214 6.28C635.793 6.28 637.052 6.71733 637.99 7.592C638.929 8.44533 639.398 9.62933 639.398 11.144V11.368C639.398 12.8613 638.94 14.0453 638.022 14.92C637.105 15.7733 635.836 16.2 634.214 16.2ZM634.214 13.576C634.833 13.576 635.313 13.384 635.654 13C636.017 12.616 636.198 12.1147 636.198 11.496V10.984C636.198 10.3653 636.017 9.864 635.654 9.48C635.313 9.096 634.833 8.904 634.214 8.904C633.596 8.904 633.105 9.096 632.742 9.48C632.401 9.864 632.23 10.3653 632.23 10.984V11.496C632.23 12.1147 632.401 12.616 632.742 13C633.105 13.384 633.596 13.576 634.214 13.576Z" fill="#0D0D0D"/>
<path d="M591.179 58V46.8H592.907V58H591.179ZM595.241 58V46.8H598.569L601.609 56.848H601.865V46.8H603.577V58H600.249L597.209 47.936H596.953V58H595.241ZM608.201 58L605.081 46.8H606.873L609.593 56.912H609.801L612.505 46.8H614.297L611.193 58H608.201ZM615.819 58V46.8H622.875V48.368H617.547V51.584H622.427V53.152H617.547V56.432H622.955V58H615.819ZM628.565 58.224C627.722 58.224 626.976 58.0747 626.325 57.776C625.674 57.4773 625.162 57.04 624.789 56.464C624.426 55.8773 624.245 55.168 624.245 54.336V53.936H625.957V54.336C625.957 55.1253 626.192 55.7173 626.661 56.112C627.141 56.5067 627.776 56.704 628.565 56.704C629.365 56.704 629.968 56.5387 630.373 56.208C630.778 55.8667 630.981 55.4293 630.981 54.896C630.981 54.544 630.885 54.256 630.693 54.032C630.501 53.808 630.229 53.632 629.877 53.504C629.525 53.3653 629.104 53.2373 628.613 53.12L628.021 52.976C627.306 52.8053 626.682 52.5973 626.149 52.352C625.626 52.096 625.221 51.76 624.933 51.344C624.645 50.928 624.501 50.3947 624.501 49.744C624.501 49.0827 624.661 48.5173 624.981 48.048C625.312 47.5787 625.765 47.216 626.341 46.96C626.917 46.704 627.594 46.576 628.373 46.576C629.152 46.576 629.845 46.7093 630.453 46.976C631.072 47.2427 631.557 47.6373 631.909 48.16C632.261 48.6827 632.437 49.3387 632.437 50.128V50.704H630.725V50.128C630.725 49.648 630.624 49.2587 630.421 48.96C630.229 48.6613 629.957 48.4427 629.605 48.304C629.253 48.1653 628.842 48.096 628.373 48.096C627.69 48.096 627.157 48.24 626.773 48.528C626.4 48.8053 626.213 49.1947 626.213 49.696C626.213 50.0373 626.293 50.32 626.453 50.544C626.624 50.7573 626.869 50.9333 627.189 51.072C627.509 51.2107 627.909 51.3333 628.389 51.44L628.981 51.584C629.706 51.744 630.346 51.952 630.901 52.208C631.456 52.4533 631.893 52.7893 632.213 53.216C632.533 53.6427 632.693 54.192 632.693 54.864C632.693 55.536 632.522 56.1227 632.181 56.624C631.85 57.1253 631.376 57.52 630.757 57.808C630.138 58.0853 629.408 58.224 628.565 58.224ZM636.757 58V48.368H633.317V46.8H641.925V48.368H638.485V58H636.757ZM647.23 58.224C645.854 58.224 644.761 57.84 643.95 57.072C643.14 56.2933 642.734 55.1733 642.734 53.712V51.088C642.734 49.6267 643.14 48.512 643.95 47.744C644.761 46.9653 645.854 46.576 647.23 46.576C648.606 46.576 649.7 46.9653 650.51 47.744C651.332 48.512 651.742 49.6267 651.742 51.088V53.712C651.742 55.1733 651.332 56.2933 650.51 57.072C649.7 57.84 648.606 58.224 647.23 58.224ZM647.23 56.672C648.116 56.672 648.798 56.416 649.278 55.904C649.758 55.3813 649.998 54.672 649.998 53.776V51.024C649.998 50.128 649.758 49.424 649.278 48.912C648.798 48.3893 648.116 48.128 647.23 48.128C646.366 48.128 645.689 48.3893 645.198 48.912C644.708 49.424 644.462 50.128 644.462 51.024V53.776C644.462 54.672 644.708 55.3813 645.198 55.904C645.689 56.416 646.366 56.672 647.23 56.672ZM653.788 58V46.8H658.492C659.185 46.8 659.793 46.9227 660.316 47.168C660.849 47.4027 661.26 47.744 661.548 48.192C661.847 48.64 661.996 49.1733 661.996 49.792V49.968C661.996 50.672 661.825 51.2373 661.484 51.664C661.153 52.08 660.748 52.3733 660.268 52.544V52.8C660.673 52.8213 660.999 52.96 661.244 53.216C661.489 53.4613 661.612 53.8187 661.612 54.288V58H659.868V54.528C659.868 54.24 659.793 54.0107 659.644 53.84C659.495 53.6693 659.255 53.584 658.924 53.584H655.516V58H653.788ZM655.516 52.016H658.3C658.919 52.016 659.399 51.8613 659.74 51.552C660.081 51.232 660.252 50.8 660.252 50.256V50.128C660.252 49.584 660.081 49.1573 659.74 48.848C659.409 48.528 658.929 48.368 658.3 48.368H655.516V52.016ZM667.705 58.224C666.863 58.224 666.116 58.0747 665.465 57.776C664.815 57.4773 664.303 57.04 663.929 56.464C663.567 55.8773 663.385 55.168 663.385 54.336V53.936H665.097V54.336C665.097 55.1253 665.332 55.7173 665.801 56.112C666.281 56.5067 666.916 56.704 667.705 56.704C668.505 56.704 669.108 56.5387 669.513 56.208C669.919 55.8667 670.121 55.4293 670.121 54.896C670.121 54.544 670.025 54.256 669.833 54.032C669.641 53.808 669.369 53.632 669.017 53.504C668.665 53.3653 668.244 53.2373 667.753 53.12L667.161 52.976C666.447 52.8053 665.823 52.5973 665.289 52.352C664.767 52.096 664.361 51.76 664.073 51.344C663.785 50.928 663.641 50.3947 663.641 49.744C663.641 49.0827 663.801 48.5173 664.121 48.048C664.452 47.5787 664.905 47.216 665.481 46.96C666.057 46.704 666.735 46.576 667.513 46.576C668.292 46.576 668.985 46.7093 669.593 46.976C670.212 47.2427 670.697 47.6373 671.049 48.16C671.401 48.6827 671.577 49.3387 671.577 50.128V50.704H669.865V50.128C669.865 49.648 669.764 49.2587 669.561 48.96C669.369 48.6613 669.097 48.4427 668.745 48.304C668.393 48.1653 667.983 48.096 667.513 48.096C666.831 48.096 666.297 48.24 665.913 48.528C665.54 48.8053 665.353 49.1947 665.353 49.696C665.353 50.0373 665.433 50.32 665.593 50.544C665.764 50.7573 666.009 50.9333 666.329 51.072C666.649 51.2107 667.049 51.3333 667.529 51.44L668.121 51.584C668.847 51.744 669.487 51.952 670.041 52.208C670.596 52.4533 671.033 52.7893 671.353 53.216C671.673 53.6427 671.833 54.192 671.833 54.864C671.833 55.536 671.663 56.1227 671.321 56.624C670.991 57.1253 670.516 57.52 669.897 57.808C669.279 58.0853 668.548 58.224 667.705 58.224Z" fill="#6D6D6D"/>
<path d="M481.011 188L591.52 78H670.011" stroke="#AFAFAF"/>
<path d="M254.989 188L144.48 78H1.46777" stroke="#AFAFAF"/>
<path d="M10.6853 29.448C8.93592 29.448 7.42126 29.1387 6.14126 28.52C4.88259 27.9013 3.91192 27.0267 3.22926 25.896C2.54659 24.7653 2.20526 23.4533 2.20526 21.96V21.64H6.36526V21.928C6.36526 22.9947 6.71726 23.912 7.42126 24.68C8.14659 25.4267 9.21326 25.8 10.6213 25.8C12.0293 25.8 13.1066 25.4267 13.8533 24.68C14.6213 23.912 15.0053 22.92 15.0053 21.704V21.384C15.0053 20.1893 14.6213 19.24 13.8533 18.536C13.1066 17.832 12.1679 17.48 11.0373 17.48C10.4186 17.48 9.90659 17.5653 9.50126 17.736C9.09592 17.9067 8.76526 18.12 8.50926 18.376C8.25326 18.632 8.03992 18.888 7.86926 19.144H2.90926V6.6H18.2053V10.312H7.00526V15.784H7.58126C7.79459 15.5067 8.08259 15.24 8.44526 14.984C8.80792 14.728 9.27726 14.5147 9.85326 14.344C10.4293 14.1733 11.1119 14.088 11.9013 14.088C13.2239 14.088 14.4293 14.3653 15.5173 14.92C16.6053 15.4747 17.4693 16.296 18.1093 17.384C18.7706 18.4507 19.1013 19.7733 19.1013 21.352V21.736C19.1013 23.3147 18.7599 24.68 18.0773 25.832C17.4159 26.984 16.4559 27.88 15.1973 28.52C13.9386 29.1387 12.4346 29.448 10.6853 29.448ZM29.8728 29.448C28.1234 29.448 26.6088 29.1387 25.3288 28.52C24.0701 27.9013 23.0994 27.0267 22.4168 25.896C21.7341 24.7653 21.3928 23.4533 21.3928 21.96V21.64H25.5528V21.928C25.5528 22.9947 25.9048 23.912 26.6088 24.68C27.3341 25.4267 28.4008 25.8 29.8088 25.8C31.2168 25.8 32.2941 25.4267 33.0408 24.68C33.8088 23.912 34.1928 22.92 34.1928 21.704V21.384C34.1928 20.1893 33.8088 19.24 33.0408 18.536C32.2941 17.832 31.3554 17.48 30.2248 17.48C29.6061 17.48 29.0941 17.5653 28.6888 17.736C28.2834 17.9067 27.9528 18.12 27.6968 18.376C27.4408 18.632 27.2274 18.888 27.0568 19.144H22.0968V6.6H37.3928V10.312H26.1928V15.784H26.7688C26.9821 15.5067 27.2701 15.24 27.6328 14.984C27.9954 14.728 28.4648 14.5147 29.0408 14.344C29.6168 14.1733 30.2994 14.088 31.0888 14.088C32.4114 14.088 33.6168 14.3653 34.7048 14.92C35.7928 15.4747 36.6568 16.296 37.2968 17.384C37.9581 18.4507 38.2888 19.7733 38.2888 21.352V21.736C38.2888 23.3147 37.9474 24.68 37.2648 25.832C36.6034 26.984 35.6434 27.88 34.3848 28.52C33.1261 29.1387 31.6221 29.448 29.8728 29.448ZM44.1003 29.416L41.6683 27.464L58.8843 6.184L61.3163 8.136L44.1003 29.416ZM57.6043 29.32C55.9829 29.32 54.7136 28.8933 53.7963 28.04C52.8789 27.1653 52.4203 25.9813 52.4203 24.488V24.264C52.4203 22.7493 52.8789 21.5653 53.7963 20.712C54.7136 19.8373 55.9829 19.4 57.6043 19.4C59.1829 19.4 60.4416 19.8373 61.3803 20.712C62.3189 21.5653 62.7883 22.7493 62.7883 24.264V24.488C62.7883 25.9813 62.3296 27.1653 61.4123 28.04C60.4949 28.8933 59.2256 29.32 57.6043 29.32ZM57.6043 26.696C58.2229 26.696 58.7029 26.504 59.0443 26.12C59.4069 25.736 59.5883 25.2347 59.5883 24.616V24.104C59.5883 23.4853 59.4069 22.984 59.0443 22.6C58.7029 22.216 58.2229 22.024 57.6043 22.024C56.9856 22.024 56.4949 22.216 56.1323 22.6C55.7909 22.984 55.6203 23.4853 55.6203 24.104V24.616C55.6203 25.2347 55.7909 25.736 56.1323 26.12C56.4949 26.504 56.9856 26.696 57.6043 26.696ZM45.3803 16.2C43.7589 16.2 42.4896 15.7733 41.5723 14.92C40.6549 14.0453 40.1963 12.8613 40.1963 11.368V11.144C40.1963 9.62933 40.6549 8.44533 41.5723 7.592C42.4896 6.71733 43.7589 6.28 45.3803 6.28C46.9589 6.28 48.2176 6.71733 49.1563 7.592C50.0949 8.44533 50.5643 9.62933 50.5643 11.144V11.368C50.5643 12.8613 50.1056 14.0453 49.1883 14.92C48.2709 15.7733 47.0016 16.2 45.3803 16.2ZM45.3803 13.576C45.9989 13.576 46.4789 13.384 46.8203 13C47.1829 12.616 47.3643 12.1147 47.3643 11.496V10.984C47.3643 10.3653 47.1829 9.864 46.8203 9.48C46.4789 9.096 45.9989 8.904 45.3803 8.904C44.7616 8.904 44.2709 9.096 43.9083 9.48C43.5669 9.864 43.3963 10.3653 43.3963 10.984V11.496C43.3963 12.1147 43.5669 12.616 43.9083 13C44.2709 13.384 44.7616 13.576 45.3803 13.576Z" fill="#0D0D0D"/>
<path d="M6.31726 58.224C4.95192 58.224 3.86926 57.84 3.06926 57.072C2.26926 56.2933 1.86926 55.1733 1.86926 53.712V51.088C1.86926 49.6267 2.26926 48.512 3.06926 47.744C3.86926 46.9653 4.95192 46.576 6.31726 46.576C7.66126 46.576 8.69592 46.9493 9.42126 47.696C10.1573 48.4427 10.5253 49.4613 10.5253 50.752V50.848H8.81326V50.704C8.81326 49.9467 8.60526 49.328 8.18926 48.848C7.78392 48.368 7.15992 48.128 6.31726 48.128C5.46392 48.128 4.79726 48.3893 4.31726 48.912C3.83726 49.424 3.59726 50.1387 3.59726 51.056V53.744C3.59726 54.6507 3.83726 55.3653 4.31726 55.888C4.79726 56.4107 5.46392 56.672 6.31726 56.672C7.15992 56.672 7.78392 56.432 8.18926 55.952C8.60526 55.4613 8.81326 54.8427 8.81326 54.096V53.824H10.5253V54.048C10.5253 55.3387 10.1573 56.3573 9.42126 57.104C8.69592 57.8507 7.66126 58.224 6.31726 58.224ZM16.6465 58.224C15.2705 58.224 14.1772 57.84 13.3665 57.072C12.5558 56.2933 12.1505 55.1733 12.1505 53.712V51.088C12.1505 49.6267 12.5558 48.512 13.3665 47.744C14.1772 46.9653 15.2705 46.576 16.6465 46.576C18.0225 46.576 19.1158 46.9653 19.9265 47.744C20.7478 48.512 21.1585 49.6267 21.1585 51.088V53.712C21.1585 55.1733 20.7478 56.2933 19.9265 57.072C19.1158 57.84 18.0225 58.224 16.6465 58.224ZM16.6465 56.672C17.5318 56.672 18.2145 56.416 18.6945 55.904C19.1745 55.3813 19.4145 54.672 19.4145 53.776V51.024C19.4145 50.128 19.1745 49.424 18.6945 48.912C18.2145 48.3893 17.5318 48.128 16.6465 48.128C15.7825 48.128 15.1052 48.3893 14.6145 48.912C14.1238 49.424 13.8785 50.128 13.8785 51.024V53.776C13.8785 54.672 14.1238 55.3813 14.6145 55.904C15.1052 56.416 15.7825 56.672 16.6465 56.672ZM23.2041 58V46.8H26.4521L28.9001 56.848H29.1561L31.6041 46.8H34.8521V58H33.1721V48.016H32.9161L30.4841 58H27.5721L25.1401 48.016H24.8841V58H23.2041ZM37.1885 58V46.8H40.4365L42.8845 56.848H43.1405L45.5885 46.8H48.8365V58H47.1565V48.016H46.9005L44.4685 58H41.5565L39.1245 48.016H38.8685V58H37.1885ZM55.3649 58.224C54.4795 58.224 53.7169 58.064 53.0769 57.744C52.4475 57.424 51.9569 56.9653 51.6049 56.368C51.2635 55.76 51.0929 55.024 51.0929 54.16V46.8H52.8369V54.208C52.8369 54.9973 53.0555 55.6053 53.4929 56.032C53.9302 56.4587 54.5542 56.672 55.3649 56.672C56.1755 56.672 56.7995 56.4587 57.2369 56.032C57.6742 55.6053 57.8929 54.9973 57.8929 54.208V46.8H59.6209V54.16C59.6209 55.024 59.4502 55.76 59.1089 56.368C58.7675 56.9653 58.2769 57.424 57.6369 57.744C56.9969 58.064 56.2395 58.224 55.3649 58.224ZM61.876 58V46.8H65.204L68.244 56.848H68.5V46.8H70.212V58H66.884L63.844 47.936H63.588V58H61.876ZM72.5479 58V46.8H74.2759V58H72.5479ZM79.2824 58V48.368H75.8424V46.8H84.4504V48.368H81.0104V58H79.2824ZM88.9126 58V53.936L85.0246 46.8H86.9766L89.6646 51.872H89.9046L92.5926 46.8H94.5446L90.6566 53.936V58H88.9126Z" fill="#6D6D6D"/>
<mask id="path-16-inside-1_6292_2049" fill="white">
<path d="M0.989258 93H101.989V156H0.989258V93Z"/>
</mask>
<path d="M101.989 155H0.989258V157H101.989V155Z" fill="#AFAFAF" mask="url(#path-16-inside-1_6292_2049)"/>
<path d="M1.99726 114V111.984C1.99726 110.816 2.18926 109.848 2.57326 109.08C2.95726 108.296 3.50926 107.656 4.22926 107.16C4.96526 106.648 5.86126 106.232 6.91726 105.912L8.52526 105.408C9.11726 105.216 9.61326 104.984 10.0133 104.712C10.4133 104.424 10.7173 104.08 10.9253 103.68C11.1493 103.28 11.2613 102.824 11.2613 102.312V102.216C11.2613 101.416 10.9893 100.784 10.4453 100.32C9.90126 99.84 9.15726 99.6 8.21326 99.6C7.28526 99.6 6.53326 99.856 5.95726 100.368C5.39726 100.864 5.11726 101.584 5.11726 102.528V102.96H2.04526V102.576C2.04526 101.36 2.31726 100.328 2.86126 99.48C3.40526 98.632 4.14126 97.984 5.06926 97.536C6.01326 97.088 7.06126 96.864 8.21326 96.864C9.36526 96.864 10.4053 97.088 11.3333 97.536C12.2613 97.968 12.9893 98.584 13.5173 99.384C14.0613 100.168 14.3333 101.096 14.3333 102.168V102.408C14.3333 103.48 14.1093 104.392 13.6613 105.144C13.2293 105.88 12.6373 106.488 11.8853 106.968C11.1333 107.432 10.2773 107.816 9.31726 108.12L7.78126 108.6C7.09326 108.808 6.55726 109.04 6.17326 109.296C5.78926 109.536 5.51726 109.808 5.35726 110.112C5.21326 110.4 5.14126 110.752 5.14126 111.168V111.264H14.1893V114H1.99726ZM22.5113 114.336C21.1993 114.336 20.0633 114.104 19.1033 113.64C18.1593 113.176 17.4313 112.52 16.9193 111.672C16.4073 110.824 16.1513 109.84 16.1513 108.72V108.48H19.2713V108.696C19.2713 109.496 19.5353 110.184 20.0633 110.76C20.6073 111.32 21.4073 111.6 22.4633 111.6C23.5193 111.6 24.3273 111.32 24.8873 110.76C25.4633 110.184 25.7513 109.44 25.7513 108.528V108.288C25.7513 107.392 25.4633 106.68 24.8873 106.152C24.3273 105.624 23.6233 105.36 22.7753 105.36C22.3113 105.36 21.9273 105.424 21.6233 105.552C21.3193 105.68 21.0713 105.84 20.8793 106.032C20.6873 106.224 20.5273 106.416 20.3993 106.608H16.6793V97.2H28.1513V99.984H19.7513V104.088H20.1833C20.3433 103.88 20.5593 103.68 20.8313 103.488C21.1033 103.296 21.4553 103.136 21.8873 103.008C22.3193 102.88 22.8313 102.816 23.4233 102.816C24.4153 102.816 25.3193 103.024 26.1353 103.44C26.9513 103.856 27.5993 104.472 28.0793 105.288C28.5753 106.088 28.8233 107.08 28.8233 108.264V108.552C28.8233 109.736 28.5673 110.76 28.0553 111.624C27.5593 112.488 26.8393 113.16 25.8953 113.64C24.9513 114.104 23.8233 114.336 22.5113 114.336ZM33.1819 114.312L31.3579 112.848L44.2699 96.888L46.0939 98.352L33.1819 114.312ZM43.3099 114.24C42.0939 114.24 41.1419 113.92 40.4539 113.28C39.7659 112.624 39.4219 111.736 39.4219 110.616V110.448C39.4219 109.312 39.7659 108.424 40.4539 107.784C41.1419 107.128 42.0939 106.8 43.3099 106.8C44.4939 106.8 45.4379 107.128 46.1419 107.784C46.8459 108.424 47.1979 109.312 47.1979 110.448V110.616C47.1979 111.736 46.8539 112.624 46.1659 113.28C45.4779 113.92 44.5259 114.24 43.3099 114.24ZM43.3099 112.272C43.7739 112.272 44.1339 112.128 44.3899 111.84C44.6619 111.552 44.7979 111.176 44.7979 110.712V110.328C44.7979 109.864 44.6619 109.488 44.3899 109.2C44.1339 108.912 43.7739 108.768 43.3099 108.768C42.8459 108.768 42.4779 108.912 42.2059 109.2C41.9499 109.488 41.8219 109.864 41.8219 110.328V110.712C41.8219 111.176 41.9499 111.552 42.2059 111.84C42.4779 112.128 42.8459 112.272 43.3099 112.272ZM34.1419 104.4C32.9259 104.4 31.9739 104.08 31.2859 103.44C30.5979 102.784 30.2539 101.896 30.2539 100.776V100.608C30.2539 99.472 30.5979 98.584 31.2859 97.944C31.9739 97.288 32.9259 96.96 34.1419 96.96C35.3259 96.96 36.2699 97.288 36.9739 97.944C37.6779 98.584 38.0299 99.472 38.0299 100.608V100.776C38.0299 101.896 37.6859 102.784 36.9979 103.44C36.3099 104.08 35.3579 104.4 34.1419 104.4ZM34.1419 102.432C34.6059 102.432 34.9659 102.288 35.2219 102C35.4939 101.712 35.6299 101.336 35.6299 100.872V100.488C35.6299 100.024 35.4939 99.648 35.2219 99.36C34.9659 99.072 34.6059 98.928 34.1419 98.928C33.6779 98.928 33.3099 99.072 33.0379 99.36C32.7819 99.648 32.6539 100.024 32.6539 100.488V100.872C32.6539 101.336 32.7819 101.712 33.0379 102C33.3099 102.288 33.6779 102.432 34.1419 102.432Z" fill="#AFAFAF"/>
<path d="M1.86526 138V129.6H4.30126L6.13726 137.136H6.32926L8.16526 129.6H10.6013V138H9.34126V130.512H9.14926L7.32526 138H5.14126L3.31726 130.512H3.12526V138H1.86526ZM12.3535 138V129.6H13.6495V138H12.3535ZM15.4004 138V129.6H17.8964L20.1764 137.136H20.3684V129.6H21.6524V138H19.1564L16.8764 130.452H16.6844V138H15.4004ZM23.4043 138V129.6H24.7003V138H23.4043ZM26.4512 138V129.6H28.9472L31.2272 137.136H31.4192V129.6H32.7032V138H30.2072L27.9272 130.452H27.7352V138H26.4512ZM37.3711 138.168C36.7711 138.168 36.2351 138.04 35.7631 137.784C35.2911 137.52 34.9191 137.136 34.6471 136.632C34.3751 136.128 34.2391 135.512 34.2391 134.784V132.816C34.2391 131.72 34.5391 130.884 35.1391 130.308C35.7391 129.724 36.5511 129.432 37.5751 129.432C38.5831 129.432 39.3591 129.708 39.9031 130.26C40.4471 130.804 40.7191 131.536 40.7191 132.456V132.516H39.4351V132.42C39.4351 132.076 39.3671 131.768 39.2311 131.496C39.0951 131.216 38.8911 130.996 38.6191 130.836C38.3471 130.676 37.9991 130.596 37.5751 130.596C36.9351 130.596 36.4351 130.792 36.0751 131.184C35.7151 131.568 35.5351 132.104 35.5351 132.792V134.808C35.5351 135.488 35.7151 136.028 36.0751 136.428C36.4351 136.82 36.9391 137.016 37.5871 137.016C38.2271 137.016 38.6951 136.84 38.9911 136.488C39.2871 136.136 39.4351 135.68 39.4351 135.12V134.964H37.1791V133.848H40.7191V138H39.5191V137.148H39.3271C39.2551 137.3 39.1471 137.456 39.0031 137.616C38.8671 137.776 38.6671 137.908 38.4031 138.012C38.1471 138.116 37.8031 138.168 37.3711 138.168ZM45.4473 138V129.6H48.7833C49.2953 129.6 49.7513 129.704 50.1513 129.912C50.5593 130.112 50.8753 130.4 51.0993 130.776C51.3313 131.144 51.4473 131.588 51.4473 132.108V132.264C51.4473 132.784 51.3273 133.232 51.0873 133.608C50.8553 133.984 50.5393 134.272 50.1393 134.472C49.7393 134.672 49.2873 134.772 48.7833 134.772H46.7433V138H45.4473ZM46.7433 133.596H48.6513C49.1073 133.596 49.4713 133.476 49.7433 133.236C50.0153 132.996 50.1513 132.668 50.1513 132.252V132.132C50.1513 131.708 50.0153 131.376 49.7433 131.136C49.4713 130.896 49.1073 130.776 48.6513 130.776H46.7433V133.596ZM52.6778 138V129.6H56.2058C56.7258 129.6 57.1818 129.692 57.5738 129.876C57.9738 130.052 58.2818 130.308 58.4978 130.644C58.7218 130.98 58.8338 131.38 58.8338 131.844V131.976C58.8338 132.504 58.7058 132.928 58.4498 133.248C58.2018 133.56 57.8978 133.78 57.5378 133.908V134.1C57.8418 134.116 58.0858 134.22 58.2698 134.412C58.4538 134.596 58.5458 134.864 58.5458 135.216V138H57.2378V135.396C57.2378 135.18 57.1818 135.008 57.0698 134.88C56.9578 134.752 56.7778 134.688 56.5298 134.688H53.9738V138H52.6778ZM53.9738 133.512H56.0618C56.5258 133.512 56.8858 133.396 57.1418 133.164C57.3978 132.924 57.5258 132.6 57.5258 132.192V132.096C57.5258 131.688 57.3978 131.368 57.1418 131.136C56.8938 130.896 56.5338 130.776 56.0618 130.776H53.9738V133.512ZM63.4158 138.168C62.3838 138.168 61.5638 137.88 60.9558 137.304C60.3478 136.72 60.0438 135.88 60.0438 134.784V132.816C60.0438 131.72 60.3478 130.884 60.9558 130.308C61.5638 129.724 62.3838 129.432 63.4158 129.432C64.4478 129.432 65.2678 129.724 65.8758 130.308C66.4918 130.884 66.7998 131.72 66.7998 132.816V134.784C66.7998 135.88 66.4918 136.72 65.8758 137.304C65.2678 137.88 64.4478 138.168 63.4158 138.168ZM63.4158 137.004C64.0798 137.004 64.5918 136.812 64.9518 136.428C65.3118 136.036 65.4918 135.504 65.4918 134.832V132.768C65.4918 132.096 65.3118 131.568 64.9518 131.184C64.5918 130.792 64.0798 130.596 63.4158 130.596C62.7678 130.596 62.2598 130.792 61.8918 131.184C61.5238 131.568 61.3398 132.096 61.3398 132.768V134.832C61.3398 135.504 61.5238 136.036 61.8918 136.428C62.2598 136.812 62.7678 137.004 63.4158 137.004ZM71.25 138.168C70.65 138.168 70.114 138.04 69.642 137.784C69.17 137.52 68.798 137.136 68.526 136.632C68.254 136.128 68.118 135.512 68.118 134.784V132.816C68.118 131.72 68.418 130.884 69.018 130.308C69.618 129.724 70.43 129.432 71.454 129.432C72.462 129.432 73.238 129.708 73.782 130.26C74.326 130.804 74.598 131.536 74.598 132.456V132.516H73.314V132.42C73.314 132.076 73.246 131.768 73.11 131.496C72.974 131.216 72.77 130.996 72.498 130.836C72.226 130.676 71.878 130.596 71.454 130.596C70.814 130.596 70.314 130.792 69.954 131.184C69.594 131.568 69.414 132.104 69.414 132.792V134.808C69.414 135.488 69.594 136.028 69.954 136.428C70.314 136.82 70.818 137.016 71.466 137.016C72.106 137.016 72.574 136.84 72.87 136.488C73.166 136.136 73.314 135.68 73.314 135.12V134.964H71.058V133.848H74.598V138H73.398V137.148H73.206C73.134 137.3 73.026 137.456 72.882 137.616C72.746 137.776 72.546 137.908 72.282 138.012C72.026 138.116 71.682 138.168 71.25 138.168ZM76.2676 138V129.6H79.7956C80.3156 129.6 80.7716 129.692 81.1636 129.876C81.5636 130.052 81.8716 130.308 82.0876 130.644C82.3116 130.98 82.4236 131.38 82.4236 131.844V131.976C82.4236 132.504 82.2956 132.928 82.0396 133.248C81.7916 133.56 81.4876 133.78 81.1276 133.908V134.1C81.4316 134.116 81.6756 134.22 81.8596 134.412C82.0436 134.596 82.1356 134.864 82.1356 135.216V138H80.8276V135.396C80.8276 135.18 80.7716 135.008 80.6596 134.88C80.5476 134.752 80.3676 134.688 80.1196 134.688H77.5636V138H76.2676ZM77.5636 133.512H79.6516C80.1156 133.512 80.4756 133.396 80.7316 133.164C80.9876 132.924 81.1156 132.6 81.1156 132.192V132.096C81.1156 131.688 80.9876 131.368 80.7316 131.136C80.4836 130.896 80.1236 130.776 79.6516 130.776H77.5636V133.512ZM83.2256 138L85.6256 129.6H87.9056L90.2936 138H88.9616L88.4096 136.02H85.1216L84.5696 138H83.2256ZM85.4456 134.82H88.0856L86.8616 130.404H86.6696L85.4456 134.82ZM91.4317 138V129.6H93.8677L95.7037 137.136H95.8957L97.7317 129.6H100.168V138H98.9077V130.512H98.7157L96.8917 138H94.7077L92.8837 130.512H92.6917V138H91.4317Z" fill="#AFAFAF"/>
<mask id="path-20-inside-2_6292_2049" fill="white">
<path d="M0.989258 172H101.989V235H0.989258V172Z"/>
</mask>
<path d="M101.989 234H0.989258V236H101.989V234Z" fill="#AFAFAF" mask="url(#path-20-inside-2_6292_2049)"/>
<path d="M1.99726 193V190.984C1.99726 189.816 2.18926 188.848 2.57326 188.08C2.95726 187.296 3.50926 186.656 4.22926 186.16C4.96526 185.648 5.86126 185.232 6.91726 184.912L8.52526 184.408C9.11726 184.216 9.61326 183.984 10.0133 183.712C10.4133 183.424 10.7173 183.08 10.9253 182.68C11.1493 182.28 11.2613 181.824 11.2613 181.312V181.216C11.2613 180.416 10.9893 179.784 10.4453 179.32C9.90126 178.84 9.15726 178.6 8.21326 178.6C7.28526 178.6 6.53326 178.856 5.95726 179.368C5.39726 179.864 5.11726 180.584 5.11726 181.528V181.96H2.04526V181.576C2.04526 180.36 2.31726 179.328 2.86126 178.48C3.40526 177.632 4.14126 176.984 5.06926 176.536C6.01326 176.088 7.06126 175.864 8.21326 175.864C9.36526 175.864 10.4053 176.088 11.3333 176.536C12.2613 176.968 12.9893 177.584 13.5173 178.384C14.0613 179.168 14.3333 180.096 14.3333 181.168V181.408C14.3333 182.48 14.1093 183.392 13.6613 184.144C13.2293 184.88 12.6373 185.488 11.8853 185.968C11.1333 186.432 10.2773 186.816 9.31726 187.12L7.78126 187.6C7.09326 187.808 6.55726 188.04 6.17326 188.296C5.78926 188.536 5.51726 188.808 5.35726 189.112C5.21326 189.4 5.14126 189.752 5.14126 190.168V190.264H14.1893V193H1.99726ZM23.0153 193.336C21.0313 193.336 19.4393 192.792 18.2393 191.704C17.0393 190.6 16.4393 188.936 16.4393 186.712V182.488C16.4393 180.328 17.0393 178.688 18.2393 177.568C19.4393 176.432 21.0313 175.864 23.0153 175.864C25.0153 175.864 26.6073 176.432 27.7913 177.568C28.9913 178.688 29.5913 180.328 29.5913 182.488V186.712C29.5913 188.936 28.9913 190.6 27.7913 191.704C26.6073 192.792 25.0153 193.336 23.0153 193.336ZM23.0153 190.6C24.2153 190.6 25.0953 190.272 25.6553 189.616C26.2313 188.96 26.5193 188.024 26.5193 186.808V182.344C26.5193 181.112 26.1993 180.184 25.5593 179.56C24.9353 178.92 24.0873 178.6 23.0153 178.6C21.9113 178.6 21.0473 178.928 20.4233 179.584C19.8153 180.24 19.5113 181.16 19.5113 182.344V186.808C19.5113 188.072 19.7993 189.024 20.3753 189.664C20.9673 190.288 21.8473 190.6 23.0153 190.6ZM34.3538 193.312L32.5298 191.848L45.4418 175.888L47.2658 177.352L34.3538 193.312ZM44.4818 193.24C43.2658 193.24 42.3138 192.92 41.6258 192.28C40.9378 191.624 40.5938 190.736 40.5938 189.616V189.448C40.5938 188.312 40.9378 187.424 41.6258 186.784C42.3138 186.128 43.2658 185.8 44.4818 185.8C45.6658 185.8 46.6098 186.128 47.3138 186.784C48.0178 187.424 48.3698 188.312 48.3698 189.448V189.616C48.3698 190.736 48.0258 191.624 47.3378 192.28C46.6498 192.92 45.6978 193.24 44.4818 193.24ZM44.4818 191.272C44.9458 191.272 45.3058 191.128 45.5618 190.84C45.8338 190.552 45.9698 190.176 45.9698 189.712V189.328C45.9698 188.864 45.8338 188.488 45.5618 188.2C45.3058 187.912 44.9458 187.768 44.4818 187.768C44.0178 187.768 43.6498 187.912 43.3778 188.2C43.1218 188.488 42.9938 188.864 42.9938 189.328V189.712C42.9938 190.176 43.1218 190.552 43.3778 190.84C43.6498 191.128 44.0178 191.272 44.4818 191.272ZM35.3138 183.4C34.0978 183.4 33.1458 183.08 32.4578 182.44C31.7698 181.784 31.4258 180.896 31.4258 179.776V179.608C31.4258 178.472 31.7698 177.584 32.4578 176.944C33.1458 176.288 34.0978 175.96 35.3138 175.96C36.4978 175.96 37.4418 176.288 38.1458 176.944C38.8498 177.584 39.2018 178.472 39.2018 179.608V179.776C39.2018 180.896 38.8578 181.784 38.1698 182.44C37.4818 183.08 36.5298 183.4 35.3138 183.4ZM35.3138 181.432C35.7778 181.432 36.1378 181.288 36.3938 181C36.6658 180.712 36.8018 180.336 36.8018 179.872V179.488C36.8018 179.024 36.6658 178.648 36.3938 178.36C36.1378 178.072 35.7778 177.928 35.3138 177.928C34.8498 177.928 34.4818 178.072 34.2098 178.36C33.9538 178.648 33.8258 179.024 33.8258 179.488V179.872C33.8258 180.336 33.9538 180.712 34.2098 181C34.4818 181.288 34.8498 181.432 35.3138 181.432Z" fill="#AFAFAF"/>
<path d="M3.86926 217V209.776H1.28926V208.6H7.74526V209.776H5.16526V217H3.86926ZM8.91995 217V208.6H12.4479C12.9679 208.6 13.4239 208.692 13.8159 208.876C14.2159 209.052 14.5239 209.308 14.7399 209.644C14.9639 209.98 15.0759 210.38 15.0759 210.844V210.976C15.0759 211.504 14.9479 211.928 14.6919 212.248C14.4439 212.56 14.1399 212.78 13.7799 212.908V213.1C14.0839 213.116 14.3279 213.22 14.5119 213.412C14.6959 213.596 14.7879 213.864 14.7879 214.216V217H13.4799V214.396C13.4799 214.18 13.4239 214.008 13.3119 213.88C13.1999 213.752 13.0199 213.688 12.7719 213.688H10.2159V217H8.91995ZM10.2159 212.512H12.3039C12.7679 212.512 13.1279 212.396 13.3839 212.164C13.6399 211.924 13.7679 211.6 13.7679 211.192V211.096C13.7679 210.688 13.6399 210.368 13.3839 210.136C13.1359 209.896 12.7759 209.776 12.3039 209.776H10.2159V212.512ZM16.502 217V208.6H21.794V209.776H17.798V212.188H21.458V213.364H17.798V215.824H21.854V217H16.502ZM22.5811 217L24.9811 208.6H27.2611L29.6491 217H28.3171L27.7651 215.02H24.4771L23.9251 217H22.5811ZM24.8011 213.82H27.4411L26.2171 209.404H26.0251L24.8011 213.82ZM33.6314 217.168C32.9994 217.168 32.4394 217.056 31.9514 216.832C31.4634 216.608 31.0794 216.28 30.7994 215.848C30.5274 215.408 30.3914 214.876 30.3914 214.252V213.952H31.6754V214.252C31.6754 214.844 31.8514 215.288 32.2034 215.584C32.5634 215.88 33.0394 216.028 33.6314 216.028C34.2314 216.028 34.6834 215.904 34.9874 215.656C35.2914 215.4 35.4434 215.072 35.4434 214.672C35.4434 214.408 35.3714 214.192 35.2274 214.024C35.0834 213.856 34.8794 213.724 34.6154 213.628C34.3514 213.524 34.0354 213.428 33.6674 213.34L33.2234 213.232C32.6874 213.104 32.2194 212.948 31.8194 212.764C31.4274 212.572 31.1234 212.32 30.9074 212.008C30.6914 211.696 30.5834 211.296 30.5834 210.808C30.5834 210.312 30.7034 209.888 30.9434 209.536C31.1914 209.184 31.5314 208.912 31.9634 208.72C32.3954 208.528 32.9034 208.432 33.4874 208.432C34.0714 208.432 34.5914 208.532 35.0474 208.732C35.5114 208.932 35.8754 209.228 36.1394 209.62C36.4034 210.012 36.5354 210.504 36.5354 211.096V211.528H35.2514V211.096C35.2514 210.736 35.1754 210.444 35.0234 210.22C34.8794 209.996 34.6754 209.832 34.4114 209.728C34.1474 209.624 33.8394 209.572 33.4874 209.572C32.9754 209.572 32.5754 209.68 32.2874 209.896C32.0074 210.104 31.8674 210.396 31.8674 210.772C31.8674 211.028 31.9274 211.24 32.0474 211.408C32.1754 211.568 32.3594 211.7 32.5994 211.804C32.8394 211.908 33.1394 212 33.4994 212.08L33.9434 212.188C34.4874 212.308 34.9674 212.464 35.3834 212.656C35.7994 212.84 36.1274 213.092 36.3674 213.412C36.6074 213.732 36.7274 214.144 36.7274 214.648C36.7274 215.152 36.5994 215.592 36.3434 215.968C36.0954 216.344 35.7394 216.64 35.2754 216.856C34.8114 217.064 34.2634 217.168 33.6314 217.168ZM41.2319 217.168C40.5679 217.168 39.9959 217.048 39.5159 216.808C39.0439 216.568 38.6759 216.224 38.4119 215.776C38.1559 215.32 38.0279 214.768 38.0279 214.12V208.6H39.3359V214.156C39.3359 214.748 39.4999 215.204 39.8279 215.524C40.1559 215.844 40.6239 216.004 41.2319 216.004C41.8399 216.004 42.3079 215.844 42.6359 215.524C42.9639 215.204 43.1279 214.748 43.1279 214.156V208.6H44.4239V214.12C44.4239 214.768 44.2959 215.32 44.0399 215.776C43.7839 216.224 43.4159 216.568 42.9359 216.808C42.4559 217.048 41.8879 217.168 41.2319 217.168ZM46.1153 217V208.6H49.6433C50.1633 208.6 50.6193 208.692 51.0113 208.876C51.4113 209.052 51.7193 209.308 51.9353 209.644C52.1593 209.98 52.2713 210.38 52.2713 210.844V210.976C52.2713 211.504 52.1433 211.928 51.8873 212.248C51.6393 212.56 51.3353 212.78 50.9753 212.908V213.1C51.2793 213.116 51.5233 213.22 51.7073 213.412C51.8913 213.596 51.9833 213.864 51.9833 214.216V217H50.6753V214.396C50.6753 214.18 50.6193 214.008 50.5073 213.88C50.3953 213.752 50.2153 213.688 49.9673 213.688H47.4113V217H46.1153ZM47.4113 212.512H49.4993C49.9633 212.512 50.3233 212.396 50.5793 212.164C50.8353 211.924 50.9633 211.6 50.9633 211.192V211.096C50.9633 210.688 50.8353 210.368 50.5793 210.136C50.3313 209.896 49.9713 209.776 49.4993 209.776H47.4113V212.512ZM55.6818 217V213.952L52.7658 208.6H54.2298L56.2458 212.404H56.4258L58.4418 208.6H59.9058L56.9898 213.952V217H55.6818Z" fill="#AFAFAF"/>
<mask id="path-24-inside-3_6292_2049" fill="white">
<path d="M0.989258 251H101.989V314H0.989258V251Z"/>
</mask>
<path d="M101.989 313H0.989258V315H101.989V313Z" fill="#AFAFAF" mask="url(#path-24-inside-3_6292_2049)"/>
<path d="M7.18126 272V257.456H6.74926L4.49326 262.784H1.27726L4.70926 255.2H10.2533V272H7.18126ZM19.6168 272.336C17.6328 272.336 16.0408 271.792 14.8408 270.704C13.6408 269.6 13.0408 267.936 13.0408 265.712V261.488C13.0408 259.328 13.6408 257.688 14.8408 256.568C16.0408 255.432 17.6328 254.864 19.6168 254.864C21.6168 254.864 23.2088 255.432 24.3928 256.568C25.5928 257.688 26.1928 259.328 26.1928 261.488V265.712C26.1928 267.936 25.5928 269.6 24.3928 270.704C23.2088 271.792 21.6168 272.336 19.6168 272.336ZM19.6168 269.6C20.8168 269.6 21.6968 269.272 22.2568 268.616C22.8328 267.96 23.1208 267.024 23.1208 265.808V261.344C23.1208 260.112 22.8008 259.184 22.1608 258.56C21.5368 257.92 20.6888 257.6 19.6168 257.6C18.5128 257.6 17.6488 257.928 17.0248 258.584C16.4168 259.24 16.1128 260.16 16.1128 261.344V265.808C16.1128 267.072 16.4008 268.024 16.9768 268.664C17.5688 269.288 18.4488 269.6 19.6168 269.6ZM30.9553 272.312L29.1313 270.848L42.0433 254.888L43.8673 256.352L30.9553 272.312ZM41.0833 272.24C39.8673 272.24 38.9153 271.92 38.2273 271.28C37.5393 270.624 37.1953 269.736 37.1953 268.616V268.448C37.1953 267.312 37.5393 266.424 38.2273 265.784C38.9153 265.128 39.8673 264.8 41.0833 264.8C42.2673 264.8 43.2113 265.128 43.9153 265.784C44.6193 266.424 44.9713 267.312 44.9713 268.448V268.616C44.9713 269.736 44.6273 270.624 43.9393 271.28C43.2513 271.92 42.2993 272.24 41.0833 272.24ZM41.0833 270.272C41.5473 270.272 41.9073 270.128 42.1633 269.84C42.4353 269.552 42.5713 269.176 42.5713 268.712V268.328C42.5713 267.864 42.4353 267.488 42.1633 267.2C41.9073 266.912 41.5473 266.768 41.0833 266.768C40.6193 266.768 40.2513 266.912 39.9793 267.2C39.7233 267.488 39.5953 267.864 39.5953 268.328V268.712C39.5953 269.176 39.7233 269.552 39.9793 269.84C40.2513 270.128 40.6193 270.272 41.0833 270.272ZM31.9153 262.4C30.6993 262.4 29.7473 262.08 29.0593 261.44C28.3713 260.784 28.0273 259.896 28.0273 258.776V258.608C28.0273 257.472 28.3713 256.584 29.0593 255.944C29.7473 255.288 30.6993 254.96 31.9153 254.96C33.0993 254.96 34.0433 255.288 34.7473 255.944C35.4513 256.584 35.8033 257.472 35.8033 258.608V258.776C35.8033 259.896 35.4593 260.784 34.7713 261.44C34.0833 262.08 33.1313 262.4 31.9153 262.4ZM31.9153 260.432C32.3793 260.432 32.7393 260.288 32.9953 260C33.2673 259.712 33.4033 259.336 33.4033 258.872V258.488C33.4033 258.024 33.2673 257.648 32.9953 257.36C32.7393 257.072 32.3793 256.928 31.9153 256.928C31.4513 256.928 31.0833 257.072 30.8113 257.36C30.5553 257.648 30.4273 258.024 30.4273 258.488V258.872C30.4273 259.336 30.5553 259.712 30.8113 260C31.0833 260.288 31.4513 260.432 31.9153 260.432Z" fill="#AFAFAF"/>
<path d="M1.86526 296V287.6H3.16126V294.824H7.20526V296H1.86526ZM8.3926 296V287.6H9.6886V296H8.3926ZM14.5955 296.168C13.5635 296.168 12.7435 295.88 12.1355 295.304C11.5275 294.72 11.2235 293.88 11.2235 292.784V290.816C11.2235 289.72 11.5275 288.884 12.1355 288.308C12.7435 287.724 13.5635 287.432 14.5955 287.432C15.6275 287.432 16.4475 287.724 17.0555 288.308C17.6715 288.884 17.9795 289.72 17.9795 290.816V292.784C17.9795 293.88 17.6715 294.72 17.0555 295.304C16.4475 295.88 15.6275 296.168 14.5955 296.168ZM14.5955 295.004C15.2595 295.004 15.7715 294.812 16.1315 294.428C16.4915 294.036 16.6715 293.504 16.6715 292.832V290.768C16.6715 290.096 16.4915 289.568 16.1315 289.184C15.7715 288.792 15.2595 288.596 14.5955 288.596C13.9475 288.596 13.4395 288.792 13.0715 289.184C12.7035 289.568 12.5195 290.096 12.5195 290.768V292.832C12.5195 293.504 12.7035 294.036 13.0715 294.428C13.4395 294.812 13.9475 295.004 14.5955 295.004ZM15.1115 298.052C14.7675 298.052 14.4875 297.944 14.2715 297.728C14.0635 297.52 13.9595 297.236 13.9595 296.876V296H15.2315V296.66C15.2315 296.9 15.3435 297.02 15.5675 297.02H16.3115V298.052H15.1115ZM22.6577 296.168C21.9937 296.168 21.4217 296.048 20.9417 295.808C20.4697 295.568 20.1017 295.224 19.8377 294.776C19.5817 294.32 19.4537 293.768 19.4537 293.12V287.6H20.7617V293.156C20.7617 293.748 20.9257 294.204 21.2537 294.524C21.5817 294.844 22.0497 295.004 22.6577 295.004C23.2657 295.004 23.7337 294.844 24.0617 294.524C24.3897 294.204 24.5537 293.748 24.5537 293.156V287.6H25.8497V293.12C25.8497 293.768 25.7217 294.32 25.4657 294.776C25.2097 295.224 24.8417 295.568 24.3617 295.808C23.8817 296.048 23.3137 296.168 22.6577 296.168ZM27.541 296V287.6H28.837V296H27.541ZM30.2759 296V294.848H31.4039V288.752H30.2759V287.6H33.6359C34.7559 287.6 35.6119 287.884 36.2039 288.452C36.8039 289.02 37.1039 289.876 37.1039 291.02V292.592C37.1039 293.736 36.8039 294.592 36.2039 295.16C35.6119 295.72 34.7559 296 33.6359 296H30.2759ZM32.7119 294.824H33.6479C34.3759 294.824 34.9159 294.64 35.2679 294.272C35.6199 293.904 35.7959 293.356 35.7959 292.628V290.972C35.7959 290.236 35.6199 289.688 35.2679 289.328C34.9159 288.968 34.3759 288.788 33.6479 288.788H32.7119V294.824ZM38.5684 296V287.6H39.8644V296H38.5684ZM43.6193 296V288.776H41.0393V287.6H47.4953V288.776H44.9153V296H43.6193ZM50.8419 296V292.952L47.9259 287.6H49.3899L51.4059 291.404H51.5859L53.6019 287.6H55.0659L52.1499 292.952V296H50.8419ZM59.0059 296V287.6H64.2979V288.776H60.3019V291.188H63.9619V292.364H60.3019V294.824H64.3579V296H59.0059ZM67.425 296L65.085 287.6H66.429L68.469 295.184H68.625L70.653 287.6H71.997L69.669 296H67.425ZM73.1387 296V287.6H78.4307V288.776H74.4347V291.188H78.0947V292.364H74.4347V294.824H78.4907V296H73.1387ZM79.8418 296V287.6H82.3378L84.6178 295.136H84.8098V287.6H86.0938V296H83.5978L81.3178 288.452H81.1258V296H79.8418ZM89.8497 296V288.776H87.2697V287.6H93.7257V288.776H91.1457V296H89.8497ZM97.5806 296.168C96.9486 296.168 96.3886 296.056 95.9006 295.832C95.4126 295.608 95.0286 295.28 94.7486 294.848C94.4766 294.408 94.3406 293.876 94.3406 293.252V292.952H95.6246V293.252C95.6246 293.844 95.8006 294.288 96.1526 294.584C96.5126 294.88 96.9886 295.028 97.5806 295.028C98.1806 295.028 98.6326 294.904 98.9366 294.656C99.2406 294.4 99.3926 294.072 99.3926 293.672C99.3926 293.408 99.3206 293.192 99.1766 293.024C99.0326 292.856 98.8286 292.724 98.5646 292.628C98.3006 292.524 97.9846 292.428 97.6166 292.34L97.1726 292.232C96.6366 292.104 96.1686 291.948 95.7686 291.764C95.3766 291.572 95.0726 291.32 94.8566 291.008C94.6406 290.696 94.5326 290.296 94.5326 289.808C94.5326 289.312 94.6526 288.888 94.8926 288.536C95.1406 288.184 95.4806 287.912 95.9126 287.72C96.3446 287.528 96.8526 287.432 97.4366 287.432C98.0206 287.432 98.5406 287.532 98.9966 287.732C99.4606 287.932 99.8246 288.228 100.089 288.62C100.353 289.012 100.485 289.504 100.485 290.096V290.528H99.2006V290.096C99.2006 289.736 99.1246 289.444 98.9726 289.22C98.8286 288.996 98.6246 288.832 98.3606 288.728C98.0966 288.624 97.7886 288.572 97.4366 288.572C96.9246 288.572 96.5246 288.68 96.2366 288.896C95.9566 289.104 95.8166 289.396 95.8166 289.772C95.8166 290.028 95.8766 290.24 95.9966 290.408C96.1246 290.568 96.3086 290.7 96.5486 290.804C96.7886 290.908 97.0886 291 97.4486 291.08L97.8926 291.188C98.4366 291.308 98.9166 291.464 99.3326 291.656C99.7486 291.84 100.077 292.092 100.317 292.412C100.557 292.732 100.677 293.144 100.677 293.648C100.677 294.152 100.549 294.592 100.293 294.968C100.045 295.344 99.6886 295.64 99.2246 295.856C98.7606 296.064 98.2126 296.168 97.5806 296.168Z" fill="#AFAFAF"/>
</svg>
