<svg width="699" height="565" viewBox="0 0 699 565" fill="none" xmlns="http://www.w3.org/2000/svg">
<mask id="mask0_3356_3944" style="mask-type:alpha" maskUnits="userSpaceOnUse" x="0" y="0" width="699" height="565">
<rect width="699" height="565" fill="#D9D9D9"/>
</mask>
<g mask="url(#mask0_3356_3944)">
<path fill-rule="evenodd" clip-rule="evenodd" d="M724.207 382.811C731.171 399.76 738.379 417.277 763.674 439.078L771.391 430.127C748.239 410.173 741.873 394.701 735.137 378.32C728.173 361.372 720.958 343.854 695.671 322.053C670.39 300.257 651.997 295.712 634.217 291.319L634.204 291.316C617.004 287.069 600.764 283.052 577.612 263.097C554.459 243.143 548.093 227.671 541.358 211.29C534.386 194.341 527.179 176.824 501.892 155.023C476.611 133.227 458.217 128.682 440.438 124.289L440.425 124.286C423.232 120.039 406.992 116.022 383.84 96.0671C360.687 76.1124 354.321 60.6404 347.586 44.2602L347.576 44.2349C340.607 27.3012 333.402 9.79016 308.12 -12L300.402 -3.04918C323.555 16.9055 329.921 32.3774 336.656 48.7577L336.667 48.7829C343.635 65.7167 350.841 83.2277 376.122 105.018C401.403 126.814 419.797 131.359 437.576 135.752L437.589 135.755C454.782 140.001 471.022 144.019 494.174 163.974C517.327 183.928 523.693 199.4 530.428 215.78L530.434 215.796C537.404 232.74 544.608 250.254 569.894 272.048C595.175 293.844 613.569 298.389 631.348 302.782L631.361 302.785C648.561 307.032 664.801 311.049 687.953 331.004C711.106 350.958 717.472 366.43 724.207 382.811ZM715.323 476.309C690.029 454.508 682.821 436.99 675.857 420.041C669.122 403.661 662.756 388.189 639.603 368.234C616.451 348.28 600.211 344.262 583.011 340.016L582.998 340.012C565.218 335.619 546.825 331.074 521.544 309.278C496.258 287.484 489.054 269.971 482.084 253.027L482.084 253.026L482.078 253.011C475.342 236.631 468.976 221.159 445.824 201.204C422.671 181.249 406.431 177.232 389.239 172.985L389.226 172.982C371.446 168.589 353.053 164.044 327.772 142.248C302.49 120.458 295.284 102.947 288.316 86.0134L288.306 85.9882C281.57 69.6079 275.204 54.136 252.052 34.1813L259.77 25.2305C285.051 47.0206 292.257 64.5317 299.225 81.4654L299.236 81.4906C305.971 97.8709 312.337 113.343 335.49 133.298C358.642 153.252 374.882 157.27 392.075 161.516L392.087 161.519C409.867 165.913 428.261 170.457 453.541 192.253C478.828 214.054 486.036 231.572 493.008 248.521C499.743 264.901 506.109 280.373 529.261 300.328C552.414 320.282 568.654 324.3 585.854 328.546L585.867 328.55C603.646 332.943 622.04 337.488 647.321 359.283C672.607 381.084 679.823 398.602 686.787 415.551C693.522 431.931 699.888 447.403 723.041 467.358L715.323 476.309ZM627.506 457.268C634.47 474.217 641.678 491.735 666.972 513.536L674.69 504.585C651.537 484.63 645.171 469.158 638.436 452.778C631.472 435.829 624.257 418.311 598.97 396.51C573.689 374.715 555.295 370.17 537.516 365.777L537.503 365.773C520.303 361.527 504.063 357.509 480.911 337.555C457.758 317.6 451.392 302.128 444.657 285.748L444.646 285.723C437.678 268.789 430.472 251.278 405.191 229.488C379.91 207.692 361.516 203.147 343.737 198.754L343.724 198.751C326.531 194.504 310.291 190.487 287.139 170.532C263.986 150.577 257.62 135.105 250.885 118.725L250.875 118.7C243.906 101.766 236.7 84.255 211.419 62.4648L203.701 71.4157C226.854 91.3704 233.22 106.842 239.955 123.223L239.965 123.248C246.934 140.181 254.14 157.693 279.421 179.483C304.702 201.278 323.096 205.823 340.875 210.217L340.888 210.22C358.081 214.466 374.321 218.484 397.473 238.438C420.625 258.393 426.992 273.865 433.727 290.245L433.737 290.271C440.706 307.204 447.911 324.715 473.193 346.505C498.474 368.301 516.867 372.846 534.647 377.239L534.66 377.243C551.86 381.489 568.1 385.507 591.252 405.461C614.405 425.416 620.771 440.888 627.506 457.268ZM618.621 550.773C593.327 528.973 586.119 511.455 579.155 494.506C572.42 478.126 566.054 462.654 542.901 442.699C519.749 422.744 503.509 418.727 486.309 414.48L486.296 414.477C468.517 410.084 450.123 405.539 424.842 383.743C399.556 361.949 392.352 344.436 385.382 327.492L385.382 327.491L385.376 327.476C378.641 311.096 372.275 295.624 349.122 275.669C325.97 255.714 309.73 251.697 292.537 247.45L292.524 247.447C274.745 243.054 256.351 238.509 231.07 216.713C205.789 194.923 198.583 177.412 191.614 160.478L191.604 160.453C184.869 144.073 178.503 128.601 155.35 108.646L163.068 99.6953C188.349 121.485 195.555 138.997 202.524 155.93L202.534 155.955C209.269 172.336 215.635 187.808 238.788 207.762C261.94 227.717 278.18 231.735 295.373 235.981L295.386 235.984L295.386 235.984C313.166 240.378 331.559 244.922 356.84 266.718C382.126 288.512 389.33 306.026 396.3 322.97L396.3 322.97L396.306 322.986C403.041 339.366 409.407 354.838 432.56 374.793C455.712 394.747 471.952 398.765 489.152 403.011L489.165 403.014C506.945 407.408 525.338 411.953 550.619 433.748C575.906 455.549 583.121 473.067 590.085 490.016C596.82 506.396 603.186 521.868 626.339 541.823L618.621 550.773ZM570.271 588C544.977 566.199 537.769 548.681 530.805 531.732C524.07 515.352 517.704 499.88 494.551 479.926C471.399 459.971 455.159 455.953 437.959 451.707L437.946 451.704C420.166 447.311 401.773 442.766 376.492 420.97C351.205 399.176 344.002 381.662 337.032 364.718L337.026 364.702C330.29 348.322 323.924 332.85 300.772 312.895C277.619 292.941 261.379 288.923 244.187 284.677L244.174 284.674C226.394 280.28 208.001 275.735 182.72 253.94C157.438 232.15 150.232 214.639 143.264 197.705L143.254 197.68C136.518 181.299 130.152 165.827 107 145.873L114.717 136.922C139.999 158.712 147.205 176.223 154.173 193.157L154.184 193.182C160.919 209.562 167.285 225.034 190.438 244.989C213.59 264.944 229.83 268.961 247.023 273.208L247.036 273.211C264.815 277.604 283.209 282.149 308.489 303.945C333.771 325.735 340.977 343.246 347.945 360.18L347.956 360.205C354.691 376.585 361.057 392.057 384.209 412.012C407.362 431.966 423.602 435.984 440.802 440.23L440.815 440.234C458.594 444.627 476.988 449.172 502.269 470.967C527.555 492.768 534.771 510.286 541.735 527.235C548.47 543.615 554.836 559.087 577.989 579.042L570.271 587.993V588Z" fill="url(#paint0_linear_3356_3944)" fill-opacity="0.5"/>
</g>
<defs>
<linearGradient id="paint0_linear_3356_3944" x1="439.195" y1="-12" x2="439.195" y2="588" gradientUnits="userSpaceOnUse">
<stop stop-color="#C0C0C0" stop-opacity="0"/>
<stop offset="0.5" stop-color="#C0C0C0"/>
<stop offset="1" stop-color="#C0C0C0" stop-opacity="0"/>
</linearGradient>
</defs>
</svg>
