<svg width="545" height="506" viewBox="0 0 545 506" fill="none" xmlns="http://www.w3.org/2000/svg">
<mask id="mask0_2881_1498" style="mask-type:alpha" maskUnits="userSpaceOnUse" x="0" y="0" width="545" height="506">
<rect width="545" height="506" fill="#D9D9D9"/>
</mask>
<g mask="url(#mask0_2881_1498)">
<path fill-rule="evenodd" clip-rule="evenodd" d="M259.84 -69.1211C289.056 -69.1211 311.945 -53.7994 311.945 -34.2366H311.938C311.938 -31.929 311.612 -29.6838 311.002 -27.5148V10.6198C311.002 36.0105 290.352 58.2828 266.804 58.2828H252.785C229.238 58.2828 208.587 36.0105 208.587 10.6198V-27.8335C208.04 -29.9055 207.735 -32.0399 207.735 -34.2366C207.735 -53.7994 230.624 -69.1211 259.84 -69.1211ZM300.857 -34.2366C300.857 -47.1329 282.07 -58.0335 259.84 -58.0335C237.602 -58.0335 218.822 -47.1329 218.822 -34.2366C218.822 -21.3403 237.602 -10.4398 259.84 -10.4398C282.077 -10.4398 300.857 -21.3403 300.857 -34.2366ZM252.785 47.1951H266.797C284.129 47.1951 299.908 29.7598 299.908 10.6198V-11.7149C290.428 -4.11292 276.159 0.647842 259.833 0.647842C243.506 0.647842 229.162 -4.14062 219.675 -11.7772V10.6198C219.675 29.7598 235.454 47.1951 252.785 47.1951ZM105.105 -23.4824C132.685 -23.4824 154.611 -9.83078 156.988 8.15198V8.15891H157.21V46.9171C157.21 66.4799 134.321 81.8016 105.105 81.8016C75.889 81.8016 53 66.4799 53 46.9171V11.402C53 -8.1607 75.889 -23.4824 105.105 -23.4824ZM146.122 11.402C146.122 -1.49426 127.336 -12.3948 105.105 -12.3948C82.8673 -12.3948 64.0876 -1.49426 64.0876 11.402C64.0876 24.2983 82.8673 35.1989 105.105 35.1989C127.343 35.1989 146.122 24.2983 146.122 11.402ZM64.0876 46.9171C64.0876 59.8134 82.8742 70.714 105.105 70.714C127.343 70.714 146.122 59.8134 146.122 46.9171V33.1407C136.656 41.1931 121.937 46.2865 105.105 46.2865C88.2725 46.2865 73.5537 41.1931 64.0876 33.1407V46.9171ZM421.511 156.186C421.428 136.997 403.924 119.41 372.192 106.638C341.985 94.4832 301.938 87.7891 259.438 87.7891C216.938 87.7891 176.89 94.4832 146.684 106.638C114.952 119.41 97.4406 136.997 97.3644 156.186C97.3228 157.911 96.4704 198.915 104.225 244.277C108.812 271.116 115.479 293.832 124.058 311.787C135.104 334.919 149.414 350.33 166.607 357.6C192.884 368.715 228.198 374.273 262.598 374.273C297.15 374.273 330.787 368.667 353.371 357.461C370.425 349 384.652 332.902 395.642 309.611C404.208 291.455 410.881 268.829 415.462 242.378C422.926 199.274 421.661 160.77 421.522 156.52C421.517 156.359 421.513 156.247 421.511 156.186ZM397.015 273.008C392.656 276.923 383.023 284.678 368.831 291.206C335.451 306.555 293.089 311.059 263.429 312.127C209.647 314.074 174.451 303.347 154.396 294.005C137.044 285.925 125.485 275.738 121.542 271.975C118.867 261.997 116.789 251.99 115.181 242.572C115.056 241.866 114.938 241.152 114.82 240.445C120.732 244.028 129.401 248.636 141.507 253.632C163.8 262.835 200.077 273.306 249.75 273.306C253.998 273.306 258.35 273.23 262.792 273.07C318.992 271.04 358.007 259.821 380.847 250.756C392.129 246.287 399.447 242.773 404.138 240.223C402.323 251.089 399.994 262.198 397.015 273.015V273.008ZM406.307 225.636C400.971 229.101 391.048 234.832 376.107 240.701C354.161 249.329 316.615 260.022 262.39 261.983C208.31 263.93 169.42 253.078 146.323 243.619C129.234 236.627 118.036 229.35 112.617 225.414C110.531 209.268 109.471 194.237 108.937 182.36C117.294 191.257 130.024 199.296 146.69 205.997C176.897 218.152 216.944 224.846 259.445 224.846C301.945 224.846 341.992 218.152 372.199 205.997C388.907 199.275 401.664 191.209 410.022 182.283C409.509 194.21 408.449 209.33 406.314 225.629L406.307 225.636ZM356.808 199.816C347.619 195.596 309.699 179.754 259.757 180.53C205.379 181.369 171.333 199.545 167.688 201.583C161.777 199.809 156.143 197.848 150.834 195.713C144.071 192.99 138.035 190.052 132.789 186.947C146.822 173.455 173.356 161.771 173.606 161.674L174.153 161.425C174.229 161.383 182.247 157.26 196.772 153.102C210.167 149.27 231.989 144.613 259.923 144.225C313.545 143.477 353.724 161.376 354.119 161.556L354.535 161.723C354.764 161.806 376.509 169.734 393.217 182.29C386.571 187.127 378.117 191.666 368.062 195.706C364.459 197.155 360.703 198.527 356.815 199.809L356.808 199.816ZM339.345 204.805C315.555 210.64 288.12 213.758 259.445 213.758C232.689 213.758 207.014 211.042 184.375 205.942C197.742 200.509 223.964 192.172 259.93 191.618C294.211 191.091 322.991 199.005 339.345 204.805ZM150.828 116.929C179.752 105.294 218.324 98.8836 259.445 98.8836C300.566 98.8836 339.137 105.294 368.062 116.929C394.991 127.767 410.438 142.125 410.438 156.324C410.438 162.589 407.43 168.874 401.761 174.882C384.118 160.974 361.098 152.326 358.499 151.37C354.888 149.762 314.571 132.368 259.764 133.137C205.524 133.893 172.857 149.651 169.295 151.453C166.246 152.666 138.174 165.396 123.448 180.599C113.719 172.942 108.459 164.606 108.459 156.318C108.459 142.118 123.905 127.76 150.834 116.922L150.828 116.929ZM348.451 347.531C306.526 368.327 220.25 368.258 170.931 347.392C150.336 338.681 136.642 316.368 127.55 291.206C132.803 295.003 139.837 299.376 148.887 303.658C182.427 319.514 221.109 323.436 251.15 323.436C255.585 323.436 259.826 323.353 263.838 323.207C335.284 320.622 373.155 303.499 391.055 291.628C381.859 316.465 368.332 337.67 348.451 347.531ZM537.828 279.086L544.889 287.637H544.875L310.995 480.708V483.216C310.995 508.607 290.345 530.879 266.797 530.879H252.778C229.231 530.879 208.58 508.607 208.58 483.216V444.763C208.033 442.691 207.728 440.557 207.728 438.36C207.728 418.797 230.617 403.475 259.833 403.475C289.049 403.475 311.938 418.797 311.938 438.36C311.938 440.667 311.612 442.913 311.002 445.082V466.328L537.828 279.086ZM266.811 519.792C284.143 519.792 299.922 502.356 299.922 483.216H299.915V460.882C290.435 468.484 276.166 473.244 259.84 473.244C243.513 473.244 229.169 468.456 219.682 460.819V483.216C219.682 502.356 235.461 519.792 252.792 519.792H266.811ZM218.83 438.36C218.83 451.256 237.616 462.157 259.847 462.157C282.084 462.157 300.864 451.256 300.864 438.36C300.864 425.464 282.084 414.563 259.847 414.563C237.609 414.563 218.83 425.464 218.83 438.36Z" fill="url(#paint0_linear_2881_1498)" fill-opacity="0.5"/>
</g>
<defs>
<linearGradient id="paint0_linear_2881_1498" x1="298.945" y1="-69.1211" x2="298.945" y2="530.879" gradientUnits="userSpaceOnUse">
<stop stop-color="#C0C0C0" stop-opacity="0"/>
<stop offset="0.5" stop-color="#C0C0C0"/>
<stop offset="1" stop-color="#C0C0C0" stop-opacity="0"/>
</linearGradient>
</defs>
</svg>
