<svg width="145" height="56" viewBox="0 0 145 56" fill="none" xmlns="http://www.w3.org/2000/svg">
<path d="M43.9849 43.9841C60.0077 39.9122 60.0014 16.0768 43.9818 12.0143C39.9224 -4.0116 16.0744 -3.99899 12.0182 12.0175C-4.00766 16.0799 -4.00451 39.9311 12.0182 43.9841C16.0807 60.01 39.9288 60.0006 43.9849 43.9841ZM50.2111 17.3952C58.1089 24.9082 54.6962 39.0417 44.3634 42.2241C44.4896 41.4198 44.5589 40.6061 44.5653 39.7923C54.8413 35.8277 54.8413 20.1802 44.5653 16.2124C44.5558 15.4018 44.4864 14.588 44.3571 13.7806C46.4987 14.4903 48.511 15.6983 50.2079 17.3983L50.2111 17.3952ZM39.8278 27.9992C41.613 26.1825 42.8936 24.0503 43.6695 21.7825C48.1105 24.5613 48.1136 31.4372 43.6695 34.2159C42.8967 31.9513 41.6099 29.8097 39.8278 27.9992ZM38.8942 36.9694C41.8023 47.5609 27.6404 55.5943 20.0675 47.5388C15.2606 42.9149 15.9609 34.7994 21.0705 30.677C21.7297 30.0336 23.0986 28.6363 23.7451 27.9992C25.42 26.3275 27.4386 24.3058 29.1102 22.6341C30.9428 20.8394 32.8668 18.5275 35.3112 17.6349C35.0746 19.0164 34.4501 20.3821 33.4156 21.4545C33.3588 21.5113 33.2926 21.5712 33.2358 21.628C30.6684 24.1954 27.8738 26.9931 25.3064 29.5573C24.2372 30.6297 22.698 32.1626 21.6287 33.235C18.1403 36.613 18.1372 42.6026 21.6287 45.9712C30.0186 54.0961 42.4236 42.016 34.5384 33.4179L34.4722 33.3485L36.0335 31.7873C37.4686 33.2602 38.4179 35.0171 38.8911 36.9631L38.8942 36.9694ZM11.501 38.0954C3.18366 34.3515 3.18681 21.6595 11.4978 17.9124C11.5704 18.6852 11.6934 19.4548 11.8732 20.2149C5.9561 23.4605 5.95925 32.5537 11.8732 35.7993C11.6934 36.5562 11.5704 37.3258 11.501 38.0986V38.0954ZM11.1351 33.2571C7.8107 30.0084 8.41313 24.2837 12.3242 21.7857C13.0969 24.0503 14.3838 26.1919 16.169 28.0024C14.3838 29.8191 13.1033 31.9513 12.3273 34.2222C11.9047 33.9478 11.5073 33.6229 11.1351 33.2539V33.2571ZM22.6444 21.527C21.5657 20.4641 20.9222 19.0511 20.6794 17.6443C21.9599 18.1711 23.1585 18.9438 24.2056 19.9658L22.6444 21.527ZM20.5879 15.9254C20.6352 15.1873 20.7898 14.4524 21.0547 13.7522C23.1837 14.443 25.1834 15.6226 26.8803 17.2879L25.3222 18.8461C23.9344 17.493 22.3132 16.5183 20.5879 15.9222V15.9254ZM27.9968 16.1745C26.1801 14.3893 24.0479 13.1088 21.7801 12.3329C24.5589 7.89192 31.4348 7.88876 34.2136 12.3329C31.9489 13.1056 29.8041 14.3956 27.9968 16.1777V16.1745ZM34.3681 10.0272C25.9719 1.89915 13.5795 13.9825 21.4553 22.5805L21.5247 22.653L19.9634 24.2143C9.93655 13.5661 25.3979 -1.71543 35.9294 8.46596C40.2725 12.6704 40.2757 20.1172 35.9294 24.3247C33.3651 26.889 30.5706 29.6835 28.0032 32.2509C25.7511 34.3578 23.619 37.2312 20.6857 38.3604C20.9222 36.9757 21.5499 35.6258 22.5781 34.5471H22.5813C25.2086 31.9229 28.0631 29.0716 30.6904 26.4411C31.7628 25.3687 33.2989 23.8358 34.3681 22.7634C37.8597 19.3917 37.8565 13.3926 34.3681 10.0272ZM33.3556 34.4809C33.4061 34.5313 33.4503 34.5755 33.5039 34.6228C34.4848 35.6983 35.0904 37.0041 35.3175 38.3635C34.0401 37.8337 32.8384 37.0641 31.7944 36.0453L33.3556 34.484V34.4809ZM35.4089 40.0825C35.3648 40.8237 35.2102 41.5555 34.9421 42.2557C32.8163 41.5618 30.8134 40.3853 29.1165 38.72L30.6747 37.1618C32.0625 38.5149 33.6837 39.4895 35.4058 40.0825H35.4089ZM27.9275 39.9027L28 39.8333C29.8168 41.6186 31.9489 42.8991 34.2167 43.675C31.4348 48.1191 24.5589 48.1223 21.777 43.675C24.0164 42.9086 26.1202 41.6532 27.9243 39.9027H27.9275ZM45.972 21.6343C45.4042 21.0665 44.7829 20.5934 44.1205 20.2118C44.3003 19.4516 44.4265 18.6852 44.4959 17.9093C52.8069 21.6595 52.8069 34.3421 44.4959 38.0923C44.4265 37.3195 44.3003 36.5499 44.1205 35.7898C49.1765 32.9511 50.1417 25.6841 45.9688 21.6343H45.972ZM17.3928 5.7913C32.5766 -8.31693 52.9583 14.1244 37.601 28.0024C36.352 29.2514 34.6141 30.9893 33.3651 32.2383C29.5423 35.7299 26.1643 40.6881 21.0642 42.2525C20.7929 41.5555 20.6415 40.8206 20.5974 40.0794C22.2911 39.4895 23.8871 38.537 25.2559 37.2218C29.1733 33.3044 33.2389 29.2419 37.1563 25.3245C42.0104 20.483 41.9568 12.1215 37.0459 7.34941C24.8775 -4.20085 7.44798 13.0394 18.8437 25.3309L17.2856 26.889C11.5672 21.2053 11.6177 11.4245 17.396 5.7913H17.3928ZM5.78578 38.6096C-2.11205 31.0997 1.30067 16.9568 11.6398 13.7806C11.5136 14.5849 11.4442 15.3986 11.4316 16.2124C1.15242 20.1771 1.15558 35.8371 11.4347 39.7955C11.4411 40.6092 11.5104 41.423 11.6398 42.2273C9.49498 41.5145 7.48583 40.3128 5.78262 38.6096H5.78578ZM17.396 50.2166C11.1256 44.1418 11.7785 33.5567 18.399 28.0024C19.648 26.7533 21.3859 25.0154 22.6349 23.7633C26.4608 20.2749 29.8294 15.3072 34.9358 13.7491C35.2039 14.4493 35.3585 15.181 35.4026 15.9222C33.6332 16.531 31.9521 17.5592 30.558 18.9564C27.9905 21.5239 25.196 24.3216 22.6286 26.8858C20.1716 29.428 16.9639 31.945 15.9167 35.4113C11.3527 47.9078 27.7288 58.2374 37.0396 48.6522C41.9537 43.8769 42.0073 35.5186 37.15 30.677L38.7081 29.1189C52.1256 43.5079 31.6524 63.7792 17.3865 50.2166H17.396Z" fill="url(#paint0_linear_204_15632)"/>
<path fill-rule="evenodd" clip-rule="evenodd" d="M83.7524 17.7685H86.6707V38.2394H83.7524V17.7685ZM73.5147 26.8634C73.3402 26.6217 73.2959 26.322 73.3733 26.0524C73.4189 25.8933 73.5069 25.7447 73.6355 25.6247L82.0496 17.7685H77.8931L71.7941 23.6525L68.2537 27.0681H67.9589V17.7685H65.0406V38.2394H67.9589V31.7461C67.9589 31.2245 68.1754 30.7262 68.5567 30.3703L70.1764 28.8579C70.3338 28.711 70.5264 28.6292 70.7229 28.6094C71.0039 28.581 71.2929 28.6792 71.4984 28.8945C71.5304 28.928 71.5604 28.9644 71.588 29.0035L78.0995 38.2394H81.7253L73.5147 26.8634ZM102.983 35.0513C102.983 35.1485 102.904 35.2272 102.807 35.2272C102.786 35.2272 102.766 35.2237 102.748 35.217C102.701 35.2004 102.663 35.1645 102.643 35.1169L95.672 17.7685H90.6902V38.2394H93.6085V20.9565C93.6085 20.8594 93.6873 20.7806 93.7844 20.7806C93.8049 20.7806 93.8249 20.7842 93.8435 20.7909C93.8901 20.8075 93.9285 20.8434 93.9476 20.891L100.919 38.2394H105.901V17.7685H102.983V35.0513ZM108.328 17.7685V20.3712H114.049C114.28 20.3712 114.491 20.4543 114.655 20.5921C114.86 20.7647 114.99 21.0234 114.99 21.3124V38.2394H117.909V21.3124C117.909 21.0234 118.039 20.7647 118.244 20.5921C118.408 20.4543 118.619 20.3712 118.85 20.3712H124.571V17.7685H108.328ZM124.797 23.1948C124.051 24.6349 123.63 26.2702 123.63 28.0039C123.63 33.7868 128.318 38.4747 134.1 38.4747C139.883 38.4747 144.571 33.7868 144.571 28.0039C144.571 22.2211 139.883 17.5332 134.1 17.5332C131.549 17.5332 129.211 18.4457 127.394 19.9621C127.236 20.094 127.082 20.2304 126.932 20.3712C126.071 21.1809 125.346 22.135 124.797 23.1948ZM134.1 35.6511C138.324 35.6511 141.748 32.2274 141.748 28.0039C141.748 23.7805 138.324 20.3568 134.1 20.3568C129.877 20.3568 126.453 23.7805 126.453 28.0039C126.453 32.2274 129.877 35.6511 134.1 35.6511Z" fill="white"/>
<defs>
<linearGradient id="paint0_linear_204_15632" x1="-5" y1="5.50002" x2="49" y2="59.5" gradientUnits="userSpaceOnUse">
<stop stop-color="#6D6D6D"/>
<stop offset="0.365741" stop-color="white"/>
<stop offset="1" stop-color="#6D6D6D"/>
</linearGradient>
</defs>
</svg>
