<svg width="225" height="88" viewBox="0 0 225 88" fill="none" xmlns="http://www.w3.org/2000/svg">
<path d="M68.3955 68.8549C93.3106 62.5232 93.3008 25.4596 68.3906 19.1426C62.0785 -5.77732 24.9953 -5.7577 18.6881 19.1475C-6.23182 25.4646 -6.22692 62.5526 18.6881 68.8549C25.0051 93.7749 62.0883 93.7602 68.3955 68.8549ZM78.0771 27.5097C90.358 39.1923 85.0513 61.1695 68.9841 66.1182C69.1803 64.8676 69.2882 63.6022 69.298 62.3368C85.2769 56.1718 85.2769 31.8404 69.298 25.6705C69.2833 24.4101 69.1754 23.1447 68.9743 21.8891C72.3045 22.9927 75.4335 24.8711 78.0722 27.5146L78.0771 27.5097ZM61.9314 43.9988C64.7073 41.1738 66.6986 37.8583 67.9051 34.3319C74.8107 38.6528 74.8156 49.3447 67.9051 53.6656C66.7035 50.1442 64.7024 46.814 61.9314 43.9988ZM60.4796 57.9473C65.0016 74.4167 42.9803 86.9085 31.2045 74.3824C23.73 67.1923 24.8188 54.5729 32.7641 48.1627C33.7892 47.1622 35.9177 44.9895 36.9232 43.9988C39.5275 41.3994 42.6664 38.2556 45.2658 35.6562C48.1153 32.8655 51.1071 29.2705 54.9081 27.8825C54.5402 30.0307 53.5691 32.1543 51.9605 33.8219C51.8722 33.9102 51.7692 34.0033 51.6809 34.0916C47.6886 38.0839 43.3432 42.4342 39.3509 46.4216C37.6883 48.0892 35.2949 50.4728 33.6322 52.1403C28.2078 57.3931 28.2029 66.7068 33.6322 71.9448C46.6783 84.5789 65.9678 65.7945 53.7065 52.4248L53.6035 52.3169L56.0312 49.8891C58.2628 52.1795 59.739 54.9114 60.4747 57.9375L60.4796 57.9473ZM17.8838 59.6982C4.95051 53.8765 4.95542 34.1407 17.8789 28.3141C17.9917 29.5157 18.1829 30.7124 18.4625 31.8944C9.2616 36.9412 9.2665 51.0809 18.4625 56.1277C18.1829 57.3048 17.9917 58.5015 17.8838 59.7031V59.6982ZM17.3148 52.1746C12.1455 47.123 13.0822 38.2212 19.1638 34.3368C20.3655 37.8583 22.3665 41.1885 25.1425 44.0037C22.3665 46.8287 20.3753 50.1442 19.1688 53.6754C18.5115 53.2487 17.8936 52.7436 17.3148 52.1697V52.1746ZM35.2115 33.9347C33.5341 32.2819 32.5336 30.0846 32.156 27.8972C34.1472 28.7163 36.0109 29.9179 37.6392 31.5069L35.2115 33.9347ZM32.0137 25.2242C32.0873 24.0766 32.3276 22.9338 32.7396 21.845C36.0502 22.9191 39.1596 24.7534 41.7983 27.343L39.3754 29.7658C37.2174 27.6618 34.6965 26.1463 32.0137 25.2193V25.2242ZM43.5345 25.6117C40.7095 22.8357 37.394 20.8445 33.8676 19.638C38.1885 12.7324 48.8804 12.7275 53.2013 19.638C49.6799 20.8396 46.3448 22.8455 43.5345 25.6166V25.6117ZM53.4416 16.0528C40.3858 3.41377 21.1159 22.203 33.3625 35.5728L33.4704 35.6856L31.0426 38.1133C15.4511 21.5556 39.4931 -2.20682 55.8694 13.625C62.6229 20.1628 62.6278 31.7424 55.8694 38.285C51.882 42.2724 47.5366 46.6178 43.5443 50.6101C40.0424 53.8863 36.727 58.3543 32.1658 60.1102C32.5336 57.9571 33.5096 55.8579 35.1085 54.1806H35.1134C39.1989 50.1 43.6375 45.6663 47.7229 41.5759C49.3905 39.9084 51.779 37.5248 53.4416 35.8573C58.8709 30.6143 58.866 21.2859 53.4416 16.0528ZM51.8673 54.0776C51.9457 54.1561 52.0144 54.2247 52.0978 54.2983C53.6231 55.9707 54.5648 58.0012 54.9179 60.1151C52.9316 59.2911 51.0629 58.0944 49.4395 56.5102L51.8673 54.0825V54.0776ZM55.0601 62.788C54.9915 63.9406 54.7511 65.0785 54.3343 66.1673C51.0286 65.0883 47.9142 63.2589 45.2756 60.6693L47.6984 58.2464C49.8564 60.3505 52.3773 61.866 55.0552 62.788H55.0601ZM43.4266 62.5085L43.5394 62.4006C46.3644 65.1765 49.6798 67.1678 53.2062 68.3743C48.8804 75.2848 38.1885 75.2897 33.8627 68.3743C37.345 67.1825 40.6163 65.2305 43.4217 62.5085H43.4266ZM71.4854 34.1014C70.6026 33.2186 69.6364 32.4829 68.6064 31.8895C68.886 30.7075 69.0822 29.5157 69.1901 28.3092C82.1135 34.1407 82.1135 53.8618 69.1901 59.6933C69.0822 58.4917 68.886 57.295 68.6064 56.113C76.4684 51.6989 77.9692 40.3989 71.4805 34.1014H71.4854ZM27.0454 9.46597C50.6558 -12.472 82.3489 22.4237 58.4688 44.0037C56.5266 45.9459 53.8242 48.6483 51.882 50.5905C45.9377 56.0198 40.6849 63.7297 32.7543 66.1624C32.3325 65.0785 32.0971 63.9357 32.0284 62.7831C34.6622 61.866 37.1439 60.3848 39.2724 58.3396C45.3639 52.2482 51.6858 45.9312 57.7772 39.8397C65.3253 32.3113 65.2419 19.3094 57.6056 11.8888C38.6839 -6.07159 11.5814 20.7366 29.3015 39.8495L26.8787 42.2724C17.9868 33.4344 18.0652 18.2255 27.0503 9.46597H27.0454ZM8.99675 60.4976C-3.2842 48.8199 2.02251 26.828 18.0996 21.8891C17.9034 23.1398 17.7955 24.4052 17.7759 25.6705C1.79199 31.8355 1.7969 56.1865 17.7808 62.3417C17.7906 63.6071 17.8985 64.8725 18.0996 66.1231C14.7645 65.0147 11.6403 63.1461 8.99185 60.4976H8.99675ZM27.0503 78.5463C17.3001 69.1002 18.3154 52.6406 28.61 44.0037C30.5522 42.0615 33.2546 39.3591 35.1968 37.412C41.146 31.9876 46.384 24.2629 54.3244 21.8401C54.7413 22.9289 54.9816 24.0668 55.0503 25.2193C52.2989 26.1659 49.6848 27.7648 47.5169 29.9375C43.5247 33.9298 39.1792 38.2801 35.187 42.2675C31.3663 46.2205 26.3784 50.1343 24.7501 55.5244C17.6533 74.9562 43.1176 91.0185 57.5958 76.1137C65.237 68.6882 65.3204 55.6912 57.7674 48.1627L60.1903 45.7399C81.0541 68.1144 49.2188 99.6358 27.0356 78.5463H27.0503Z" fill="white"/>
<path fill-rule="evenodd" clip-rule="evenodd" d="M130.235 28.0901H134.773V59.9219H130.235V28.0901ZM114.315 42.2326C114.044 41.8566 113.975 41.3906 114.096 40.9714C114.167 40.7241 114.303 40.493 114.503 40.3063L127.587 28.0901H121.124L111.64 37.2397L106.135 42.5508H105.676V28.0901H101.138V59.9219H105.676V49.825C105.676 49.0139 106.013 48.2391 106.606 47.6856L109.125 45.3339C109.369 45.1055 109.669 44.9783 109.974 44.9475C110.411 44.9034 110.861 45.056 111.18 45.3908C111.23 45.4429 111.277 45.4994 111.319 45.5603L121.445 59.9219H127.083L114.315 42.2326ZM160.137 54.9646C160.137 55.1156 160.015 55.2381 159.864 55.2381C159.832 55.2381 159.801 55.2325 159.772 55.2222C159.7 55.1963 159.64 55.1406 159.61 55.0665L148.77 28.0901H141.023V59.9219H145.561V33.0475C145.561 32.8964 145.683 32.774 145.834 32.774C145.866 32.774 145.897 32.7795 145.926 32.7898C145.999 32.8157 146.058 32.8715 146.088 32.9455L156.929 59.9219H164.675V28.0901H160.137V54.9646ZM168.45 28.0901V32.1373H177.346C177.705 32.1373 178.033 32.2664 178.288 32.4807C178.607 32.7492 178.809 33.1514 178.809 33.6009V59.9219H183.347V33.6009C183.347 33.1514 183.55 32.7492 183.869 32.4807C184.123 32.2664 184.452 32.1373 184.811 32.1373H193.707V28.0901H168.45ZM194.058 36.5279C192.898 38.7672 192.243 41.3101 192.243 44.006C192.243 52.9982 199.533 60.2878 208.525 60.2878C217.517 60.2878 224.807 52.9982 224.807 44.006C224.807 35.0138 217.517 27.7243 208.525 27.7243C204.558 27.7243 200.922 29.1431 198.097 31.5011C197.852 31.7062 197.612 31.9184 197.379 32.1373C196.039 33.3964 194.912 34.88 194.058 36.5279ZM208.525 55.8972C215.092 55.8972 220.416 50.5733 220.416 44.006C220.416 37.4387 215.092 32.1148 208.525 32.1148C201.958 32.1148 196.634 37.4387 196.634 44.006C196.634 50.5733 201.958 55.8972 208.525 55.8972Z" fill="white"/>
</svg>
