<?xml version="1.0" standalone="no"?>
<!DOCTYPE svg PUBLIC "-//W3C//DTD SVG 20010904//EN"
 "http://www.w3.org/TR/2001/REC-SVG-20010904/DTD/svg10.dtd">
<svg version="1.0" xmlns="http://www.w3.org/2000/svg"
 width="513.000000pt" height="513.000000pt" viewBox="0 0 513.000000 513.000000"
 preserveAspectRatio="xMidYMid meet">
<metadata>
Created by potrace 1.14, written by Peter Selinger 2001-2017
</metadata>
<g transform="translate(0.000000,513.000000) scale(0.100000,-0.100000)"
fill="#000000" stroke="none">
<path d="M2458 5125 c-2 -2 -35 -5 -73 -8 -39 -3 -115 -16 -169 -27 -530 -115
-923 -464 -1090 -968 l-31 -93 -104 -35 c-276 -92 -471 -225 -657 -449 -156
-188 -287 -494 -320 -748 -10 -80 -12 -343 -4 -417 43 -359 196 -680 435 -914
147 -144 361 -271 556 -331 l96 -30 27 -85 c73 -235 202 -443 374 -605 313
-295 752 -440 1212 -401 80 7 81 7 205 32 315 64 629 251 820 490 22 27 43 51
46 54 3 3 27 37 52 76 62 97 123 229 160 344 l31 96 80 24 c445 134 784 472
935 931 34 101 33 100 58 234 18 97 24 387 10 485 -33 237 -112 455 -235 645
-65 102 -105 150 -204 247 -167 165 -367 276 -634 353 -6 2 -25 48 -42 103
-171 537 -638 911 -1232 988 -52 6 -297 14 -302 9z m327 -140 c565 -119 1008
-562 1126 -1128 22 -104 31 -353 15 -422 -3 -16 -9 -48 -12 -70 -8 -52 -58
-208 -90 -282 -92 -207 -169 -300 -643 -773 -229 -229 -465 -467 -526 -529
-144 -149 -289 -278 -395 -350 -92 -63 -256 -147 -307 -157 -30 -6 -32 -5 -43
37 -16 59 -29 142 -23 152 2 4 9 7 15 7 5 0 47 17 92 39 175 82 205 107 844
745 332 330 628 633 658 673 214 283 282 648 189 1018 -10 38 -21 77 -25 85
-4 8 -18 40 -31 70 -31 75 -104 198 -148 251 -186 224 -451 385 -718 435 -81
15 -267 20 -328 9 -294 -53 -494 -155 -690 -350 -287 -286 -410 -665 -339
-1050 12 -67 68 -215 111 -295 49 -93 93 -156 161 -238 l44 -53 -71 -70 -71
-70 -35 37 c-20 20 -48 53 -63 73 -15 20 -29 38 -33 41 -3 3 -26 39 -52 80
-77 125 -133 262 -171 415 -23 96 -27 131 -31 285 -11 512 235 949 685 1214
158 94 363 167 510 183 30 3 56 7 58 8 11 9 271 -6 337 -20z m-40 -339 c234
-49 463 -190 618 -381 108 -132 196 -346 212 -515 9 -90 9 -197 0 -254 -4 -22
-9 -54 -11 -71 -20 -129 -110 -325 -199 -435 -59 -73 -1201 -1204 -1260 -1248
-64 -48 -204 -127 -211 -119 -9 8 30 122 67 197 41 84 47 90 649 695 380 381
621 631 643 666 48 75 94 187 113 274 14 64 12 279 -2 345 -14 60 -21 91 -23
98 -1 1 -1 4 -1 7 -1 17 -89 178 -118 215 -129 165 -340 297 -522 326 -353 56
-710 -139 -884 -483 -143 -281 -100 -603 115 -863 l37 -45 -68 -68 c-37 -37
-71 -67 -74 -67 -10 0 -66 66 -114 134 -184 259 -230 573 -128 872 105 310
383 584 691 682 123 39 194 50 320 47 66 -2 134 -6 150 -9z m-93 -350 c169
-16 332 -110 449 -257 l29 -37 -58 -23 c-156 -62 -329 -167 -451 -274 l-64
-56 -46 44 c-114 111 -326 237 -504 301 -17 5 -16 10 14 49 120 152 289 243
489 260 36 3 43 2 142 -7z m-1597 -503 c-4 -43 -8 -93 -9 -111 -2 -31 -8 -36
-90 -77 -178 -90 -326 -221 -429 -382 -253 -397 -245 -954 19 -1340 105 -153
232 -264 408 -353 90 -47 91 -47 92 -86 1 -21 5 -69 8 -106 4 -38 5 -68 2 -68
-12 0 -115 44 -181 77 -180 89 -401 282 -513 446 -156 228 -235 504 -227 792
5 145 6 158 40 300 96 408 373 757 727 919 58 26 137 59 156 65 2 1 0 -34 -3
-76z m1024 15 c129 -58 371 -228 371 -261 0 -11 -124 -137 -134 -137 -4 0 -17
9 -29 21 -76 72 -226 169 -327 210 -81 33 -81 32 -65 116 8 40 19 81 25 92
l10 21 52 -21 c28 -11 72 -29 97 -41z m1139 -24 c9 -38 17 -78 17 -88 0 -21
-1 -22 -110 -72 -90 -42 -156 -82 -235 -145 -63 -50 -1157 -1142 -1210 -1208
-19 -24 -40 -48 -45 -55 -12 -13 -74 -101 -92 -131 -48 -78 -122 -277 -138
-370 -54 -317 4 -589 179 -844 91 -133 274 -302 396 -366 149 -78 302 -136
395 -149 123 -18 168 -22 241 -20 227 5 442 79 619 211 273 205 439 481 482
803 13 102 8 286 -11 386 -38 195 -148 415 -278 552 l-31 34 71 71 72 72 30
-35 c197 -227 327 -498 357 -745 13 -105 7 -314 -12 -404 -59 -288 -193 -530
-408 -742 -182 -179 -401 -306 -637 -368 -118 -31 -205 -43 -325 -43 -285 0
-560 96 -810 285 -104 78 -237 214 -302 309 -58 84 -148 256 -158 303 -2 6
-10 32 -19 59 -41 120 -60 252 -60 411 0 146 10 228 44 360 48 184 120 335
229 483 32 42 187 205 346 362 159 157 357 354 439 439 373 382 440 445 584
548 134 95 335 194 355 174 5 -5 16 -39 25 -77z m995 18 c409 -195 697 -579
762 -1017 21 -141 9 -384 -26 -525 -6 -25 -12 -52 -14 -60 -12 -54 -74 -210
-117 -289 -152 -288 -398 -509 -686 -617 -34 -13 -65 -24 -67 -24 -3 0 -3 33
1 73 3 39 7 88 8 107 2 33 7 37 100 85 124 64 198 119 290 215 213 223 320
515 312 850 -6 197 -45 359 -126 520 -108 214 -270 375 -486 484 l-91 46 -2
64 c-1 35 -5 84 -10 109 l-8 45 39 -14 c21 -7 76 -31 121 -52z m-2251 -323
c69 -35 130 -73 168 -105 14 -12 39 -33 55 -47 l30 -26 -72 -70 -71 -71 -29
30 c-47 50 -102 150 -128 233 -14 43 -25 80 -25 83 0 8 11 4 72 -27z m1247
-41 c-44 -161 -49 -167 -689 -808 -322 -322 -599 -603 -616 -625 -155 -198
-206 -497 -127 -750 57 -182 168 -328 338 -440 240 -159 503 -180 759 -61 300
138 501 427 511 737 3 85 0 117 -19 208 -19 88 -76 203 -150 302 -31 41 -56
76 -56 79 0 3 31 36 68 73 l68 68 25 -28 c117 -132 216 -328 245 -486 32 -178
32 -273 0 -432 -14 -69 -71 -204 -119 -280 -232 -370 -702 -579 -1112 -494
-183 37 -335 119 -473 253 -101 98 -164 183 -222 301 -69 142 -92 238 -96 410
-6 247 52 447 185 643 22 33 291 309 621 638 671 668 589 587 668 648 59 45
183 116 202 116 5 0 0 -33 -11 -72z m-2154 11 c3 -19 10 -65 16 -104 8 -48 8
-70 1 -73 -22 -7 -139 -101 -177 -143 -149 -161 -218 -356 -210 -599 8 -270
135 -505 347 -642 47 -31 50 -34 44 -68 -3 -19 -10 -64 -15 -99 -5 -35 -12
-65 -14 -68 -7 -6 -82 33 -147 77 -196 133 -341 358 -396 614 -21 97 -25 291
-9 396 48 297 218 554 460 697 49 29 90 51 92 49 2 -2 6 -19 8 -37z m3180 -57
c108 -76 225 -214 287 -337 32 -63 84 -209 93 -261 19 -113 23 -159 20 -264
-9 -309 -145 -587 -377 -771 -56 -44 -176 -114 -184 -106 -5 5 -8 19 -19 92
-3 22 -8 56 -11 75 -6 34 -4 38 48 72 147 98 266 267 320 454 33 115 33 335 0
447 -53 184 -169 346 -322 448 l-51 34 6 45 c3 25 10 73 16 107 l11 63 56 -32
c32 -17 80 -47 107 -66z m-3090 -309 c34 -90 156 -316 185 -343 3 -3 23 -27
45 -55 22 -27 52 -63 67 -80 15 -16 28 -34 28 -40 -1 -5 -23 -35 -51 -65 -28
-30 -71 -84 -97 -119 -46 -65 -156 -273 -183 -345 l-14 -39 -55 44 c-106 86
-201 232 -226 344 -36 161 -26 306 30 444 27 67 92 168 135 210 38 37 104 91
112 91 3 0 14 -21 24 -47z m2894 20 c204 -152 304 -453 236 -712 -32 -125
-102 -241 -196 -325 -84 -76 -81 -76 -119 17 -37 92 -105 217 -158 292 -34 48
-139 174 -154 185 -4 3 8 21 26 40 117 126 228 302 295 473 13 31 26 57 29 57
3 0 21 -12 41 -27z m-940 -1185 c58 -78 101 -171 125 -270 6 -26 5 -27 -19
-18 -69 26 -220 125 -275 180 l-22 22 68 69 c38 38 72 69 76 69 4 0 25 -24 47
-52z m-219 -257 c65 -58 247 -161 342 -194 19 -7 18 -35 -3 -122 -6 -22 -13
-49 -16 -61 -5 -20 -7 -20 -46 -7 -127 44 -301 143 -407 232 -71 59 -80 68
-80 78 0 4 30 38 67 75 l67 68 26 -24 c14 -12 36 -33 50 -45z m-246 -243 c118
-103 333 -231 449 -268 20 -6 37 -18 37 -26 0 -26 -152 -169 -220 -207 -115
-63 -196 -82 -345 -81 -112 0 -141 4 -208 26 -112 38 -204 96 -281 179 -36 39
-66 77 -66 84 0 7 21 20 48 30 167 64 342 172 477 297 17 15 32 28 34 28 1 0
35 -28 75 -62z"/>
</g>
</svg>
