<svg width="26" height="25" viewBox="0 0 26 25" fill="none" xmlns="http://www.w3.org/2000/svg">
<path d="M9.43197 14.0627H15.2913V12.5002H9.43197V14.0627ZM9.43197 11.7189H19.7184V10.1564H9.43197V11.7189ZM9.43197 9.37516H19.7184V7.81266H9.43197V9.37516ZM7.27051 19.7918C6.85384 19.7918 6.48926 19.6356 6.17676 19.3231C5.86426 19.0106 5.70801 18.646 5.70801 18.2293V3.646C5.70801 3.22933 5.86426 2.86475 6.17676 2.55225C6.48926 2.23975 6.85384 2.0835 7.27051 2.0835H21.8538C22.2705 2.0835 22.6351 2.23975 22.9476 2.55225C23.2601 2.86475 23.4163 3.22933 23.4163 3.646V18.2293C23.4163 18.646 23.2601 19.0106 22.9476 19.3231C22.6351 19.6356 22.2705 19.7918 21.8538 19.7918H7.27051ZM7.27051 18.2293H21.8538V3.646H7.27051V18.2293ZM4.14551 22.9168C3.72884 22.9168 3.36426 22.7606 3.05176 22.4481C2.73926 22.1356 2.58301 21.771 2.58301 21.3543V5.2085H4.14551V21.3543H20.2913V22.9168H4.14551Z" fill="#6D6D6D"/>
</svg>
