<svg width="25" height="25" viewBox="0 0 25 25" fill="none" xmlns="http://www.w3.org/2000/svg">
<g id="content_copy_FILL0_wght400_GRAD0_opsz24 1">
<path id="Vector" d="M9.30078 18.5C8.75078 18.5 8.27995 18.3042 7.88828 17.9125C7.49661 17.5208 7.30078 17.05 7.30078 16.5V4.5C7.30078 3.95 7.49661 3.47917 7.88828 3.0875C8.27995 2.69583 8.75078 2.5 9.30078 2.5H18.3008C18.8508 2.5 19.3216 2.69583 19.7133 3.0875C20.1049 3.47917 20.3008 3.95 20.3008 4.5V16.5C20.3008 17.05 20.1049 17.5208 19.7133 17.9125C19.3216 18.3042 18.8508 18.5 18.3008 18.5H9.30078ZM9.30078 16.5H18.3008V4.5H9.30078V16.5ZM5.30078 22.5C4.75078 22.5 4.27995 22.3042 3.88828 21.9125C3.49661 21.5208 3.30078 21.05 3.30078 20.5V6.5H5.30078V20.5H16.3008V22.5H5.30078Z" fill="black"/>
</g>
</svg>
