<svg width="26" height="25" viewBox="0 0 26 25" fill="none" xmlns="http://www.w3.org/2000/svg">
<g clip-path="url(#clip0_204_8725)">
<path d="M21.6774 4.40397C20.0591 3.64681 18.3287 3.09653 16.5197 2.7832C16.2975 3.18488 16.038 3.72515 15.859 4.15493C13.9359 3.86572 12.0306 3.86572 10.1429 4.15493C9.96395 3.72515 9.69849 3.18488 9.47433 2.7832C7.66334 3.09653 5.931 3.64883 4.3127 4.40797C1.04859 9.34048 0.163738 14.1505 0.606163 18.8922C2.7711 20.5089 4.86918 21.491 6.93185 22.1336C7.44113 21.4327 7.89535 20.6876 8.28664 19.9024C7.54141 19.6192 6.82763 19.2697 6.1532 18.8641C6.33213 18.7315 6.50714 18.5929 6.67623 18.4503C10.7898 20.3743 15.2593 20.3743 19.3237 18.4503C19.4948 18.5929 19.6697 18.7315 19.8467 18.8641C19.1703 19.2717 18.4546 19.6212 17.7093 19.9044C18.1006 20.6876 18.5529 21.4347 19.0641 22.1356C21.1288 21.493 23.2288 20.5109 25.3937 18.8922C25.9129 13.3953 24.5069 8.62952 21.6774 4.40397ZM8.84706 15.9761C7.61221 15.9761 6.59953 14.8233 6.59953 13.4194C6.59953 12.0156 7.59059 10.8608 8.84706 10.8608C10.1036 10.8608 11.1162 12.0136 11.0946 13.4194C11.0965 14.8233 10.1036 15.9761 8.84706 15.9761ZM17.1529 15.9761C15.918 15.9761 14.9053 14.8233 14.9053 13.4194C14.9053 12.0156 15.8963 10.8608 17.1529 10.8608C18.4093 10.8608 19.422 12.0136 19.4004 13.4194C19.4004 14.8233 18.4093 15.9761 17.1529 15.9761Z" fill="#6D6D6D"/>
</g>
<defs>
<clipPath id="clip0_204_8725">
<rect width="25" height="25" fill="white" transform="translate(0.5)"/>
</clipPath>
</defs>
</svg>
