<svg width="30" height="30" viewBox="0 0 30 30" fill="none" xmlns="http://www.w3.org/2000/svg">
<path d="M23.1774 6.40397C21.5591 5.64681 19.8287 5.09653 18.0197 4.7832C17.7975 5.18488 17.538 5.72515 17.359 6.15493C15.4359 5.86572 13.5306 5.86572 11.6429 6.15493C11.4639 5.72515 11.1985 5.18488 10.9743 4.7832C9.16334 5.09653 7.431 5.64883 5.8127 6.40797C2.54859 11.3405 1.66374 16.1505 2.10616 20.8922C4.2711 22.5089 6.36918 23.491 8.43185 24.1336C8.94113 23.4327 9.39535 22.6876 9.78664 21.9024C9.04141 21.6192 8.32763 21.2697 7.6532 20.8641C7.83213 20.7315 8.00714 20.5929 8.17623 20.4503C12.2898 22.3743 16.7593 22.3743 20.8237 20.4503C20.9948 20.5929 21.1697 20.7315 21.3467 20.8641C20.6703 21.2717 19.9546 21.6212 19.2093 21.9044C19.6006 22.6876 20.0529 23.4347 20.5641 24.1356C22.6288 23.493 24.7288 22.5109 26.8937 20.8922C27.4129 15.3953 26.0069 10.6295 23.1774 6.40397ZM10.3471 17.9761C9.11221 17.9761 8.09953 16.8233 8.09953 15.4194C8.09953 14.0156 9.09059 12.8608 10.3471 12.8608C11.6036 12.8608 12.6162 14.0136 12.5946 15.4194C12.5965 16.8233 11.6036 17.9761 10.3471 17.9761ZM18.6529 17.9761C17.418 17.9761 16.4053 16.8233 16.4053 15.4194C16.4053 14.0156 17.3963 12.8608 18.6529 12.8608C19.9093 12.8608 20.922 14.0136 20.9004 15.4194C20.9004 16.8233 19.9093 17.9761 18.6529 17.9761Z" fill="#FAFAFA"/>
</svg>
