<svg width="24" height="25" viewBox="0 0 24 25" fill="none" xmlns="http://www.w3.org/2000/svg">
<g id="error_FILL0_wght400_GRAD0_opsz24 1">
<path id="Vector" d="M12 17.5C12.2833 17.5 12.5208 17.4042 12.7125 17.2125C12.9042 17.0208 13 16.7833 13 16.5C13 16.2167 12.9042 15.9792 12.7125 15.7875C12.5208 15.5958 12.2833 15.5 12 15.5C11.7167 15.5 11.4792 15.5958 11.2875 15.7875C11.0958 15.9792 11 16.2167 11 16.5C11 16.7833 11.0958 17.0208 11.2875 17.2125C11.4792 17.4042 11.7167 17.5 12 17.5ZM11 13.5H13V7.5H11V13.5ZM12 22.5C10.6167 22.5 9.31667 22.2375 8.1 21.7125C6.88333 21.1875 5.825 20.475 4.925 19.575C4.025 18.675 3.3125 17.6167 2.7875 16.4C2.2625 15.1833 2 13.8833 2 12.5C2 11.1167 2.2625 9.81667 2.7875 8.6C3.3125 7.38333 4.025 6.325 4.925 5.425C5.825 4.525 6.88333 3.8125 8.1 3.2875C9.31667 2.7625 10.6167 2.5 12 2.5C13.3833 2.5 14.6833 2.7625 15.9 3.2875C17.1167 3.8125 18.175 4.525 19.075 5.425C19.975 6.325 20.6875 7.38333 21.2125 8.6C21.7375 9.81667 22 11.1167 22 12.5C22 13.8833 21.7375 15.1833 21.2125 16.4C20.6875 17.6167 19.975 18.675 19.075 19.575C18.175 20.475 17.1167 21.1875 15.9 21.7125C14.6833 22.2375 13.3833 22.5 12 22.5ZM12 20.5C14.2333 20.5 16.125 19.725 17.675 18.175C19.225 16.625 20 14.7333 20 12.5C20 10.2667 19.225 8.375 17.675 6.825C16.125 5.275 14.2333 4.5 12 4.5C9.76667 4.5 7.875 5.275 6.325 6.825C4.775 8.375 4 10.2667 4 12.5C4 14.7333 4.775 16.625 6.325 18.175C7.875 19.725 9.76667 20.5 12 20.5Z" fill="#D96704"/>
</g>
</svg>
