<svg width="24" height="25" viewBox="0 0 24 25" fill="none" xmlns="http://www.w3.org/2000/svg">
<path d="M5.07178 21.7034C4.44206 21.7034 3.90546 21.4817 3.46198 21.0382C3.01849 20.5947 2.79675 20.0581 2.79675 19.4284V5.5719C2.79675 4.94218 3.01849 4.40558 3.46198 3.9621C3.90546 3.51862 4.44206 3.29688 5.07178 3.29688H12V5.5719H5.07178V19.4284H18.9283V12.5001H21.2033V19.4284C21.2033 20.0581 20.9816 20.5947 20.5381 21.0382C20.0946 21.4817 19.558 21.7034 18.9283 21.7034H5.07178ZM9.88535 16.2001L8.30003 14.6148L17.343 5.5719H14V3.29688H21.2033V10.5001H18.9283V7.15723L9.88535 16.2001Z" fill="#6D6D6D"/>
</svg>
