<svg width="30" height="30" viewBox="0 0 30 30" fill="none" xmlns="http://www.w3.org/2000/svg">
<g clip-path="url(#clip0_204_8710)">
<path fill-rule="evenodd" clip-rule="evenodd" d="M14.5 2C7.59375 2 2 7.59375 2 14.5C2 20.0312 5.57812 24.7031 10.5469 26.3594C11.1719 26.4687 11.4062 26.0937 11.4062 25.7656C11.4062 25.4687 11.3906 24.4844 11.3906 23.4375C8.25 24.0156 7.4375 22.6719 7.1875 21.9687C7.04688 21.6094 6.4375 20.5 5.90625 20.2031C5.46875 19.9687 4.84375 19.3906 5.89062 19.375C6.875 19.3594 7.57812 20.2812 7.8125 20.6562C8.9375 22.5469 10.7344 22.0156 11.4531 21.6875C11.5625 20.875 11.8906 20.3281 12.25 20.0156C9.46875 19.7031 6.5625 18.625 6.5625 13.8437C6.5625 12.4844 7.04688 11.3594 7.84375 10.4844C7.71875 10.1719 7.28125 8.89062 7.96875 7.17187C7.96875 7.17187 9.01562 6.84375 11.4062 8.45312C12.4062 8.17187 13.4688 8.03125 14.5313 8.03125C15.5938 8.03125 16.6563 8.17187 17.6563 8.45312C20.0469 6.82812 21.0938 7.17187 21.0938 7.17187C21.7812 8.89062 21.3438 10.1719 21.2188 10.4844C22.0156 11.3594 22.5 12.4687 22.5 13.8437C22.5 18.6406 19.5781 19.7031 16.7969 20.0156C17.25 20.4062 17.6406 21.1562 17.6406 22.3281C17.6406 24 17.625 25.3437 17.625 25.7656C17.625 26.0937 17.8594 26.4844 18.4844 26.3594C23.4219 24.7031 27 20.0156 27 14.5C27 7.59375 21.4062 2 14.5 2Z" fill="#6D6D6D"/>
</g>
<defs>
<clipPath id="clip0_204_8710">
<rect width="25" height="25" fill="white" transform="translate(2 2)"/>
</clipPath>
</defs>
</svg>
