<svg width="26" height="25" viewBox="0 0 26 25" fill="none" xmlns="http://www.w3.org/2000/svg">
<path d="M12.01 20.1563H13.9197V18.7848C14.9845 18.5996 15.8063 18.2379 16.385 17.6998C16.9637 17.1616 17.253 16.4071 17.253 15.4361C17.253 14.5841 17.0215 13.8528 16.5586 13.2422C16.0956 12.6317 15.2423 12.0834 13.9986 11.5973C13.0027 11.2038 12.2718 10.8598 11.806 10.5653C11.3401 10.2708 11.1072 9.87379 11.1072 9.37419C11.1072 8.90601 11.2752 8.53737 11.6111 8.26827C11.9471 7.99918 12.4273 7.86463 13.0516 7.86463C13.6068 7.86463 14.0524 7.99773 14.3882 8.26393C14.724 8.53012 14.9903 8.9005 15.1871 9.37505L16.9232 8.61114C16.6743 7.94563 16.2953 7.39587 15.786 6.96184C15.2767 6.52781 14.672 6.27832 13.9718 6.21335V4.86116H12.0621V6.21533C11.1824 6.37736 10.4851 6.74314 9.97005 7.31268C9.455 7.88221 9.19747 8.56966 9.19747 9.37505C9.19747 10.2547 9.45645 10.9636 9.9744 11.5018C10.4923 12.04 11.2577 12.5058 12.2704 12.8993C13.4104 13.3565 14.2076 13.761 14.6619 14.1128C15.1162 14.4645 15.3433 14.905 15.3433 15.4341C15.3433 15.9477 15.1408 16.351 14.7357 16.6439C14.3306 16.9369 13.806 17.0834 13.1618 17.0834C12.5293 17.0834 11.9665 16.8924 11.4734 16.5105C10.9804 16.1285 10.6442 15.5845 10.4648 14.8785L8.65927 15.5035C8.96021 16.3832 9.38411 17.0863 9.93099 17.6129C10.4779 18.1395 11.1709 18.5076 12.01 18.7173V20.1563ZM12.9916 23.4723C11.487 23.4723 10.0676 23.1827 8.73359 22.6037C7.39957 22.0246 6.23787 21.2404 5.24852 20.2511C4.25918 19.2617 3.47497 18.0993 2.89591 16.7637C2.31687 15.4282 2.02734 14.007 2.02734 12.5C2.02734 10.9813 2.31738 9.55404 2.89745 8.21827C3.47753 6.88251 4.2642 5.7179 5.25745 4.72445C6.25069 3.73097 7.41271 2.94984 8.74349 2.38103C10.0743 1.81223 11.4904 1.52783 12.9919 1.52783C14.5112 1.52783 15.9405 1.81223 17.2798 2.38103C18.619 2.94984 19.7842 3.73109 20.7752 4.72478C21.7662 5.71848 22.5467 6.88421 23.1167 8.22197C23.6868 9.55975 23.9718 10.9892 23.9718 12.5102C23.9718 14.0196 23.6874 15.4375 23.1186 16.7637C22.5498 18.09 21.7686 19.2496 20.7752 20.2426C19.7817 21.2355 18.6162 22.0221 17.2788 22.6022C15.9413 23.1822 14.5123 23.4723 12.9916 23.4723ZM12.9996 21.2848C15.439 21.2848 17.513 20.4276 19.2215 18.7133C20.93 16.999 21.7843 14.9279 21.7843 12.5C21.7843 10.0606 20.93 7.9866 19.2215 6.27809C17.513 4.56957 15.439 3.71531 12.9996 3.71531C10.5717 3.71531 8.50058 4.56957 6.78628 6.27809C5.07197 7.9866 4.21482 10.0606 4.21482 12.5C4.21482 14.9279 5.07197 16.999 6.78628 18.7133C8.50058 20.4276 10.5717 21.2848 12.9996 21.2848Z" fill="#6D6D6D"/>
</svg>
