<svg width="26" height="25" viewBox="0 0 26 25" fill="none" xmlns="http://www.w3.org/2000/svg">
<path d="M21.29 22.309L14.5018 15.5208C13.9694 15.9549 13.3345 16.292 12.5971 16.5321C11.8598 16.7723 11.1025 16.8923 10.3254 16.8923C8.31037 16.8923 6.61322 16.2022 5.23395 14.822C3.85467 13.4418 3.16504 11.7592 3.16504 9.7743C3.16504 7.78935 3.85514 6.10677 5.23535 4.72656C6.61554 3.34635 8.29812 2.65625 10.2831 2.65625C12.268 2.65625 13.9506 3.34635 15.3308 4.72656C16.711 6.10677 17.4011 7.79022 17.4011 9.7769C17.4011 10.5449 17.2868 11.2818 17.0582 11.9878C16.8296 12.6939 16.4839 13.3478 16.0209 13.9497L22.8525 20.7465L21.29 22.309ZM10.2918 14.7049C11.672 14.7049 12.8373 14.2272 13.7879 13.2718C14.7384 12.3165 15.2136 11.1507 15.2136 9.7743C15.2136 8.39794 14.7389 7.23209 13.7894 6.27675C12.8399 5.32142 11.6745 4.84375 10.2933 4.84375C8.90241 4.84375 7.73123 5.32142 6.77975 6.27675C5.82826 7.23209 5.35251 8.39794 5.35251 9.7743C5.35251 11.1507 5.82826 12.3165 6.77975 13.2718C7.73123 14.2272 8.9019 14.7049 10.2918 14.7049Z" fill="#FAFAFA"/>
</svg>
