<svg width="24" height="24" viewBox="0 0 24 24" fill="none" xmlns="http://www.w3.org/2000/svg">
<g id="delete_FILL0_wght300_GRAD0_opsz24 1">
<path id="Vector" d="M7.30772 20.5C6.80901 20.5 6.38305 20.3234 6.02985 19.9702C5.67663 19.617 5.50002 19.191 5.50002 18.6923V6.00005H4.50002V4.50008H9V3.61548H15V4.50008H19.5V6.00005H18.5V18.6923C18.5 19.1975 18.325 19.625 17.975 19.975C17.625 20.325 17.1974 20.5 16.6923 20.5H7.30772ZM17 6.00005H7V18.6923C7 18.7821 7.02885 18.8558 7.08655 18.9135C7.14425 18.9712 7.21797 19.0001 7.30772 19.0001H16.6923C16.7692 19.0001 16.8397 18.968 16.9038 18.9039C16.9679 18.8398 17 18.7693 17 18.6923V6.00005ZM9.40387 17.0001H10.9038V8.00005H9.40387V17.0001ZM13.0961 17.0001H14.5961V8.00005H13.0961V17.0001Z" fill="#7D7A78"/>
</g>
</svg>
