<svg width="26" height="25" viewBox="0 0 26 25" fill="none" xmlns="http://www.w3.org/2000/svg">
<path d="M12.9997 12.2744C11.7327 12.2744 10.6869 11.862 9.86199 11.0371C9.03711 10.2122 8.62467 9.16634 8.62467 7.89941C8.62467 6.63249 9.03711 5.58659 9.86199 4.76173C10.6869 3.93685 11.7327 3.52441 12.9997 3.52441C14.2666 3.52441 15.3125 3.93685 16.1374 4.76173C16.9622 5.58659 17.3747 6.63249 17.3747 7.89941C17.3747 9.16634 16.9622 10.2122 16.1374 11.0371C15.3125 11.862 14.2666 12.2744 12.9997 12.2744ZM4.14551 21.8838V18.7501C4.14551 18.0383 4.31876 17.4173 4.66527 16.8872C5.01177 16.3571 5.46351 15.9538 6.02051 15.6772C7.20106 15.1101 8.36662 14.6876 9.51717 14.4098C10.6677 14.1321 11.828 13.9932 12.9981 13.9932C14.1681 13.9932 15.3261 14.1349 16.4719 14.4185C17.6177 14.7021 18.7805 15.1227 19.9601 15.6806C20.5322 15.9586 20.9908 16.3617 21.336 16.89C21.6812 17.4183 21.8538 18.0383 21.8538 18.7501V21.8838H4.14551ZM6.33301 19.6963H19.6663V18.7501C19.6663 18.5013 19.608 18.2774 19.4914 18.0787C19.3748 17.8799 19.2277 17.7391 19.05 17.6563C17.9794 17.1413 16.9537 16.7666 15.9728 16.5322C14.9919 16.2978 14.0008 16.1806 12.9997 16.1806C11.9985 16.1806 11.0046 16.2964 10.0179 16.5279C9.03122 16.7593 8.00836 17.1355 6.94934 17.6563C6.76415 17.7373 6.61513 17.8766 6.50228 18.074C6.38943 18.2715 6.33301 18.4969 6.33301 18.7501V19.6963ZM12.9997 10.0869C13.6247 10.0869 14.1455 9.87858 14.5622 9.46191C14.9788 9.04525 15.1872 8.52441 15.1872 7.89941C15.1872 7.27441 14.9788 6.75358 14.5622 6.33691C14.1455 5.92025 13.6247 5.71191 12.9997 5.71191C12.3747 5.71191 11.8538 5.92025 11.4372 6.33691C11.0205 6.75358 10.8122 7.27441 10.8122 7.89941C10.8122 8.52441 11.0205 9.04525 11.4372 9.46191C11.8538 9.87858 12.3747 10.0869 12.9997 10.0869Z" fill="#6D6D6D"/>
</svg>
