<svg width="44" height="23" viewBox="0 0 44 23" fill="none" xmlns="http://www.w3.org/2000/svg">
<path id="Vector" d="M11.004 14.2845C10.2346 14.2845 9.57747 14.0134 9.0326 13.4713C8.48777 12.9292 8.21535 12.2734 8.21535 11.5041C8.21535 10.7347 8.48642 10.0775 9.02855 9.53265C9.57068 8.98782 10.2264 8.7154 10.9958 8.7154C11.7652 8.7154 12.4223 8.98647 12.9672 9.5286C13.512 10.0707 13.7845 10.7265 13.7845 11.4959C13.7845 12.2653 13.5134 12.9224 12.9712 13.4673C12.4291 14.0121 11.7734 14.2845 11.004 14.2845ZM10.9999 22.4999C7.94863 22.4999 5.3525 21.4294 3.2115 19.2884C1.0705 17.1474 0 14.5512 0 11.5C0 8.44868 1.0705 5.85255 3.2115 3.71155C5.3525 1.57052 7.94863 0.5 10.9999 0.5C13.2589 0.5 15.2531 1.06667 16.9825 2.2C18.712 3.33333 20.0149 4.97308 20.8912 7.11925H39.0422L43.7882 11.8653L36.5729 18.5345L32.5769 15.6038L28.4654 18.573L24.9269 15.8807H20.896C20.1524 17.8037 18.9242 19.3877 17.2114 20.6326C15.4986 21.8775 13.4281 22.4999 10.9999 22.4999ZM10.9999 20.2307C12.9589 20.2307 14.7198 19.5955 16.2826 18.325C17.8454 17.0544 18.8461 15.4833 19.2846 13.6115H25.7577L28.4961 15.7461L32.6269 12.8077L36.4192 15.6769L40.5153 11.7846L38.1192 9.3884H19.2884C18.9012 7.6115 17.9377 6.06407 16.3979 4.7461C14.8581 3.42817 13.0604 2.7692 11.0049 2.7692C8.5785 2.7692 6.51593 3.61753 4.8172 5.3142C3.1185 7.01087 2.26915 9.07177 2.26915 11.4969C2.26915 13.922 3.11778 15.9839 4.81505 17.6827C6.51232 19.3814 8.57393 20.2307 10.9999 20.2307Z" fill="#0D0D0D"/>
</svg>
