<svg width="16" height="16" viewBox="0 0 16 16" fill="none" xmlns="http://www.w3.org/2000/svg">
<path d="M8.0001 14.4C7.12232 14.4 6.29454 14.2333 5.51676 13.9C4.73899 13.5666 4.05843 13.1083 3.4751 12.525C2.89176 11.9416 2.43343 11.2611 2.1001 10.4833C1.76676 9.70553 1.6001 8.87775 1.6001 7.99998C1.6001 7.11109 1.76676 6.28053 2.1001 5.50831C2.43343 4.73609 2.89176 4.05831 3.4751 3.47498C4.05843 2.89164 4.73899 2.43331 5.51676 2.09998C6.29454 1.76664 7.12232 1.59998 8.0001 1.59998C8.88899 1.59998 9.71954 1.76664 10.4918 2.09998C11.264 2.43331 11.9418 2.89164 12.5251 3.47498C13.1084 4.05831 13.5668 4.73609 13.9001 5.50831C14.2334 6.28053 14.4001 7.11109 14.4001 7.99998C14.4001 8.87775 14.2334 9.70553 13.9001 10.4833C13.5668 11.2611 13.1084 11.9416 12.5251 12.525C11.9418 13.1083 11.264 13.5666 10.4918 13.9C9.71954 14.2333 8.88899 14.4 8.0001 14.4ZM8.0001 13.15C8.18899 12.9611 8.37788 12.6083 8.56676 12.0916C8.75565 11.575 8.9001 11.0111 9.0001 10.4H7.0001C7.1001 11.0111 7.24454 11.575 7.43343 12.0916C7.62232 12.6083 7.81121 12.9611 8.0001 13.15ZM6.48343 12.9833C6.32788 12.65 6.19176 12.2666 6.0751 11.8333C5.95843 11.4 5.86121 10.9222 5.78343 10.4H3.4001C3.72232 11.0333 4.1501 11.575 4.68343 12.025C5.21676 12.475 5.81676 12.7944 6.48343 12.9833ZM9.51676 12.9833C10.1834 12.7944 10.7834 12.475 11.3168 12.025C11.8501 11.575 12.2779 11.0333 12.6001 10.4H10.2168C10.139 10.9222 10.0418 11.4 9.9251 11.8333C9.80843 12.2666 9.67232 12.65 9.51676 12.9833ZM2.9501 9.19998H5.63343C5.61121 8.98886 5.59732 8.78053 5.59176 8.57498C5.58621 8.36942 5.58343 8.16664 5.58343 7.96664C5.58343 7.76664 5.58621 7.56942 5.59176 7.37498C5.59732 7.18053 5.61121 6.98886 5.63343 6.79998H2.9501C2.89454 7.01109 2.85565 7.21386 2.83343 7.40831C2.81121 7.60275 2.8001 7.79998 2.8001 7.99998C2.8001 8.19998 2.81121 8.3972 2.83343 8.59164C2.85565 8.78609 2.89454 8.98886 2.9501 9.19998ZM6.8501 9.19998H9.1501C9.17232 8.97775 9.18621 8.76942 9.19176 8.57498C9.19732 8.38053 9.2001 8.18886 9.2001 7.99998C9.2001 7.81109 9.19732 7.61664 9.19176 7.41664C9.18621 7.21664 9.17232 7.01109 9.1501 6.79998H6.8501C6.82788 7.01109 6.81399 7.21664 6.80843 7.41664C6.80288 7.61664 6.8001 7.81109 6.8001 7.99998C6.8001 8.18886 6.80288 8.38331 6.80843 8.58331C6.81399 8.78331 6.82788 8.98886 6.8501 9.19998ZM10.3668 9.19998H13.0501C13.1057 8.98886 13.1445 8.78609 13.1668 8.59164C13.189 8.3972 13.2001 8.19998 13.2001 7.99998C13.2001 7.79998 13.189 7.59998 13.1668 7.39998C13.1445 7.19998 13.1057 6.99998 13.0501 6.79998H10.3668C10.389 7.01109 10.4029 7.21942 10.4084 7.42498C10.414 7.63053 10.4168 7.83331 10.4168 8.03331C10.4168 8.23331 10.414 8.43053 10.4084 8.62498C10.4029 8.81942 10.389 9.01109 10.3668 9.19998ZM10.2168 5.59998H12.6001C12.2779 4.96664 11.8501 4.42498 11.3168 3.97498C10.7834 3.52498 10.1834 3.20553 9.51676 3.01664C9.67232 3.34998 9.80843 3.73331 9.9251 4.16664C10.0418 4.59998 10.139 5.07775 10.2168 5.59998ZM7.0001 5.59998H9.0001C8.9001 4.98886 8.75565 4.42498 8.56676 3.90831C8.37788 3.39164 8.18899 3.03886 8.0001 2.84998C7.81121 3.03886 7.62232 3.39164 7.43343 3.90831C7.24454 4.42498 7.1001 4.98886 7.0001 5.59998ZM3.4001 5.59998H5.78343C5.86121 5.07775 5.95843 4.59998 6.0751 4.16664C6.19176 3.73331 6.32788 3.34998 6.48343 3.01664C5.81676 3.20553 5.21676 3.52498 4.68343 3.97498C4.1501 4.42498 3.72232 4.96664 3.4001 5.59998Z" fill="#0D0D0D"/>
</svg>
