<svg width="100" height="100" viewBox="0 0 100 100" fill="none" xmlns="http://www.w3.org/2000/svg">
<g filter="url(#filter0_ddiif_204_10806)">
<rect x="5" y="5" width="80" height="80" rx="16" fill="#FAFAFA" shape-rendering="crispEdges"/>
<rect x="5" y="5" width="80" height="80" rx="16" fill="url(#paint0_linear_204_10806)" shape-rendering="crispEdges"/>
<path d="M36.3369 55.1553C33.4596 55.1553 31.0139 54.1482 28.9997 52.1341C26.9856 50.12 25.9785 47.6742 25.9785 44.7969C25.9785 41.9196 26.9856 39.4738 28.9997 37.4597C31.0139 35.4455 33.4596 34.4385 36.3369 34.4385C38.6676 34.4385 40.7036 35.0928 42.4449 36.4014C44.1863 37.71 45.4017 39.3576 46.0911 41.3441H63.9594V48.2497H60.5066V55.1553H53.601V48.2497H46.0911C45.4005 50.2351 44.1846 51.8826 42.4432 53.1924C40.7019 54.5022 38.6664 55.1565 36.3369 55.1553ZM36.3369 48.2497C37.2865 48.2497 38.0996 47.9113 38.7763 47.2346C39.4531 46.5578 39.7909 45.7453 39.7897 44.7969C39.7897 43.8474 39.4514 43.0342 38.7746 42.3575C38.0979 41.6807 37.2853 41.3429 36.3369 41.3441C35.3874 41.3441 34.5743 41.6825 33.8975 42.3592C33.2208 43.036 32.883 43.8485 32.8841 44.7969C32.8841 45.7464 33.2225 46.5596 33.8993 47.2363C34.576 47.9131 35.3886 48.2509 36.3369 48.2497Z" fill="black"/>
<line x1="24.5841" y1="23.1698" x2="66.8302" y2="65.4159" stroke="#0D0D0D" stroke-width="2"/>
<line x1="35.6837" y1="34.2699" x2="48.6825" y2="47.2687" stroke="white" stroke-width="2"/>
</g>
<defs>
<filter id="filter0_ddiif_204_10806" x="0" y="0" width="100" height="100" filterUnits="userSpaceOnUse" color-interpolation-filters="sRGB">
<feFlood flood-opacity="0" result="BackgroundImageFix"/>
<feColorMatrix in="SourceAlpha" type="matrix" values="0 0 0 0 0 0 0 0 0 0 0 0 0 0 0 0 0 0 127 0" result="hardAlpha"/>
<feOffset dx="5" dy="5"/>
<feGaussianBlur stdDeviation="5"/>
<feComposite in2="hardAlpha" operator="out"/>
<feColorMatrix type="matrix" values="0 0 0 0 0.698039 0 0 0 0 0.658824 0 0 0 0 0.647059 0 0 0 0.2 0"/>
<feBlend mode="normal" in2="BackgroundImageFix" result="effect1_dropShadow_204_10806"/>
<feColorMatrix in="SourceAlpha" type="matrix" values="0 0 0 0 0 0 0 0 0 0 0 0 0 0 0 0 0 0 127 0" result="hardAlpha"/>
<feOffset dx="1" dy="1"/>
<feGaussianBlur stdDeviation="1.5"/>
<feComposite in2="hardAlpha" operator="out"/>
<feColorMatrix type="matrix" values="0 0 0 0 0.964706 0 0 0 0 0.952941 0 0 0 0 0.94902 0 0 0 0.3 0"/>
<feBlend mode="normal" in2="effect1_dropShadow_204_10806" result="effect2_dropShadow_204_10806"/>
<feBlend mode="normal" in="SourceGraphic" in2="effect2_dropShadow_204_10806" result="shape"/>
<feColorMatrix in="SourceAlpha" type="matrix" values="0 0 0 0 0 0 0 0 0 0 0 0 0 0 0 0 0 0 127 0" result="hardAlpha"/>
<feOffset dx="-1" dy="-1"/>
<feComposite in2="hardAlpha" operator="arithmetic" k2="-1" k3="1"/>
<feColorMatrix type="matrix" values="0 0 0 0 0.698039 0 0 0 0 0.658824 0 0 0 0 0.647059 0 0 0 0.5 0"/>
<feBlend mode="normal" in2="shape" result="effect3_innerShadow_204_10806"/>
<feColorMatrix in="SourceAlpha" type="matrix" values="0 0 0 0 0 0 0 0 0 0 0 0 0 0 0 0 0 0 127 0" result="hardAlpha"/>
<feOffset dx="1.5" dy="1.5"/>
<feComposite in2="hardAlpha" operator="arithmetic" k2="-1" k3="1"/>
<feColorMatrix type="matrix" values="0 0 0 0 1 0 0 0 0 1 0 0 0 0 1 0 0 0 1 0"/>
<feBlend mode="normal" in2="effect3_innerShadow_204_10806" result="effect4_innerShadow_204_10806"/>
<feGaussianBlur stdDeviation="0.5" result="effect5_foregroundBlur_204_10806"/>
</filter>
<linearGradient id="paint0_linear_204_10806" x1="85" y1="5" x2="-0.66948" y2="13.2375" gradientUnits="userSpaceOnUse">
<stop stop-color="#FAFAFA"/>
<stop offset="1" stop-color="#FAFAFA" stop-opacity="0"/>
</linearGradient>
</defs>
</svg>
