<svg width="100" height="100" viewBox="0 0 100 100" fill="none" xmlns="http://www.w3.org/2000/svg">
<g filter="url(#filter0_ddiif_204_10803)">
<rect x="5" y="5" width="80" height="80" rx="40" fill="#FAFAFA" shape-rendering="crispEdges"/>
<rect x="5" y="5" width="80" height="80" rx="40" fill="url(#paint0_linear_204_10803)" shape-rendering="crispEdges"/>
<path d="M45 53.75C45.9283 53.75 46.8185 53.3813 47.4749 52.7249C48.1313 52.0685 48.5 51.1783 48.5 50.25C48.5 49.3217 48.1313 48.4315 47.4749 47.7751C46.8185 47.1187 45.9283 46.75 45 46.75C44.0717 46.75 43.1815 47.1187 42.5251 47.7751C41.8687 48.4315 41.5 49.3217 41.5 50.25C41.5 51.1783 41.8687 52.0685 42.5251 52.7249C43.1815 53.3813 44.0717 53.75 45 53.75ZM55.5 38C56.4283 38 57.3185 38.3687 57.9749 39.0251C58.6313 39.6815 59 40.5717 59 41.5V59C59 59.9283 58.6313 60.8185 57.9749 61.4749C57.3185 62.1312 56.4283 62.5 55.5 62.5H34.5C33.5717 62.5 32.6815 62.1312 32.0251 61.4749C31.3687 60.8185 31 59.9283 31 59V41.5C31 40.5717 31.3687 39.6815 32.0251 39.0251C32.6815 38.3687 33.5717 38 34.5 38H36.25V34.5C36.25 32.1794 37.1719 29.9538 38.8128 28.3128C40.4538 26.6719 42.6794 25.75 45 25.75C46.1491 25.75 47.2869 25.9763 48.3485 26.4161C49.4101 26.8558 50.3747 27.5003 51.1872 28.3128C51.9997 29.1253 52.6442 30.0899 53.0839 31.1515C53.5237 32.2131 53.75 33.3509 53.75 34.5V38H55.5ZM45 29.25C43.6076 29.25 42.2723 29.8031 41.2877 30.7877C40.3031 31.7723 39.75 33.1076 39.75 34.5V38H50.25V34.5C50.25 33.1076 49.6969 31.7723 48.7123 30.7877C47.7277 29.8031 46.3924 29.25 45 29.25Z" fill="black"/>
</g>
<defs>
<filter id="filter0_ddiif_204_10803" x="0" y="0" width="100" height="100" filterUnits="userSpaceOnUse" color-interpolation-filters="sRGB">
<feFlood flood-opacity="0" result="BackgroundImageFix"/>
<feColorMatrix in="SourceAlpha" type="matrix" values="0 0 0 0 0 0 0 0 0 0 0 0 0 0 0 0 0 0 127 0" result="hardAlpha"/>
<feOffset dx="5" dy="5"/>
<feGaussianBlur stdDeviation="5"/>
<feComposite in2="hardAlpha" operator="out"/>
<feColorMatrix type="matrix" values="0 0 0 0 0.698039 0 0 0 0 0.658824 0 0 0 0 0.647059 0 0 0 0.2 0"/>
<feBlend mode="normal" in2="BackgroundImageFix" result="effect1_dropShadow_204_10803"/>
<feColorMatrix in="SourceAlpha" type="matrix" values="0 0 0 0 0 0 0 0 0 0 0 0 0 0 0 0 0 0 127 0" result="hardAlpha"/>
<feOffset dx="1" dy="1"/>
<feGaussianBlur stdDeviation="1.5"/>
<feComposite in2="hardAlpha" operator="out"/>
<feColorMatrix type="matrix" values="0 0 0 0 0.964706 0 0 0 0 0.952941 0 0 0 0 0.94902 0 0 0 0.3 0"/>
<feBlend mode="normal" in2="effect1_dropShadow_204_10803" result="effect2_dropShadow_204_10803"/>
<feBlend mode="normal" in="SourceGraphic" in2="effect2_dropShadow_204_10803" result="shape"/>
<feColorMatrix in="SourceAlpha" type="matrix" values="0 0 0 0 0 0 0 0 0 0 0 0 0 0 0 0 0 0 127 0" result="hardAlpha"/>
<feOffset dx="-1" dy="-1"/>
<feComposite in2="hardAlpha" operator="arithmetic" k2="-1" k3="1"/>
<feColorMatrix type="matrix" values="0 0 0 0 0.698039 0 0 0 0 0.658824 0 0 0 0 0.647059 0 0 0 0.5 0"/>
<feBlend mode="normal" in2="shape" result="effect3_innerShadow_204_10803"/>
<feColorMatrix in="SourceAlpha" type="matrix" values="0 0 0 0 0 0 0 0 0 0 0 0 0 0 0 0 0 0 127 0" result="hardAlpha"/>
<feOffset dx="1.5" dy="1.5"/>
<feComposite in2="hardAlpha" operator="arithmetic" k2="-1" k3="1"/>
<feColorMatrix type="matrix" values="0 0 0 0 1 0 0 0 0 1 0 0 0 0 1 0 0 0 1 0"/>
<feBlend mode="normal" in2="effect3_innerShadow_204_10803" result="effect4_innerShadow_204_10803"/>
<feGaussianBlur stdDeviation="0.5" result="effect5_foregroundBlur_204_10803"/>
</filter>
<linearGradient id="paint0_linear_204_10803" x1="85" y1="5" x2="-0.66948" y2="13.2375" gradientUnits="userSpaceOnUse">
<stop stop-color="#FAFAFA"/>
<stop offset="1" stop-color="#FAFAFA" stop-opacity="0"/>
</linearGradient>
</defs>
</svg>
