<svg width="100" height="100" viewBox="0 0 100 100" fill="none" xmlns="http://www.w3.org/2000/svg">
<g filter="url(#filter0_ddiif_204_10787)">
<rect x="5" y="5" width="80" height="80" rx="40" fill="#FAFAFA" shape-rendering="crispEdges"/>
<rect x="5" y="5" width="80" height="80" rx="40" fill="url(#paint0_linear_204_10787)" shape-rendering="crispEdges"/>
<path d="M27.623 28.8882C27.623 26.9552 29.1901 25.3882 31.123 25.3882H58.8762C60.8092 25.3882 62.3762 26.9552 62.3762 28.8882V53.5836C62.3762 54.9093 61.6272 56.1212 60.4414 56.7141L46.5649 63.6524C45.5795 64.1451 44.4197 64.1451 43.4344 63.6524L29.5578 56.7141C28.3721 56.1213 27.623 54.9093 27.623 53.5836V28.8882Z" fill="#0D0D0D" stroke="#0D0D0D" stroke-width="3"/>
<path d="M49.0083 39.5934V37.1189C49.0083 34.7823 47.1141 32.8882 44.7776 32.8882V32.8882C42.441 32.8882 40.5469 34.7823 40.5469 37.1189V39.5934" stroke="white" stroke-width="2"/>
<rect x="38.6797" y="42.522" width="12.2235" height="9.93996" fill="white" stroke="white" stroke-width="3"/>
<path d="M42.123 47.204L43.9008 48.8882L48.123 44.8882" stroke="#0D0D0D" stroke-width="2"/>
</g>
<defs>
<filter id="filter0_ddiif_204_10787" x="0" y="0" width="100" height="100" filterUnits="userSpaceOnUse" color-interpolation-filters="sRGB">
<feFlood flood-opacity="0" result="BackgroundImageFix"/>
<feColorMatrix in="SourceAlpha" type="matrix" values="0 0 0 0 0 0 0 0 0 0 0 0 0 0 0 0 0 0 127 0" result="hardAlpha"/>
<feOffset dx="5" dy="5"/>
<feGaussianBlur stdDeviation="5"/>
<feComposite in2="hardAlpha" operator="out"/>
<feColorMatrix type="matrix" values="0 0 0 0 0.698039 0 0 0 0 0.658824 0 0 0 0 0.647059 0 0 0 0.2 0"/>
<feBlend mode="normal" in2="BackgroundImageFix" result="effect1_dropShadow_204_10787"/>
<feColorMatrix in="SourceAlpha" type="matrix" values="0 0 0 0 0 0 0 0 0 0 0 0 0 0 0 0 0 0 127 0" result="hardAlpha"/>
<feOffset dx="1" dy="1"/>
<feGaussianBlur stdDeviation="1.5"/>
<feComposite in2="hardAlpha" operator="out"/>
<feColorMatrix type="matrix" values="0 0 0 0 0.964706 0 0 0 0 0.952941 0 0 0 0 0.94902 0 0 0 0.3 0"/>
<feBlend mode="normal" in2="effect1_dropShadow_204_10787" result="effect2_dropShadow_204_10787"/>
<feBlend mode="normal" in="SourceGraphic" in2="effect2_dropShadow_204_10787" result="shape"/>
<feColorMatrix in="SourceAlpha" type="matrix" values="0 0 0 0 0 0 0 0 0 0 0 0 0 0 0 0 0 0 127 0" result="hardAlpha"/>
<feOffset dx="-1" dy="-1"/>
<feComposite in2="hardAlpha" operator="arithmetic" k2="-1" k3="1"/>
<feColorMatrix type="matrix" values="0 0 0 0 0.698039 0 0 0 0 0.658824 0 0 0 0 0.647059 0 0 0 0.5 0"/>
<feBlend mode="normal" in2="shape" result="effect3_innerShadow_204_10787"/>
<feColorMatrix in="SourceAlpha" type="matrix" values="0 0 0 0 0 0 0 0 0 0 0 0 0 0 0 0 0 0 127 0" result="hardAlpha"/>
<feOffset dx="1.5" dy="1.5"/>
<feComposite in2="hardAlpha" operator="arithmetic" k2="-1" k3="1"/>
<feColorMatrix type="matrix" values="0 0 0 0 1 0 0 0 0 1 0 0 0 0 1 0 0 0 1 0"/>
<feBlend mode="normal" in2="effect3_innerShadow_204_10787" result="effect4_innerShadow_204_10787"/>
<feGaussianBlur stdDeviation="0.5" result="effect5_foregroundBlur_204_10787"/>
</filter>
<linearGradient id="paint0_linear_204_10787" x1="85" y1="5" x2="-0.66948" y2="13.2375" gradientUnits="userSpaceOnUse">
<stop stop-color="#FAFAFA"/>
<stop offset="1" stop-color="#FAFAFA" stop-opacity="0"/>
</linearGradient>
</defs>
</svg>
