<svg width="22" height="24" viewBox="0 0 22 24" fill="none" xmlns="http://www.w3.org/2000/svg">
<g clip-path="url(#clip0_4866_1597)">
<path d="M1.17535 7.298V16.7103C1.17535 17.3075 1.49384 17.8648 2.01706 18.1606L10.1611 22.8639C10.6787 23.1653 11.3213 23.1653 11.8389 22.8639L19.9886 18.1606C20.5062 17.8591 20.8303 17.3075 20.8303 16.7103V7.298C20.8303 6.70084 20.5118 6.14349 19.9886 5.84207L11.8389 1.13876C11.3213 0.837334 10.6787 0.837334 10.1611 1.13876L2.01137 5.84207C1.49952 6.14349 1.17535 6.69515 1.17535 7.298Z" fill="#213147"/>
<path d="M12.7829 13.8269L11.6171 17.0117C11.5829 17.097 11.5829 17.1994 11.6171 17.2847L13.6133 22.7672L15.928 21.4307L13.1526 13.8212C13.09 13.6506 12.8455 13.6506 12.7829 13.8269Z" fill="#12AAFF"/>
<path d="M15.109 8.46386C15.0464 8.28756 14.8019 8.28756 14.7336 8.46386L13.5678 11.6487C13.5336 11.7397 13.5336 11.8364 13.5678 11.9217L16.8436 20.9018L19.1583 19.5653L15.109 8.46386Z" fill="#12AAFF"/>
<path d="M11.0028 1.48567C11.0597 1.48567 11.1166 1.50273 11.1678 1.53117L19.9829 6.62122C20.0853 6.67809 20.1479 6.78615 20.1479 6.90558V17.0857C20.1479 17.2051 20.0853 17.3132 19.9829 17.37L11.1678 22.4658C11.1166 22.4942 11.0597 22.5113 11.0028 22.5113C10.946 22.5113 10.8891 22.4942 10.8379 22.4658L2.02274 17.3757C1.92037 17.3188 1.85781 17.2108 1.85781 17.0914V6.90558C1.85781 6.78615 1.92037 6.67809 2.02274 6.62122L10.8379 1.53117C10.8891 1.50273 10.946 1.48567 11.0028 1.48567ZM11.0028 0.00131226C10.69 0.00131226 10.3716 0.0866203 10.0929 0.245862L1.27772 5.33591C0.720374 5.66008 0.367767 6.25724 0.367767 6.90558V17.0857C0.367767 17.734 0.714687 18.3369 1.27772 18.661L10.0929 23.7511C10.3716 23.916 10.6844 23.9956 11.0028 23.9956C11.3213 23.9956 11.6341 23.9103 11.9128 23.7511L20.728 18.661C21.291 18.3369 21.6379 17.7397 21.6379 17.0857V6.90558C21.6379 6.25724 21.291 5.65439 20.728 5.33022L11.9128 0.245862C11.6284 0.0866203 11.3156 0.00131226 11.0028 0.00131226Z" fill="#9DCCED"/>
<path d="M5.17346 20.9132L5.98673 18.6952L7.61327 20.0487L6.09479 21.4421L5.17346 20.9132Z" fill="#213147"/>
<path d="M10.2578 6.18329H8.02275C7.85782 6.18329 7.70426 6.28566 7.64739 6.4449L2.85876 19.5823L5.17346 20.9188L10.4512 6.45059C10.4967 6.31978 10.4 6.18329 10.2578 6.18329Z" fill="white"/>
<path d="M14.1706 6.18329H11.9355C11.7706 6.18329 11.6171 6.28566 11.5602 6.4449L6.09479 21.4421L8.40948 22.7785L14.3583 6.45059C14.4095 6.31978 14.3071 6.18329 14.1706 6.18329Z" fill="white"/>
</g>
<defs>
<clipPath id="clip0_4866_1597">
<rect width="21.2645" height="24" fill="white" transform="translate(0.367767 0.00131226)"/>
</clipPath>
</defs>
</svg>
