<svg width="24" height="24" viewBox="0 0 24 24" fill="none" xmlns="http://www.w3.org/2000/svg">
<g clip-path="url(#clip0_4866_1637)">
<g clip-path="url(#clip1_4866_1637)">
<path d="M12 24.0092C14.3734 24.0092 16.6934 23.3054 18.6668 21.9868C20.6402 20.6682 22.1783 18.7941 23.0866 16.6014C23.9948 14.4087 24.2324 11.9959 23.7695 9.66814C23.3064 7.34033 22.1635 5.20214 20.4853 3.52391C18.8071 1.84568 16.6688 0.70279 14.3411 0.239768C12.0133 -0.223255 9.60052 0.0143853 7.40779 0.922633C5.21509 1.83089 3.34094 3.36896 2.02237 5.34235C0.703788 7.31574 0 9.63581 0 12.0092C0 15.1918 1.26428 18.244 3.51472 20.4945C5.76515 22.7449 8.81738 24.0092 12 24.0092Z" fill="#0052FF"/>
<path d="M11.9718 20.4599C16.639 20.4599 20.4225 16.6764 20.4225 12.0092C20.4225 7.34201 16.639 3.5585 11.9718 3.5585C7.5441 3.5585 3.91172 6.96365 3.55057 11.298H16.0908V12.7053H3.54932C3.90326 17.0469 7.53893 20.4599 11.9718 20.4599Z" fill="white"/>
</g>
</g>
<defs>
<clipPath id="clip0_4866_1637">
<rect width="24" height="24" fill="white" transform="translate(0 0.00918579)"/>
</clipPath>
<clipPath id="clip1_4866_1637">
<rect width="24" height="24" fill="white" transform="translate(0 0.00918579)"/>
</clipPath>
</defs>
</svg>
