<svg width="24" height="25" viewBox="0 0 24 25" fill="none" xmlns="http://www.w3.org/2000/svg">
<g clip-path="url(#clip0_4866_1656)">
<path d="M24 12.0118C24 18.6392 18.6274 24.0118 12 24.0118C5.37258 24.0118 0 18.6392 0 12.0118C0 5.38439 5.37258 0.0118103 12 0.0118103C18.6274 0.0118103 24 5.38439 24 12.0118Z" fill="#0D0D0D"/>
<path d="M18.6351 8.9231C18.1408 8.42781 17.5483 8.0643 16.9016 7.84843C16.94 8.08766 16.9605 8.32876 16.9624 8.57079C16.9643 8.739 16.9577 8.90721 16.9428 9.07542C16.9222 9.30437 16.8858 9.53238 16.8325 9.75666C17.0306 9.87161 17.2138 10.0127 17.3801 10.1781C17.8838 10.6818 18.1613 11.3518 18.1613 12.0649C18.1613 12.7779 17.8838 13.4479 17.3801 13.9516C17.2147 14.117 17.0306 14.2581 16.8334 14.3721C16.6961 14.4534 16.5512 14.5207 16.4008 14.5749C16.3681 14.4207 16.3279 14.2693 16.2793 14.1207C16.0728 13.4872 15.7233 12.9059 15.2495 12.4153L15.2308 12.3966H15.2298L14.7682 12.8592H14.7673L14.4374 13.1891L13.9748 13.6516L13.9935 13.6713C14.001 13.6787 14.0085 13.6871 14.0159 13.6956C14.0159 13.6965 14.0169 13.6965 14.0169 13.6965C14.2524 13.9507 14.4327 14.2441 14.5514 14.5618C14.2346 14.4431 13.9412 14.2637 13.687 14.0282C13.6861 14.0282 13.6861 14.0273 13.6851 14.0264C13.6702 14.0133 13.6552 13.9993 13.6412 13.9852L13.1786 14.4478L12.8488 14.7777L12.3852 15.2412C12.8796 15.7253 13.4693 16.0804 14.1122 16.2897C14.2608 16.3383 14.4122 16.3785 14.5664 16.4103C14.5122 16.5607 14.4449 16.7065 14.3636 16.8439C14.2486 17.042 14.1075 17.2251 13.9421 17.3915C13.4384 17.8952 12.7684 18.1727 12.0554 18.1727C11.3424 18.1727 10.6723 17.8952 10.1686 17.3915C10.0032 17.2261 9.86211 17.042 9.74811 16.8448H9.74717C9.6668 16.7065 9.59859 16.5616 9.54439 16.4103C9.47056 16.2056 9.42197 15.9916 9.40047 15.7711C9.39206 15.6832 9.38739 15.5944 9.38739 15.5047C9.38739 15.4337 9.39019 15.3636 9.39674 15.2935C9.41543 15.0403 9.46963 14.7945 9.55934 14.5618C9.67802 14.2422 9.86024 13.9479 10.0985 13.6918C10.0985 13.6918 10.0992 13.6912 10.1004 13.6899L10.1023 13.6881C10.1126 13.6759 10.1238 13.6638 10.1359 13.6526C10.1462 13.6404 10.1574 13.6292 10.1686 13.618L10.4658 13.3218L10.9284 12.8582L11.2582 12.5284L11.7208 12.0658L11.7246 12.063L12.0516 11.735L12.0544 11.7322L12.517 11.2696L12.8478 10.9388L13.6076 10.1791H13.6066C13.6178 10.1669 13.6291 10.1566 13.6403 10.1454C13.6412 10.1435 13.6431 10.1426 13.6449 10.1417C13.6496 10.1361 13.6552 10.1305 13.6608 10.1258C13.6683 10.1183 13.6767 10.1108 13.6851 10.1034C13.6851 10.1024 13.687 10.1015 13.6879 10.1006C13.9776 9.78096 14.1552 9.39595 14.2215 8.99505C14.2514 8.82684 14.2598 8.65583 14.2477 8.48575C14.2346 8.26615 14.1888 8.04841 14.1084 7.84095C13.4758 8.04747 12.8945 8.39604 12.4049 8.87076L12.3852 8.89039L12.0554 9.2212L11.5928 9.68377L11.262 10.0146L10.7994 10.4772L10.7966 10.48L10.4686 10.807L10.4658 10.8108L10.0032 11.2733H10.0023L9.67335 11.6032L9.20984 12.0658L8.91267 12.363C8.90145 12.3742 8.89024 12.3854 8.87996 12.3966C8.39496 12.891 8.03985 13.4797 7.83146 14.1217C7.78287 14.2703 7.74175 14.4226 7.70998 14.5768C7.66419 14.7926 7.63428 15.0123 7.62213 15.2356C7.61653 15.3253 7.61372 15.415 7.61372 15.5047C7.61372 15.5767 7.61559 15.6496 7.61933 15.7215C7.62961 15.9561 7.65951 16.1878 7.70624 16.4149C7.74081 16.5841 7.78567 16.7513 7.83987 16.9139C8.0548 17.5606 8.41832 18.1521 8.91267 18.6465C9.75091 19.4847 10.8667 19.9464 12.0554 19.9464C13.244 19.9464 14.3598 19.4847 15.1971 18.6465C15.6924 18.1521 16.0559 17.5597 16.2709 16.913H16.2718C16.3251 16.7504 16.3699 16.5831 16.4045 16.414C16.5736 16.3794 16.7409 16.3346 16.9035 16.2804C17.5493 16.0654 18.1408 15.7019 18.6351 15.2076C19.4734 14.3693 19.935 13.2535 19.935 12.0649C19.935 10.8762 19.4734 9.7604 18.6351 8.9231ZM13.1983 9.66321L13.1786 9.68377H13.1777C13.1842 9.6763 13.1908 9.66975 13.1983 9.66321ZM12.8478 9.35296L12.8151 9.3866H12.8142C12.8254 9.37446 12.8366 9.36324 12.8478 9.35296Z" fill="url(#paint0_linear_4866_1656)"/>
<path d="M16.4914 8.40963C16.4793 8.17694 16.4503 7.94519 16.4026 7.71624C16.3671 7.54803 16.3232 7.38169 16.2681 7.21815C16.0569 6.58363 15.6999 5.98836 15.1962 5.48467C14.3589 4.64736 13.2422 4.18572 12.0545 4.18572C10.8667 4.18572 9.74999 4.64736 8.91175 5.48467C8.41741 5.97995 8.05295 6.57242 7.83896 7.21909C7.78475 7.38169 7.7399 7.54896 7.70532 7.71811C7.53711 7.75268 7.36984 7.79754 7.2063 7.85267C6.57178 8.06293 5.97651 8.41991 5.47282 8.9236C4.63458 9.76184 4.17387 10.8776 4.17387 12.0663C4.17387 13.255 4.63458 14.3708 5.47282 15.2081C5.9681 15.7033 6.56057 16.0669 7.20724 16.2818C7.16986 16.0454 7.1493 15.8043 7.14743 15.5604C7.1465 15.5417 7.1465 15.5239 7.1465 15.5052C7.1465 15.3538 7.15304 15.2043 7.16612 15.0557C7.18761 14.8249 7.22406 14.5969 7.27732 14.3745C7.07921 14.2605 6.89512 14.1194 6.72878 13.953C5.68775 12.913 5.68775 11.2197 6.72878 10.1796C6.89418 10.0142 7.07828 9.87305 7.27546 9.75904C7.41283 9.67774 7.55861 9.60952 7.70906 9.55625C7.74177 9.71045 7.78289 9.86183 7.83148 10.0104C8.03707 10.644 8.38563 11.2253 8.85942 11.7159L8.87905 11.7364H8.87998L9.34162 11.2739H9.34255L9.67243 10.943L10.135 10.4805L10.1247 10.4702L10.1144 10.4599H10.1154C10.106 10.4506 10.0986 10.4422 10.0911 10.4337C10.0901 10.4337 10.0901 10.4328 10.0892 10.4319C9.85279 10.174 9.67523 9.88146 9.55936 9.57027C9.87708 9.68989 10.1715 9.87118 10.4266 10.1085C10.4284 10.1085 10.4294 10.1104 10.4303 10.1123C10.4434 10.1226 10.4555 10.1347 10.4677 10.1478L11.7246 8.89089C11.2209 8.39748 10.6284 8.04892 9.99763 7.84333C9.84905 7.79473 9.69766 7.75455 9.54534 7.72278C9.59767 7.57326 9.66495 7.42841 9.74625 7.28917C9.85933 7.09293 10.0004 6.9079 10.1677 6.74063C11.2078 5.6996 12.9002 5.6996 13.9412 6.74063C14.1085 6.9079 14.2486 7.09293 14.3617 7.28824C14.443 7.42748 14.5103 7.57233 14.5626 7.72091C14.6383 7.92743 14.686 8.14237 14.7075 8.35917C14.7234 8.51803 14.7252 8.67783 14.7131 8.83669C14.6935 9.0862 14.6393 9.33291 14.5495 9.56934C14.4337 9.88052 14.2571 10.174 14.0197 10.4319C14.0197 10.4319 14.0194 10.4322 14.0188 10.4328C14.0047 10.4487 13.9898 10.4646 13.9739 10.4795C13.9636 10.4917 13.9524 10.5029 13.9412 10.5141L13.645 10.8113L13.1824 11.2739L12.8516 11.6047L12.389 12.0672L12.3862 12.07L12.0582 12.3971L12.0554 12.4009L11.5928 12.8634L11.2629 13.1933L10.7994 13.6559L10.4696 13.9867L10.449 14.0063L10.4471 14.0044C10.4471 14.0044 10.4434 14.0091 10.4406 14.011C10.4387 14.0129 10.4368 14.0147 10.435 14.0166C10.434 14.0166 10.434 14.0175 10.4331 14.0175C10.1434 14.3324 9.95558 14.7184 9.8855 15.1352C9.86494 15.2567 9.85466 15.38 9.85466 15.5052C9.85466 15.552 9.85652 15.5987 9.85933 15.6454C9.87241 15.8688 9.92007 16.0856 9.99857 16.2893C10.6406 16.0809 11.2293 15.7258 11.7236 15.2408C11.7349 15.2305 11.7461 15.2193 11.7573 15.2081L12.0545 14.9109L12.518 14.4483L12.8478 14.1184L13.3104 13.6559L13.3132 13.6521L13.6412 13.3251L13.644 13.3223L14.1066 12.8597L14.4374 12.5289L14.9 12.0663L15.1962 11.7691L15.2299 11.7355C15.7223 11.2318 16.0718 10.6393 16.2765 10.0095C16.326 9.85996 16.3662 9.70764 16.3989 9.55439C16.4447 9.33758 16.4746 9.11704 16.4877 8.89557C16.497 8.7339 16.498 8.57223 16.4914 8.40963ZM11.262 14.7791L11.2414 14.7988H11.2405C11.248 14.7922 11.2545 14.7857 11.2611 14.7782C11.2723 14.7679 11.2835 14.7567 11.2947 14.7455L11.262 14.7791Z" fill="url(#paint1_linear_4866_1656)"/>
</g>
<defs>
<linearGradient id="paint0_linear_4866_1656" x1="19.2809" y1="14.8069" x2="7.71141" y2="3.23739" gradientUnits="userSpaceOnUse">
<stop stop-color="#6D6D6D"/>
<stop offset="1" stop-color="#D0CCC8"/>
</linearGradient>
<linearGradient id="paint1_linear_4866_1656" x1="5.23738" y1="9.09384" x2="15.0981" y2="18.9546" gradientUnits="userSpaceOnUse">
<stop stop-color="#6D6D6D"/>
<stop offset="1" stop-color="#D0CCC8"/>
</linearGradient>
<clipPath id="clip0_4866_1656">
<rect width="24" height="24" fill="white" transform="translate(0 0.0118103)"/>
</clipPath>
</defs>
</svg>
