<svg width="24" height="24" viewBox="0 0 24 24" fill="none" xmlns="http://www.w3.org/2000/svg">
<g clip-path="url(#clip0_4866_1607)">
<g clip-path="url(#clip1_4866_1607)">
<path d="M12 24.0039C18.6274 24.0039 24 18.6314 24 12.0039C24 5.37652 18.6274 0.00393677 12 0.00393677C5.37258 0.00393677 0 5.37652 0 12.0039C0 18.6314 5.37258 24.0039 12 24.0039Z" fill="white"/>
<path fill-rule="evenodd" clip-rule="evenodd" d="M12 24.0039C18.6274 24.0039 24 18.6313 24 12.0039C24 5.37653 18.6274 0.00393677 12 0.00393677C5.37259 0.00393677 0 5.37653 0 12.0039C0 18.6313 5.37259 24.0039 12 24.0039ZM7.48368 15.3001C7.812 15.4034 8.16768 15.4551 8.55072 15.4551C9.43233 15.4551 10.1346 15.2515 10.6574 14.8441C11.1803 14.4307 11.5451 13.8074 11.7518 12.9745C11.8127 12.713 11.8704 12.4516 11.9251 12.1902C11.9859 11.9287 12.0376 11.6642 12.0802 11.3967C12.1531 10.9833 12.141 10.6215 12.0437 10.3115C11.9525 10.0014 11.7913 9.73992 11.5603 9.52714C11.3353 9.31435 11.0587 9.15624 10.7304 9.0529C10.4082 8.94346 10.0555 8.88874 9.67248 8.88874C8.78482 8.88874 8.0795 9.10152 7.55664 9.52714C7.03378 9.95275 6.672 10.5759 6.47136 11.3967C6.41054 11.6642 6.34978 11.9287 6.28896 12.1902C6.23424 12.4516 6.18254 12.713 6.13392 12.9745C6.06706 13.3879 6.0792 13.7497 6.1704 14.0598C6.2677 14.3699 6.42878 14.6282 6.65376 14.835C6.87874 15.0417 7.15536 15.1968 7.48368 15.3001ZM9.53568 13.85C9.28642 14.0446 8.9976 14.1419 8.66928 14.1419C8.33486 14.1419 8.09472 14.0446 7.9488 13.85C7.80288 13.6555 7.7664 13.3454 7.83936 12.9198C7.88798 12.6523 7.93666 12.3999 7.98528 12.1628C8.04 11.9257 8.10082 11.6795 8.16768 11.4241C8.27102 10.9985 8.4443 10.6884 8.68752 10.4939C8.93678 10.2993 9.2256 10.202 9.55392 10.202C9.88224 10.202 10.1224 10.2993 10.2744 10.4939C10.4264 10.6884 10.4629 10.9985 10.3838 11.4241C10.3413 11.6795 10.2926 11.9257 10.2379 12.1628C10.1893 12.3999 10.1315 12.6523 10.0646 12.9198C9.9613 13.3454 9.78494 13.6555 9.53568 13.85ZM12.3074 15.3001C12.3439 15.3427 12.3925 15.3639 12.4533 15.3639H13.6936C13.7605 15.3639 13.8182 15.3427 13.8669 15.3001C13.9216 15.2575 13.955 15.2028 13.9672 15.1359L14.3868 13.1387H15.618C16.4023 13.1387 17.0255 12.9715 17.4876 12.6371C17.9557 12.3026 18.2658 11.7859 18.4178 11.0867C18.4908 10.734 18.4877 10.427 18.4087 10.1655C18.3296 9.89803 18.1898 9.67608 17.9892 9.49978C17.7885 9.32347 17.5362 9.19272 17.2322 9.10762C16.9343 9.02251 16.5998 8.97994 16.229 8.97994H13.8031C13.7423 8.97994 13.6845 9.0012 13.6298 9.04378C13.5751 9.08635 13.5416 9.14107 13.5295 9.20794L12.2709 15.1359C12.2587 15.2028 12.2709 15.2575 12.3074 15.3001ZM15.6727 11.8801H14.6239L14.9796 10.2476H16.074C16.2928 10.2476 16.4539 10.2841 16.5573 10.3571C16.6668 10.43 16.7306 10.5273 16.7488 10.6489C16.7671 10.7705 16.761 10.9104 16.7306 11.0684C16.6698 11.342 16.5391 11.5457 16.3384 11.6795C16.1438 11.8132 15.9219 11.8801 15.6727 11.8801Z" fill="#FF0420"/>
</g>
</g>
<defs>
<clipPath id="clip0_4866_1607">
<rect width="24" height="24" fill="white" transform="translate(0 0.00393677)"/>
</clipPath>
<clipPath id="clip1_4866_1607">
<rect width="24" height="24" fill="white" transform="translate(0 0.00393677)"/>
</clipPath>
</defs>
</svg>
