<svg width="48" height="49" viewBox="0 0 48 49" fill="none" xmlns="http://www.w3.org/2000/svg">
<g id="link_FILL0_wght400_GRAD0_opsz48 1">
<path id="Vector" d="M22.5 34.5H14C11.2333 34.5 8.875 33.525 6.925 31.575C4.975 29.625 4 27.2667 4 24.5C4 21.7333 4.975 19.375 6.925 17.425C8.875 15.475 11.2333 14.5 14 14.5H22.5V17.5H14C12.0556 17.5 10.4028 18.1794 9.04165 19.5383C7.68055 20.8971 7 22.5471 7 24.4883C7 26.4294 7.68055 28.0833 9.04165 29.45C10.4028 30.8167 12.0556 31.5 14 31.5H22.5V34.5ZM16.25 26V23H31.75V26H16.25ZM25.5 34.5V31.5H34C35.9444 31.5 37.5972 30.8206 38.9584 29.4617C40.3195 28.1029 41 26.4529 41 24.5117C41 22.5706 40.3195 20.9167 38.9584 19.55C37.5972 18.1833 35.9444 17.5 34 17.5H25.5V14.5H34C36.7667 14.5 39.125 15.475 41.075 17.425C43.025 19.375 44 21.7333 44 24.5C44 27.2667 43.025 29.625 41.075 31.575C39.125 33.525 36.7667 34.5 34 34.5H25.5Z" fill="#6D6D6D"/>
</g>
</svg>
