<svg width="32" height="32" viewBox="0 0 32 32" fill="none" xmlns="http://www.w3.org/2000/svg">
<path d="M32 16C32 24.8366 24.8366 32 16 32C7.16344 32 0 24.8366 0 16C0 7.16344 7.16344 0 16 0C24.8366 0 32 7.16344 32 16Z" fill="#0D0D0D"/>
<path d="M24.8466 11.8843C24.1875 11.2239 23.3975 10.7392 22.5353 10.4514C22.5864 10.7703 22.6138 11.0918 22.6163 11.4145C22.6188 11.6388 22.61 11.8631 22.5901 12.0874C22.5627 12.3926 22.5141 12.6967 22.4431 12.9957C22.7072 13.1489 22.9514 13.3371 23.1732 13.5576C23.8448 14.2292 24.2149 15.1226 24.2149 16.0733C24.2149 17.024 23.8448 17.9174 23.1732 18.5889C22.9527 18.8095 22.7072 18.9976 22.4443 19.1496C22.2612 19.258 22.068 19.3477 21.8674 19.42C21.8238 19.2144 21.7702 19.0126 21.7054 18.8145C21.4301 17.9697 20.9641 17.1947 20.3324 16.5405L20.3074 16.5156H20.3062L19.6907 17.1324H19.6894L19.2496 17.5722L18.6328 18.189L18.6577 18.2151C18.6677 18.2251 18.6777 18.2363 18.6876 18.2475C18.6876 18.2488 18.6889 18.2488 18.6889 18.2488C19.0029 18.5877 19.2434 18.9789 19.4016 19.4026C18.9792 19.2443 18.588 19.0051 18.2491 18.6911C18.2478 18.6911 18.2478 18.6899 18.2466 18.6886C18.2266 18.6712 18.2067 18.6525 18.188 18.6338L17.5712 19.2506L17.1314 19.6904L16.5134 20.3084C17.1725 20.9538 17.9587 21.4273 18.816 21.7064C19.0141 21.7712 19.2159 21.8248 19.4215 21.8671C19.3493 22.0677 19.2596 22.2621 19.1512 22.4453C18.9979 22.7094 18.8098 22.9536 18.5892 23.1754C17.9176 23.847 17.0243 24.2171 16.0736 24.2171C15.1229 24.2171 14.2295 23.847 13.5579 23.1754C13.3374 22.9549 13.1492 22.7094 12.9972 22.4465H12.996C12.8888 22.2621 12.7979 22.069 12.7256 21.8671C12.6272 21.5943 12.5624 21.3089 12.5337 21.0149C12.5225 20.8978 12.5163 20.7794 12.5163 20.6598C12.5163 20.5651 12.52 20.4716 12.5287 20.3782C12.5536 20.0405 12.6259 19.7128 12.7455 19.4026C12.9038 18.9764 13.1467 18.584 13.4645 18.2426C13.4645 18.2426 13.4653 18.2417 13.4669 18.2401L13.4694 18.2376C13.4831 18.2214 13.4981 18.2052 13.5143 18.1902C13.528 18.174 13.543 18.1591 13.5579 18.1441L13.9541 17.7491L14.5709 17.1311L15.0107 16.6913L15.6275 16.0745L15.6325 16.0708L16.0686 15.6335L16.0723 15.6297L16.6891 15.0129L17.1302 14.5719L18.1432 13.5589H18.1419C18.1569 13.5427 18.1718 13.529 18.1868 13.514C18.188 13.5115 18.1905 13.5103 18.193 13.509C18.1992 13.5016 18.2067 13.4941 18.2142 13.4879C18.2241 13.4779 18.2354 13.4679 18.2466 13.458C18.2466 13.4567 18.2491 13.4555 18.2503 13.4542C18.6366 13.0281 18.8733 12.5147 18.9618 11.9802C19.0016 11.7559 19.0129 11.5279 18.9967 11.3011C18.9792 11.0083 18.9182 10.718 18.811 10.4414C17.9675 10.7168 17.1925 11.1815 16.5396 11.8145L16.5134 11.8407L16.0736 12.2817L15.4568 12.8985L15.0157 13.3396L14.3989 13.9563L14.3952 13.9601L13.9579 14.3962L13.9541 14.4012L13.3374 15.0179H13.3361L12.8975 15.4578L12.2795 16.0745L11.8833 16.4708C11.8683 16.4857 11.8534 16.5007 11.8397 16.5156C11.193 17.1747 10.7195 17.9597 10.4417 18.8157C10.3769 19.0138 10.3221 19.2169 10.2797 19.4225C10.2187 19.7103 10.1788 20.0031 10.1626 20.3009C10.1551 20.4205 10.1514 20.5402 10.1514 20.6598C10.1514 20.7557 10.1539 20.8529 10.1588 20.9488C10.1725 21.2616 10.2124 21.5706 10.2747 21.8734C10.3208 22.0989 10.3806 22.3219 10.4529 22.5387C10.7395 23.401 11.2242 24.1897 11.8833 24.8488C13.0009 25.9665 14.4887 26.582 16.0736 26.582C17.6585 26.582 19.1462 25.9665 20.2626 24.8488C20.923 24.1897 21.4076 23.3997 21.6942 22.5375H21.6955C21.7665 22.3207 21.8263 22.0977 21.8724 21.8721C22.0979 21.826 22.321 21.7662 22.5378 21.6939C23.3987 21.4074 24.1875 20.9227 24.8466 20.2636C25.9642 19.1459 26.5798 17.6582 26.5798 16.0733C26.5798 14.4884 25.9642 13.0007 24.8466 11.8843ZM17.5974 12.8711L17.5712 12.8985H17.57C17.5787 12.8885 17.5874 12.8798 17.5974 12.8711ZM17.1302 12.4574L17.0866 12.5023H17.0853C17.1003 12.4861 17.1152 12.4711 17.1302 12.4574Z" fill="url(#paint0_linear_2933_5258)"/>
<path d="M21.9879 11.1983C21.9717 10.888 21.933 10.579 21.8695 10.2738C21.8221 10.0495 21.7636 9.82769 21.6901 9.60965C21.4085 8.76362 20.9325 7.96992 20.2609 7.29833C19.1445 6.18193 17.6555 5.56641 16.0719 5.56641C14.4882 5.56641 12.9993 6.18193 11.8816 7.29833C11.2225 7.95871 10.7366 8.74867 10.4512 9.61089C10.379 9.82769 10.3192 10.0507 10.2731 10.2763C10.0488 10.3224 9.82574 10.3822 9.60769 10.4557C8.76167 10.736 7.96797 11.212 7.29638 11.8836C6.17873 13.0012 5.56445 14.4889 5.56445 16.0738C5.56445 17.6587 6.17873 19.1465 7.29638 20.2629C7.95676 20.9232 8.74671 21.4079 9.60894 21.6945C9.5591 21.3793 9.53169 21.0578 9.5292 20.7326C9.52795 20.7077 9.52795 20.684 9.52795 20.6591C9.52795 20.4572 9.53667 20.2579 9.55412 20.0598C9.58277 19.752 9.63137 19.448 9.70239 19.1514C9.43824 18.9994 9.19278 18.8113 8.97099 18.5895C7.58296 17.2027 7.58296 14.945 8.97099 13.5582C9.19153 13.3377 9.43699 13.1495 9.6999 12.9975C9.88306 12.8891 10.0774 12.7981 10.278 12.7271C10.3216 12.9327 10.3765 13.1346 10.4413 13.3327C10.7154 14.1774 11.1801 14.9525 11.8119 15.6066L11.838 15.634H11.8393L12.4548 15.0172H12.456L12.8959 14.5762L13.5126 13.9594L13.4989 13.9457L13.4852 13.932H13.4865C13.474 13.9195 13.464 13.9083 13.4541 13.8971C13.4528 13.8971 13.4528 13.8959 13.4516 13.8946C13.1363 13.5507 12.8996 13.1607 12.7451 12.7458C13.1687 12.9053 13.5612 13.147 13.9014 13.4635C13.9039 13.4635 13.9051 13.466 13.9064 13.4685C13.9238 13.4822 13.94 13.4984 13.9562 13.5158L15.6321 11.84C14.9605 11.1821 14.1705 10.7173 13.3295 10.4432C13.1314 10.3784 12.9295 10.3248 12.7264 10.2825C12.7962 10.0831 12.8859 9.88999 12.9943 9.70434C13.1451 9.44268 13.3332 9.19598 13.5562 8.97294C14.943 7.58491 17.1995 7.58491 18.5875 8.97294C18.8106 9.19598 18.9975 9.44268 19.1482 9.7031C19.2566 9.88875 19.3464 10.0819 19.4161 10.28C19.5171 10.5554 19.5806 10.8419 19.6093 11.131C19.6304 11.3428 19.6329 11.5559 19.6167 11.7677C19.5906 12.1004 19.5183 12.4293 19.3987 12.7446C19.2442 13.1595 19.0087 13.5507 18.6922 13.8946C18.6922 13.8946 18.6918 13.895 18.691 13.8959C18.6723 13.917 18.6523 13.9382 18.6312 13.9582C18.6175 13.9744 18.6025 13.9893 18.5875 14.0043L18.1926 14.4005L17.5758 15.0172L17.1347 15.4583L16.518 16.0751L16.5142 16.0788L16.0769 16.5149L16.0731 16.5199L15.4564 17.1367L15.0165 17.5765L14.3985 18.1933L13.9587 18.6344L13.9313 18.6605L13.9288 18.658C13.9288 18.658 13.9238 18.6643 13.9201 18.6668C13.9176 18.6692 13.9151 18.6717 13.9126 18.6742C13.9113 18.6742 13.9113 18.6755 13.9101 18.6755C13.5238 19.0954 13.2734 19.61 13.1799 20.1657C13.1525 20.3277 13.1388 20.4921 13.1388 20.6591C13.1388 20.7214 13.1413 20.7837 13.1451 20.846C13.1625 21.1438 13.226 21.4329 13.3307 21.7045C14.1867 21.4266 14.9717 20.9531 15.6308 20.3065C15.6458 20.2928 15.6607 20.2778 15.6757 20.2629L16.0719 19.8666L16.6899 19.2499L17.1297 18.81L17.7465 18.1933L17.7502 18.1883L18.1876 17.7522L18.1913 17.7485L18.8081 17.1317L19.2492 16.6906L19.8659 16.0738L20.2609 15.6776L20.3058 15.6328C20.9624 14.9612 21.4284 14.1712 21.7013 13.3314C21.7673 13.1321 21.8209 12.929 21.8645 12.7246C21.9256 12.4356 21.9654 12.1415 21.9829 11.8462C21.9953 11.6306 21.9966 11.4151 21.9879 11.1983ZM15.0153 19.691L14.9879 19.7171H14.9866C14.9966 19.7084 15.0053 19.6997 15.014 19.6897C15.029 19.676 15.0439 19.6611 15.0589 19.6461L15.0153 19.691Z" fill="url(#paint1_linear_2933_5258)"/>
<defs>
<linearGradient id="paint0_linear_2933_5258" x1="25.7076" y1="19.7293" x2="10.2816" y2="4.30332" gradientUnits="userSpaceOnUse">
<stop stop-color="#6D6D6D"/>
<stop offset="1" stop-color="#D0CCC8"/>
</linearGradient>
<linearGradient id="paint1_linear_2933_5258" x1="6.98246" y1="12.1106" x2="20.1301" y2="25.2582" gradientUnits="userSpaceOnUse">
<stop stop-color="#6D6D6D"/>
<stop offset="1" stop-color="#D0CCC8"/>
</linearGradient>
</defs>
</svg>
